<svg width="70" height="70" viewBox="0 0 70 70" fill="none" xmlns="http://www.w3.org/2000/svg">
<rect width="70" height="70" rx="35" fill="#FFEFEF"/>
<path d="M55.3334 43.166L42.0001 19.166C40.2084 15.9368 37.7292 14.166 35.0001 14.166C32.2709 14.166 29.7917 15.9368 28.0001 19.166L14.6667 43.166C12.9792 46.2285 12.7917 49.166 14.1459 51.4785C15.5001 53.791 18.1667 55.0618 21.6667 55.0618H48.3334C51.8334 55.0618 54.5001 53.791 55.8542 51.4785C57.2084 49.166 57.0209 46.2077 55.3334 43.166ZM33.4376 28.7493C33.4376 27.8952 34.1459 27.1868 35.0001 27.1868C35.8542 27.1868 36.5626 27.8952 36.5626 28.7493V39.166C36.5626 40.0202 35.8542 40.7285 35.0001 40.7285C34.1459 40.7285 33.4376 40.0202 33.4376 39.166V28.7493ZM36.4792 46.8952C36.3751 46.9785 36.2709 47.0618 36.1667 47.1452C36.0417 47.2285 35.9167 47.291 35.7917 47.3327C35.6667 47.3952 35.5417 47.4368 35.3959 47.4577C35.2709 47.4785 35.1251 47.4993 35.0001 47.4993C34.8751 47.4993 34.7292 47.4785 34.5834 47.4577C34.4584 47.4368 34.3334 47.3952 34.2084 47.3327C34.0834 47.291 33.9584 47.2285 33.8334 47.1452C33.7292 47.0618 33.6251 46.9785 33.5209 46.8952C33.1459 46.4993 32.9167 45.9577 32.9167 45.416C32.9167 44.8743 33.1459 44.3327 33.5209 43.9368C33.6251 43.8535 33.7292 43.7702 33.8334 43.6868C33.9584 43.6035 34.0834 43.541 34.2084 43.4993C34.3334 43.4368 34.4584 43.3952 34.5834 43.3743C34.8542 43.3118 35.1459 43.3118 35.3959 43.3743C35.5417 43.3952 35.6667 43.4368 35.7917 43.4993C35.9167 43.541 36.0417 43.6035 36.1667 43.6868C36.2709 43.7702 36.3751 43.8535 36.4792 43.9368C36.8542 44.3327 37.0834 44.8743 37.0834 45.416C37.0834 45.9577 36.8542 46.4993 36.4792 46.8952Z" fill="#FF5D5D"/>
</svg>
