<svg width="25" height="24" viewBox="0 0 25 24" fill="none" xmlns="http://www.w3.org/2000/svg">
<path fill-rule="evenodd" clip-rule="evenodd" d="M19.2666 19.16C19.8566 18.26 20.0766 17.8 20.5266 16.79C17.2066 15.53 16.6766 10.8 19.9566 8.98999C18.9566 7.72999 17.5466 7 16.2166 7C15.2566 7 14.5966 7.25001 14.0066 7.48001C13.5066 7.67001 13.0566 7.84 12.4966 7.84C11.8966 7.84 11.3666 7.65001 10.8066 7.45001C10.1966 7.23001 9.55657 7 8.75657 7C7.26657 7 5.67657 7.91 4.66657 9.47C3.24657 11.67 3.49657 15.79 5.78657 19.31C6.60657 20.57 7.70657 21.98 9.13657 22C9.73657 22.01 10.1266 21.83 10.5566 21.64C11.0466 21.42 11.5766 21.18 12.5066 21.18C13.4366 21.17 13.9566 21.42 14.4466 21.64C14.8666 21.83 15.2466 22.01 15.8366 22C17.2866 21.98 18.4466 20.42 19.2666 19.16Z" fill="black"/>
<path fill-rule="evenodd" clip-rule="evenodd" d="M16.0066 2C16.1666 3.1 15.7166 4.19001 15.1266 4.95001C14.4966 5.77001 13.3966 6.41 12.3366 6.37C12.1466 5.31 12.6366 4.21999 13.2366 3.48999C13.9066 2.68999 15.0366 2.07 16.0066 2Z" fill="black"/>
</svg>
