<svg width="438" height="205" viewBox="0 0 438 205" fill="none" xmlns="http://www.w3.org/2000/svg">
<path d="M42.0647 15.4514C41.8327 14.9634 41.4967 14.5874 41.0567 14.3234C40.6167 14.0514 40.1047 13.9154 39.5207 13.9154C38.9367 13.9154 38.4087 14.0514 37.9367 14.3234C37.4727 14.5874 37.1047 14.9714 36.8327 15.4754C36.5687 15.9714 36.4367 16.5474 36.4367 17.2034C36.4367 17.8594 36.5687 18.4354 36.8327 18.9314C37.1047 19.4274 37.4727 19.8114 37.9367 20.0834C38.4087 20.3474 38.9367 20.4794 39.5207 20.4794C40.3367 20.4794 41.0087 20.2354 41.5367 19.7474C42.0647 19.2594 42.3727 18.5994 42.4607 17.7674H39.1247V16.8794H43.6247V17.7194C43.5607 18.4074 43.3447 19.0394 42.9767 19.6154C42.6087 20.1834 42.1247 20.6354 41.5247 20.9714C40.9247 21.2994 40.2567 21.4634 39.5207 21.4634C38.7447 21.4634 38.0367 21.2834 37.3967 20.9234C36.7567 20.5554 36.2487 20.0474 35.8727 19.3994C35.5047 18.7514 35.3207 18.0194 35.3207 17.2034C35.3207 16.3874 35.5047 15.6554 35.8727 15.0074C36.2487 14.3514 36.7567 13.8434 37.3967 13.4834C38.0367 13.1154 38.7447 12.9314 39.5207 12.9314C40.4087 12.9314 41.1927 13.1514 41.8727 13.5914C42.5607 14.0314 43.0607 14.6514 43.3727 15.4514H42.0647ZM47.9365 21.4994C47.3205 21.4994 46.7605 21.3594 46.2565 21.0794C45.7605 20.7994 45.3685 20.4034 45.0805 19.8914C44.8005 19.3714 44.6605 18.7714 44.6605 18.0914C44.6605 17.4194 44.8045 16.8274 45.0925 16.3154C45.3885 15.7954 45.7885 15.3994 46.2925 15.1274C46.7965 14.8474 47.3605 14.7074 47.9845 14.7074C48.6085 14.7074 49.1725 14.8474 49.6765 15.1274C50.1805 15.3994 50.5765 15.7914 50.8645 16.3034C51.1605 16.8154 51.3085 17.4114 51.3085 18.0914C51.3085 18.7714 51.1565 19.3714 50.8525 19.8914C50.5565 20.4034 50.1525 20.7994 49.6405 21.0794C49.1285 21.3594 48.5605 21.4994 47.9365 21.4994ZM47.9365 20.5394C48.3285 20.5394 48.6965 20.4474 49.0405 20.2634C49.3845 20.0794 49.6605 19.8034 49.8685 19.4354C50.0845 19.0674 50.1925 18.6194 50.1925 18.0914C50.1925 17.5634 50.0885 17.1154 49.8805 16.7474C49.6725 16.3794 49.4005 16.1074 49.0645 15.9314C48.7285 15.7474 48.3645 15.6554 47.9725 15.6554C47.5725 15.6554 47.2045 15.7474 46.8685 15.9314C46.5405 16.1074 46.2765 16.3794 46.0765 16.7474C45.8765 17.1154 45.7765 17.5634 45.7765 18.0914C45.7765 18.6274 45.8725 19.0794 46.0645 19.4474C46.2645 19.8154 46.5285 20.0914 46.8565 20.2754C47.1845 20.4514 47.5445 20.5394 47.9365 20.5394ZM55.6123 21.4994C54.9963 21.4994 54.4363 21.3594 53.9323 21.0794C53.4363 20.7994 53.0443 20.4034 52.7563 19.8914C52.4763 19.3714 52.3363 18.7714 52.3363 18.0914C52.3363 17.4194 52.4803 16.8274 52.7683 16.3154C53.0643 15.7954 53.4643 15.3994 53.9683 15.1274C54.4723 14.8474 55.0363 14.7074 55.6603 14.7074C56.2843 14.7074 56.8483 14.8474 57.3523 15.1274C57.8563 15.3994 58.2523 15.7914 58.5403 16.3034C58.8363 16.8154 58.9843 17.4114 58.9843 18.0914C58.9843 18.7714 58.8323 19.3714 58.5283 19.8914C58.2323 20.4034 57.8283 20.7994 57.3163 21.0794C56.8043 21.3594 56.2363 21.4994 55.6123 21.4994ZM55.6123 20.5394C56.0043 20.5394 56.3723 20.4474 56.7163 20.2634C57.0603 20.0794 57.3363 19.8034 57.5443 19.4354C57.7603 19.0674 57.8683 18.6194 57.8683 18.0914C57.8683 17.5634 57.7643 17.1154 57.5563 16.7474C57.3483 16.3794 57.0763 16.1074 56.7403 15.9314C56.4043 15.7474 56.0403 15.6554 55.6483 15.6554C55.2483 15.6554 54.8803 15.7474 54.5443 15.9314C54.2163 16.1074 53.9523 16.3794 53.7523 16.7474C53.5523 17.1154 53.4523 17.5634 53.4523 18.0914C53.4523 18.6274 53.5483 19.0794 53.7403 19.4474C53.9403 19.8154 54.2043 20.0914 54.5323 20.2754C54.8603 20.4514 55.2203 20.5394 55.6123 20.5394ZM63.1321 14.7074C63.7001 14.7074 64.1961 14.8314 64.6201 15.0794C65.0521 15.3274 65.3721 15.6394 65.5801 16.0154V14.8154H66.6841V21.5354C66.6841 22.1354 66.5561 22.6674 66.3001 23.1314C66.0441 23.6034 65.6761 23.9714 65.1961 24.2354C64.7241 24.4994 64.1721 24.6314 63.5401 24.6314C62.6761 24.6314 61.9561 24.4274 61.3801 24.0194C60.8041 23.6114 60.4641 23.0554 60.3601 22.3514H61.4401C61.5601 22.7514 61.8081 23.0714 62.1841 23.3114C62.5601 23.5594 63.0121 23.6834 63.5401 23.6834C64.1401 23.6834 64.6281 23.4954 65.0041 23.1194C65.3881 22.7434 65.5801 22.2154 65.5801 21.5354V20.1554C65.3641 20.5394 65.0441 20.8594 64.6201 21.1154C64.1961 21.3714 63.7001 21.4994 63.1321 21.4994C62.5481 21.4994 62.0161 21.3554 61.5361 21.0674C61.0641 20.7794 60.6921 20.3754 60.4201 19.8554C60.1481 19.3354 60.0121 18.7434 60.0121 18.0794C60.0121 17.4074 60.1481 16.8194 60.4201 16.3154C60.6921 15.8034 61.0641 15.4074 61.5361 15.1274C62.0161 14.8474 62.5481 14.7074 63.1321 14.7074ZM65.5801 18.0914C65.5801 17.5954 65.4801 17.1634 65.2801 16.7954C65.0801 16.4274 64.8081 16.1474 64.4641 15.9554C64.1281 15.7554 63.7561 15.6554 63.3481 15.6554C62.9401 15.6554 62.5681 15.7514 62.2321 15.9434C61.8961 16.1354 61.6281 16.4154 61.4281 16.7834C61.2281 17.1514 61.1281 17.5834 61.1281 18.0794C61.1281 18.5834 61.2281 19.0234 61.4281 19.3994C61.6281 19.7674 61.8961 20.0514 62.2321 20.2514C62.5681 20.4434 62.9401 20.5394 63.3481 20.5394C63.7561 20.5394 64.1281 20.4434 64.4641 20.2514C64.8081 20.0514 65.0801 19.7674 65.2801 19.3994C65.4801 19.0234 65.5801 18.5874 65.5801 18.0914ZM69.6215 12.5114V21.3914H68.5295V12.5114H69.6215ZM77.4826 17.8514C77.4826 18.0594 77.4706 18.2794 77.4466 18.5114H72.1906C72.2306 19.1594 72.4506 19.6674 72.8506 20.0354C73.2586 20.3954 73.7506 20.5754 74.3266 20.5754C74.7986 20.5754 75.1906 20.4674 75.5026 20.2514C75.8226 20.0274 76.0466 19.7314 76.1746 19.3634H77.3506C77.1746 19.9954 76.8226 20.5114 76.2946 20.9114C75.7666 21.3034 75.1106 21.4994 74.3266 21.4994C73.7026 21.4994 73.1426 21.3594 72.6466 21.0794C72.1586 20.7994 71.7746 20.4034 71.4946 19.8914C71.2146 19.3714 71.0746 18.7714 71.0746 18.0914C71.0746 17.4114 71.2106 16.8154 71.4826 16.3034C71.7546 15.7914 72.1346 15.3994 72.6226 15.1274C73.1186 14.8474 73.6866 14.7074 74.3266 14.7074C74.9506 14.7074 75.5026 14.8434 75.9826 15.1154C76.4626 15.3874 76.8306 15.7634 77.0866 16.2434C77.3506 16.7154 77.4826 17.2514 77.4826 17.8514ZM76.3546 17.6234C76.3546 17.2074 76.2626 16.8514 76.0786 16.5554C75.8946 16.2514 75.6426 16.0234 75.3226 15.8714C75.0106 15.7114 74.6626 15.6314 74.2786 15.6314C73.7266 15.6314 73.2546 15.8074 72.8626 16.1594C72.4786 16.5114 72.2586 16.9994 72.2026 17.6234H76.3546Z" fill="#777F90"/>
<mask id="path-2-inside-1_8103_7265" fill="white">
<path d="M343 0.891357L343 34.8914L84 34.8914L84 0.891346L343 0.891357Z"/>
</mask>
<path d="M343 0.891357L343 34.8914L84 34.8914L84 0.891346L343 0.891357Z" fill="url(#paint0_linear_8103_7265)"/>
<path d="M342 0.891357L342 34.8914L344 34.8914L344 0.891357L342 0.891357Z" fill="#1CC43B" mask="url(#path-2-inside-1_8103_7265)"/>
<path d="M25.1286 47.0274V47.9154H21.4926V50.7354H24.4446V51.6234H21.4926V55.3914H20.4006V47.0274H25.1286ZM26.0394 52.0794C26.0394 51.4074 26.1754 50.8194 26.4474 50.3154C26.7194 49.8034 27.0914 49.4074 27.5634 49.1274C28.0434 48.8474 28.5754 48.7074 29.1594 48.7074C29.7354 48.7074 30.2354 48.8314 30.6594 49.0794C31.0834 49.3274 31.3994 49.6394 31.6074 50.0154V48.8154H32.7114V55.3914H31.6074V54.1674C31.3914 54.5514 31.0674 54.8714 30.6354 55.1274C30.2114 55.3754 29.7154 55.4994 29.1474 55.4994C28.5634 55.4994 28.0354 55.3554 27.5634 55.0674C27.0914 54.7794 26.7194 54.3754 26.4474 53.8554C26.1754 53.3354 26.0394 52.7434 26.0394 52.0794ZM31.6074 52.0914C31.6074 51.5954 31.5074 51.1634 31.3074 50.7954C31.1074 50.4274 30.8354 50.1474 30.4914 49.9554C30.1554 49.7554 29.7834 49.6554 29.3754 49.6554C28.9674 49.6554 28.5954 49.7514 28.2594 49.9434C27.9234 50.1354 27.6554 50.4154 27.4554 50.7834C27.2554 51.1514 27.1554 51.5834 27.1554 52.0794C27.1554 52.5834 27.2554 53.0234 27.4554 53.3994C27.6554 53.7674 27.9234 54.0514 28.2594 54.2514C28.5954 54.4434 28.9674 54.5394 29.3754 54.5394C29.7834 54.5394 30.1554 54.4434 30.4914 54.2514C30.8354 54.0514 31.1074 53.7674 31.3074 53.3994C31.5074 53.0234 31.6074 52.5874 31.6074 52.0914ZM34.1488 52.0914C34.1488 51.4114 34.2848 50.8194 34.5568 50.3154C34.8288 49.8034 35.2048 49.4074 35.6848 49.1274C36.1728 48.8474 36.7288 48.7074 37.3528 48.7074C38.1608 48.7074 38.8248 48.9034 39.3448 49.2954C39.8728 49.6874 40.2208 50.2314 40.3888 50.9274H39.2128C39.1008 50.5274 38.8808 50.2114 38.5528 49.9794C38.2328 49.7474 37.8328 49.6314 37.3528 49.6314C36.7288 49.6314 36.2248 49.8474 35.8408 50.2794C35.4568 50.7034 35.2648 51.3074 35.2648 52.0914C35.2648 52.8834 35.4568 53.4954 35.8408 53.9274C36.2248 54.3594 36.7288 54.5754 37.3528 54.5754C37.8328 54.5754 38.2328 54.4634 38.5528 54.2394C38.8728 54.0154 39.0928 53.6954 39.2128 53.2794H40.3888C40.2128 53.9514 39.8608 54.4914 39.3328 54.8994C38.8048 55.2994 38.1448 55.4994 37.3528 55.4994C36.7288 55.4994 36.1728 55.3594 35.6848 55.0794C35.2048 54.7994 34.8288 54.4034 34.5568 53.8914C34.2848 53.3794 34.1488 52.7794 34.1488 52.0914ZM47.8459 51.8514C47.8459 52.0594 47.8339 52.2794 47.8099 52.5114H42.5539C42.5939 53.1594 42.8139 53.6674 43.2139 54.0354C43.6219 54.3954 44.1139 54.5754 44.6899 54.5754C45.1619 54.5754 45.5539 54.4674 45.8659 54.2514C46.1859 54.0274 46.4099 53.7314 46.5379 53.3634H47.7139C47.5379 53.9954 47.1859 54.5114 46.6579 54.9114C46.1299 55.3034 45.4739 55.4994 44.6899 55.4994C44.0659 55.4994 43.5059 55.3594 43.0099 55.0794C42.5219 54.7994 42.1379 54.4034 41.8579 53.8914C41.5779 53.3714 41.4379 52.7714 41.4379 52.0914C41.4379 51.4114 41.5739 50.8154 41.8459 50.3034C42.1179 49.7914 42.4979 49.3994 42.9859 49.1274C43.4819 48.8474 44.0499 48.7074 44.6899 48.7074C45.3139 48.7074 45.8659 48.8434 46.3459 49.1154C46.8259 49.3874 47.1939 49.7634 47.4499 50.2434C47.7139 50.7154 47.8459 51.2514 47.8459 51.8514ZM46.7179 51.6234C46.7179 51.2074 46.6259 50.8514 46.4419 50.5554C46.2579 50.2514 46.0059 50.0234 45.6859 49.8714C45.3739 49.7114 45.0259 49.6314 44.6419 49.6314C44.0899 49.6314 43.6179 49.8074 43.2259 50.1594C42.8419 50.5114 42.6219 50.9994 42.5659 51.6234H46.7179ZM50.3793 50.0394C50.6033 49.6474 50.9313 49.3274 51.3633 49.0794C51.7953 48.8314 52.2873 48.7074 52.8393 48.7074C53.4313 48.7074 53.9633 48.8474 54.4353 49.1274C54.9073 49.4074 55.2793 49.8034 55.5513 50.3154C55.8233 50.8194 55.9593 51.4074 55.9593 52.0794C55.9593 52.7434 55.8233 53.3354 55.5513 53.8554C55.2793 54.3754 54.9033 54.7794 54.4233 55.0674C53.9513 55.3554 53.4233 55.4994 52.8393 55.4994C52.2713 55.4994 51.7713 55.3754 51.3393 55.1274C50.9153 54.8794 50.5953 54.5634 50.3793 54.1794V55.3914H49.2873V46.5114H50.3793V50.0394ZM54.8433 52.0794C54.8433 51.5834 54.7433 51.1514 54.5433 50.7834C54.3433 50.4154 54.0713 50.1354 53.7273 49.9434C53.3913 49.7514 53.0193 49.6554 52.6113 49.6554C52.2113 49.6554 51.8393 49.7554 51.4953 49.9554C51.1593 50.1474 50.8873 50.4314 50.6793 50.8074C50.4793 51.1754 50.3793 51.6034 50.3793 52.0914C50.3793 52.5874 50.4793 53.0234 50.6793 53.3994C50.8873 53.7674 51.1593 54.0514 51.4953 54.2514C51.8393 54.4434 52.2113 54.5394 52.6113 54.5394C53.0193 54.5394 53.3913 54.4434 53.7273 54.2514C54.0713 54.0514 54.3433 53.7674 54.5433 53.3994C54.7433 53.0234 54.8433 52.5834 54.8433 52.0794ZM60.2647 55.4994C59.6487 55.4994 59.0887 55.3594 58.5847 55.0794C58.0887 54.7994 57.6967 54.4034 57.4087 53.8914C57.1287 53.3714 56.9887 52.7714 56.9887 52.0914C56.9887 51.4194 57.1327 50.8274 57.4207 50.3154C57.7167 49.7954 58.1167 49.3994 58.6207 49.1274C59.1247 48.8474 59.6887 48.7074 60.3127 48.7074C60.9367 48.7074 61.5007 48.8474 62.0047 49.1274C62.5087 49.3994 62.9047 49.7914 63.1927 50.3034C63.4887 50.8154 63.6367 51.4114 63.6367 52.0914C63.6367 52.7714 63.4847 53.3714 63.1807 53.8914C62.8847 54.4034 62.4807 54.7994 61.9687 55.0794C61.4567 55.3594 60.8887 55.4994 60.2647 55.4994ZM60.2647 54.5394C60.6567 54.5394 61.0247 54.4474 61.3687 54.2634C61.7127 54.0794 61.9887 53.8034 62.1967 53.4354C62.4127 53.0674 62.5207 52.6194 62.5207 52.0914C62.5207 51.5634 62.4167 51.1154 62.2087 50.7474C62.0007 50.3794 61.7287 50.1074 61.3927 49.9314C61.0567 49.7474 60.6927 49.6554 60.3007 49.6554C59.9007 49.6554 59.5327 49.7474 59.1967 49.9314C58.8687 50.1074 58.6047 50.3794 58.4047 50.7474C58.2047 51.1154 58.1047 51.5634 58.1047 52.0914C58.1047 52.6274 58.2007 53.0794 58.3927 53.4474C58.5927 53.8154 58.8567 54.0914 59.1847 54.2754C59.5127 54.4514 59.8727 54.5394 60.2647 54.5394ZM67.9404 55.4994C67.3244 55.4994 66.7644 55.3594 66.2604 55.0794C65.7644 54.7994 65.3724 54.4034 65.0844 53.8914C64.8044 53.3714 64.6644 52.7714 64.6644 52.0914C64.6644 51.4194 64.8084 50.8274 65.0964 50.3154C65.3924 49.7954 65.7924 49.3994 66.2964 49.1274C66.8004 48.8474 67.3644 48.7074 67.9884 48.7074C68.6124 48.7074 69.1764 48.8474 69.6804 49.1274C70.1844 49.3994 70.5804 49.7914 70.8684 50.3034C71.1644 50.8154 71.3124 51.4114 71.3124 52.0914C71.3124 52.7714 71.1604 53.3714 70.8564 53.8914C70.5604 54.4034 70.1564 54.7994 69.6444 55.0794C69.1324 55.3594 68.5644 55.4994 67.9404 55.4994ZM67.9404 54.5394C68.3324 54.5394 68.7004 54.4474 69.0444 54.2634C69.3884 54.0794 69.6644 53.8034 69.8724 53.4354C70.0884 53.0674 70.1964 52.6194 70.1964 52.0914C70.1964 51.5634 70.0924 51.1154 69.8844 50.7474C69.6764 50.3794 69.4044 50.1074 69.0684 49.9314C68.7324 49.7474 68.3684 49.6554 67.9764 49.6554C67.5764 49.6554 67.2084 49.7474 66.8724 49.9314C66.5444 50.1074 66.2804 50.3794 66.0804 50.7474C65.8804 51.1154 65.7804 51.5634 65.7804 52.0914C65.7804 52.6274 65.8764 53.0794 66.0684 53.4474C66.2684 53.8154 66.5324 54.0914 66.8604 54.2754C67.1884 54.4514 67.5484 54.5394 67.9404 54.5394ZM76.4202 55.3914L73.8402 52.4874V55.3914H72.7482V46.5114H73.8402V51.7314L76.3722 48.8154H77.8962L74.8002 52.0914L77.9082 55.3914H76.4202Z" fill="#777F90"/>
<mask id="path-5-inside-2_8103_7265" fill="white">
<path d="M219 34.8914L219 68.8914L84 68.8914L84 34.8914L219 34.8914Z"/>
</mask>
<path d="M219 34.8914L219 68.8914L84 68.8914L84 34.8914L219 34.8914Z" fill="url(#paint1_linear_8103_7265)"/>
<path d="M218 34.8914L218 68.8914L220 68.8914L220 34.8914L218 34.8914Z" fill="#1CC43B" mask="url(#path-5-inside-2_8103_7265)"/>
<path d="M49.1796 89.3914L47.1876 85.9714H45.8676V89.3914H44.7756V81.0274H47.4756C48.1076 81.0274 48.6396 81.1354 49.0716 81.3514C49.5116 81.5674 49.8396 81.8594 50.0556 82.2274C50.2716 82.5954 50.3796 83.0154 50.3796 83.4874C50.3796 84.0634 50.2116 84.5714 49.8756 85.0114C49.5476 85.4514 49.0516 85.7434 48.3876 85.8874L50.4876 89.3914H49.1796ZM45.8676 85.0954H47.4756C48.0676 85.0954 48.5116 84.9514 48.8076 84.6634C49.1036 84.3674 49.2516 83.9754 49.2516 83.4874C49.2516 82.9914 49.1036 82.6074 48.8076 82.3354C48.5196 82.0634 48.0756 81.9274 47.4756 81.9274H45.8676V85.0954ZM51.6683 86.0794C51.6683 85.4074 51.8043 84.8194 52.0763 84.3154C52.3483 83.8034 52.7203 83.4074 53.1923 83.1274C53.6723 82.8474 54.2043 82.7074 54.7883 82.7074C55.3643 82.7074 55.8643 82.8314 56.2883 83.0794C56.7123 83.3274 57.0283 83.6394 57.2363 84.0154V82.8154H58.3403V89.3914H57.2363V88.1674C57.0203 88.5514 56.6963 88.8714 56.2643 89.1274C55.8403 89.3754 55.3443 89.4994 54.7763 89.4994C54.1923 89.4994 53.6643 89.3554 53.1923 89.0674C52.7203 88.7794 52.3483 88.3754 52.0763 87.8554C51.8043 87.3354 51.6683 86.7434 51.6683 86.0794ZM57.2363 86.0914C57.2363 85.5954 57.1363 85.1634 56.9363 84.7954C56.7363 84.4274 56.4643 84.1474 56.1203 83.9554C55.7843 83.7554 55.4123 83.6554 55.0043 83.6554C54.5963 83.6554 54.2243 83.7514 53.8883 83.9434C53.5523 84.1354 53.2843 84.4154 53.0843 84.7834C52.8843 85.1514 52.7843 85.5834 52.7843 86.0794C52.7843 86.5834 52.8843 87.0234 53.0843 87.3994C53.2843 87.7674 53.5523 88.0514 53.8883 88.2514C54.2243 88.4434 54.5963 88.5394 55.0043 88.5394C55.4123 88.5394 55.7843 88.4434 56.1203 88.2514C56.4643 88.0514 56.7363 87.7674 56.9363 87.3994C57.1363 87.0234 57.2363 86.5874 57.2363 86.0914ZM59.7777 86.0794C59.7777 85.4074 59.9137 84.8194 60.1857 84.3154C60.4577 83.8034 60.8297 83.4074 61.3017 83.1274C61.7817 82.8474 62.3177 82.7074 62.9097 82.7074C63.4217 82.7074 63.8977 82.8274 64.3377 83.0674C64.7777 83.2994 65.1137 83.6074 65.3457 83.9914V80.5114H66.4497V89.3914H65.3457V88.1554C65.1297 88.5474 64.8097 88.8714 64.3857 89.1274C63.9617 89.3754 63.4657 89.4994 62.8977 89.4994C62.3137 89.4994 61.7817 89.3554 61.3017 89.0674C60.8297 88.7794 60.4577 88.3754 60.1857 87.8554C59.9137 87.3354 59.7777 86.7434 59.7777 86.0794ZM65.3457 86.0914C65.3457 85.5954 65.2457 85.1634 65.0457 84.7954C64.8457 84.4274 64.5737 84.1474 64.2297 83.9554C63.8937 83.7554 63.5217 83.6554 63.1137 83.6554C62.7057 83.6554 62.3337 83.7514 61.9977 83.9434C61.6617 84.1354 61.3937 84.4154 61.1937 84.7834C60.9937 85.1514 60.8937 85.5834 60.8937 86.0794C60.8937 86.5834 60.9937 87.0234 61.1937 87.3994C61.3937 87.7674 61.6617 88.0514 61.9977 88.2514C62.3337 88.4434 62.7057 88.5394 63.1137 88.5394C63.5217 88.5394 63.8937 88.4434 64.2297 88.2514C64.5737 88.0514 64.8457 87.7674 65.0457 87.3994C65.2457 87.0234 65.3457 86.5874 65.3457 86.0914ZM68.8591 81.7474C68.6511 81.7474 68.4751 81.6754 68.3311 81.5314C68.1871 81.3874 68.1151 81.2114 68.1151 81.0034C68.1151 80.7954 68.1871 80.6194 68.3311 80.4754C68.4751 80.3314 68.6511 80.2594 68.8591 80.2594C69.0591 80.2594 69.2271 80.3314 69.3631 80.4754C69.5071 80.6194 69.5791 80.7954 69.5791 81.0034C69.5791 81.2114 69.5071 81.3874 69.3631 81.5314C69.2271 81.6754 69.0591 81.7474 68.8591 81.7474ZM69.3871 82.8154V89.3914H68.2951V82.8154H69.3871ZM74.1162 89.4994C73.5002 89.4994 72.9402 89.3594 72.4362 89.0794C71.9402 88.7994 71.5482 88.4034 71.2602 87.8914C70.9802 87.3714 70.8402 86.7714 70.8402 86.0914C70.8402 85.4194 70.9842 84.8274 71.2722 84.3154C71.5682 83.7954 71.9682 83.3994 72.4722 83.1274C72.9762 82.8474 73.5402 82.7074 74.1642 82.7074C74.7882 82.7074 75.3522 82.8474 75.8562 83.1274C76.3602 83.3994 76.7562 83.7914 77.0442 84.3034C77.3402 84.8154 77.4882 85.4114 77.4882 86.0914C77.4882 86.7714 77.3362 87.3714 77.0322 87.8914C76.7362 88.4034 76.3322 88.7994 75.8202 89.0794C75.3082 89.3594 74.7402 89.4994 74.1162 89.4994ZM74.1162 88.5394C74.5082 88.5394 74.8762 88.4474 75.2202 88.2634C75.5642 88.0794 75.8402 87.8034 76.0482 87.4354C76.2642 87.0674 76.3722 86.6194 76.3722 86.0914C76.3722 85.5634 76.2682 85.1154 76.0602 84.7474C75.8522 84.3794 75.5802 84.1074 75.2442 83.9314C74.9082 83.7474 74.5442 83.6554 74.1522 83.6554C73.7522 83.6554 73.3842 83.7474 73.0482 83.9314C72.7202 84.1074 72.4562 84.3794 72.2562 84.7474C72.0562 85.1154 71.9562 85.5634 71.9562 86.0914C71.9562 86.6274 72.0522 87.0794 72.2442 87.4474C72.4442 87.8154 72.7082 88.0914 73.0362 88.2754C73.3642 88.4514 73.7242 88.5394 74.1162 88.5394Z" fill="#777F90"/>
<mask id="path-8-inside-3_8103_7265" fill="white">
<path d="M317 68.8914L317 102.891L84 102.891L84 68.8913L317 68.8914Z"/>
</mask>
<path d="M317 68.8914L317 102.891L84 102.891L84 68.8913L317 68.8914Z" fill="url(#paint2_linear_8103_7265)"/>
<path d="M316 68.8914L316 102.891L318 102.891L318 68.8914L316 68.8914Z" fill="#1CC43B" mask="url(#path-8-inside-3_8103_7265)"/>
<rect x="312" y="80.8914" width="10" height="10" rx="5" fill="#1CC43B"/>
<path d="M335.09 87.9954C335.858 87.3554 336.47 86.8234 336.926 86.3994C337.382 85.9674 337.762 85.5194 338.066 85.0554C338.37 84.5914 338.522 84.1354 338.522 83.6874C338.522 83.2794 338.426 82.9594 338.234 82.7274C338.042 82.4954 337.746 82.3794 337.346 82.3794C336.946 82.3794 336.638 82.5154 336.422 82.7874C336.206 83.0514 336.094 83.4154 336.086 83.8794H334.454C334.486 82.9194 334.77 82.1914 335.306 81.6954C335.85 81.1994 336.538 80.9514 337.37 80.9514C338.282 80.9514 338.982 81.1954 339.47 81.6834C339.958 82.1634 340.202 82.7994 340.202 83.5914C340.202 84.2154 340.034 84.8114 339.698 85.3794C339.362 85.9474 338.978 86.4434 338.546 86.8674C338.114 87.2834 337.55 87.7874 336.854 88.3794H340.394V89.7714H334.466V88.5234L335.09 87.9954ZM341.452 85.4034C341.452 84.0194 341.7 82.9354 342.196 82.1514C342.7 81.3674 343.532 80.9754 344.692 80.9754C345.852 80.9754 346.68 81.3674 347.176 82.1514C347.68 82.9354 347.932 84.0194 347.932 85.4034C347.932 86.7954 347.68 87.8874 347.176 88.6794C346.68 89.4714 345.852 89.8674 344.692 89.8674C343.532 89.8674 342.7 89.4714 342.196 88.6794C341.7 87.8874 341.452 86.7954 341.452 85.4034ZM346.276 85.4034C346.276 84.8114 346.236 84.3154 346.156 83.9154C346.084 83.5074 345.932 83.1754 345.7 82.9194C345.476 82.6634 345.14 82.5354 344.692 82.5354C344.244 82.5354 343.904 82.6634 343.672 82.9194C343.448 83.1754 343.296 83.5074 343.216 83.9154C343.144 84.3154 343.108 84.8114 343.108 85.4034C343.108 86.0114 343.144 86.5234 343.216 86.9394C343.288 87.3474 343.44 87.6794 343.672 87.9354C343.904 88.1834 344.244 88.3074 344.692 88.3074C345.14 88.3074 345.48 88.1834 345.712 87.9354C345.944 87.6794 346.096 87.3474 346.168 86.9394C346.24 86.5234 346.276 86.0114 346.276 85.4034Z" fill="#292D32"/>
<path d="M30.4128 119.083C30.7168 119.131 30.9928 119.255 31.2408 119.455C31.4968 119.655 31.6968 119.903 31.8408 120.199C31.9928 120.495 32.0688 120.811 32.0688 121.147C32.0688 121.571 31.9608 121.955 31.7448 122.299C31.5288 122.635 31.2128 122.903 30.7968 123.103C30.3888 123.295 29.9048 123.391 29.3448 123.391H26.2248V115.027H29.2248C29.7928 115.027 30.2768 115.123 30.6768 115.315C31.0768 115.499 31.3768 115.751 31.5768 116.071C31.7768 116.391 31.8768 116.751 31.8768 117.151C31.8768 117.647 31.7408 118.059 31.4688 118.387C31.2048 118.707 30.8528 118.939 30.4128 119.083ZM27.3168 118.639H29.1528C29.6648 118.639 30.0608 118.519 30.3408 118.279C30.6208 118.039 30.7608 117.707 30.7608 117.283C30.7608 116.859 30.6208 116.527 30.3408 116.287C30.0608 116.047 29.6568 115.927 29.1288 115.927H27.3168V118.639ZM29.2488 122.491C29.7928 122.491 30.2168 122.363 30.5208 122.107C30.8248 121.851 30.9768 121.495 30.9768 121.039C30.9768 120.575 30.8168 120.211 30.4968 119.947C30.1768 119.675 29.7488 119.539 29.2128 119.539H27.3168V122.491H29.2488ZM34.1482 115.747C33.9402 115.747 33.7642 115.675 33.6202 115.531C33.4762 115.387 33.4042 115.211 33.4042 115.003C33.4042 114.795 33.4762 114.619 33.6202 114.475C33.7642 114.331 33.9402 114.259 34.1482 114.259C34.3482 114.259 34.5162 114.331 34.6522 114.475C34.7962 114.619 34.8682 114.795 34.8682 115.003C34.8682 115.211 34.7962 115.387 34.6522 115.531C34.5162 115.675 34.3482 115.747 34.1482 115.747ZM34.6762 116.815V123.391H33.5842V116.815H34.6762ZM37.6293 114.511V123.391H36.5373V114.511H37.6293ZM40.5824 114.511V123.391H39.4904V114.511H40.5824ZM43.5355 118.039C43.7595 117.647 44.0875 117.327 44.5195 117.079C44.9515 116.831 45.4435 116.707 45.9955 116.707C46.5875 116.707 47.1195 116.847 47.5915 117.127C48.0635 117.407 48.4355 117.803 48.7075 118.315C48.9795 118.819 49.1155 119.407 49.1155 120.079C49.1155 120.743 48.9795 121.335 48.7075 121.855C48.4355 122.375 48.0595 122.779 47.5795 123.067C47.1075 123.355 46.5795 123.499 45.9955 123.499C45.4275 123.499 44.9275 123.375 44.4955 123.127C44.0715 122.879 43.7515 122.563 43.5355 122.179V123.391H42.4435V114.511H43.5355V118.039ZM47.9995 120.079C47.9995 119.583 47.8995 119.151 47.6995 118.783C47.4995 118.415 47.2275 118.135 46.8835 117.943C46.5475 117.751 46.1755 117.655 45.7675 117.655C45.3675 117.655 44.9955 117.755 44.6515 117.955C44.3155 118.147 44.0435 118.431 43.8355 118.807C43.6355 119.175 43.5355 119.603 43.5355 120.091C43.5355 120.587 43.6355 121.023 43.8355 121.399C44.0435 121.767 44.3155 122.051 44.6515 122.251C44.9955 122.443 45.3675 122.539 45.7675 122.539C46.1755 122.539 46.5475 122.443 46.8835 122.251C47.2275 122.051 47.4995 121.767 47.6995 121.399C47.8995 121.023 47.9995 120.583 47.9995 120.079ZM53.4209 123.499C52.8049 123.499 52.2449 123.359 51.7409 123.079C51.2449 122.799 50.8529 122.403 50.5649 121.891C50.2849 121.371 50.1449 120.771 50.1449 120.091C50.1449 119.419 50.2889 118.827 50.5769 118.315C50.8729 117.795 51.2729 117.399 51.7769 117.127C52.2809 116.847 52.8449 116.707 53.4689 116.707C54.0929 116.707 54.6569 116.847 55.1609 117.127C55.6649 117.399 56.0609 117.791 56.3489 118.303C56.6449 118.815 56.7929 119.411 56.7929 120.091C56.7929 120.771 56.6409 121.371 56.3369 121.891C56.0409 122.403 55.6369 122.799 55.1249 123.079C54.6129 123.359 54.0449 123.499 53.4209 123.499ZM53.4209 122.539C53.8129 122.539 54.1809 122.447 54.5249 122.263C54.8689 122.079 55.1449 121.803 55.3529 121.435C55.5689 121.067 55.6769 120.619 55.6769 120.091C55.6769 119.563 55.5729 119.115 55.3649 118.747C55.1569 118.379 54.8849 118.107 54.5489 117.931C54.2129 117.747 53.8489 117.655 53.4569 117.655C53.0569 117.655 52.6889 117.747 52.3529 117.931C52.0249 118.107 51.7609 118.379 51.5609 118.747C51.3609 119.115 51.2609 119.563 51.2609 120.091C51.2609 120.627 51.3569 121.079 51.5489 121.447C51.7489 121.815 52.0129 122.091 52.3409 122.275C52.6689 122.451 53.0289 122.539 53.4209 122.539ZM57.8207 120.079C57.8207 119.407 57.9567 118.819 58.2287 118.315C58.5007 117.803 58.8727 117.407 59.3447 117.127C59.8247 116.847 60.3567 116.707 60.9407 116.707C61.5167 116.707 62.0167 116.831 62.4407 117.079C62.8647 117.327 63.1807 117.639 63.3887 118.015V116.815H64.4927V123.391H63.3887V122.167C63.1727 122.551 62.8487 122.871 62.4167 123.127C61.9927 123.375 61.4967 123.499 60.9287 123.499C60.3447 123.499 59.8167 123.355 59.3447 123.067C58.8727 122.779 58.5007 122.375 58.2287 121.855C57.9567 121.335 57.8207 120.743 57.8207 120.079ZM63.3887 120.091C63.3887 119.595 63.2887 119.163 63.0887 118.795C62.8887 118.427 62.6167 118.147 62.2727 117.955C61.9367 117.755 61.5647 117.655 61.1567 117.655C60.7487 117.655 60.3767 117.751 60.0407 117.943C59.7047 118.135 59.4367 118.415 59.2367 118.783C59.0367 119.151 58.9367 119.583 58.9367 120.079C58.9367 120.583 59.0367 121.023 59.2367 121.399C59.4367 121.767 59.7047 122.051 60.0407 122.251C60.3767 122.443 60.7487 122.539 61.1567 122.539C61.5647 122.539 61.9367 122.443 62.2727 122.251C62.6167 122.051 62.8887 121.767 63.0887 121.399C63.2887 121.023 63.3887 120.587 63.3887 120.091ZM67.4301 117.883C67.6221 117.507 67.8941 117.215 68.2461 117.007C68.6061 116.799 69.0421 116.695 69.5541 116.695V117.823H69.2661C68.0421 117.823 67.4301 118.487 67.4301 119.815V123.391H66.3381V116.815H67.4301V117.883ZM70.4066 120.079C70.4066 119.407 70.5426 118.819 70.8146 118.315C71.0866 117.803 71.4586 117.407 71.9306 117.127C72.4106 116.847 72.9466 116.707 73.5386 116.707C74.0506 116.707 74.5266 116.827 74.9666 117.067C75.4066 117.299 75.7426 117.607 75.9746 117.991V114.511H77.0786V123.391H75.9746V122.155C75.7586 122.547 75.4386 122.871 75.0146 123.127C74.5906 123.375 74.0946 123.499 73.5266 123.499C72.9426 123.499 72.4106 123.355 71.9306 123.067C71.4586 122.779 71.0866 122.375 70.8146 121.855C70.5426 121.335 70.4066 120.743 70.4066 120.079ZM75.9746 120.091C75.9746 119.595 75.8746 119.163 75.6746 118.795C75.4746 118.427 75.2026 118.147 74.8586 117.955C74.5226 117.755 74.1506 117.655 73.7426 117.655C73.3346 117.655 72.9626 117.751 72.6266 117.943C72.2906 118.135 72.0226 118.415 71.8226 118.783C71.6226 119.151 71.5226 119.583 71.5226 120.079C71.5226 120.583 71.6226 121.023 71.8226 121.399C72.0226 121.767 72.2906 122.051 72.6266 122.251C72.9626 122.443 73.3346 122.539 73.7426 122.539C74.1506 122.539 74.5226 122.443 74.8586 122.251C75.2026 122.051 75.4746 121.767 75.6746 121.399C75.8746 121.023 75.9746 120.587 75.9746 120.091Z" fill="#777F90"/>
<mask id="path-13-inside-4_8103_7265" fill="white">
<path d="M275 102.891L275 136.891L84 136.891L84 102.891L275 102.891Z"/>
</mask>
<path d="M275 102.891L275 136.891L84 136.891L84 102.891L275 102.891Z" fill="url(#paint3_linear_8103_7265)"/>
<path d="M274 102.891L274 136.891L276 136.891L276 102.891L274 102.891Z" fill="#1CC43B" mask="url(#path-13-inside-4_8103_7265)"/>
<path d="M13.5856 142.027V142.915H9.94959V145.735H12.9016V146.623H9.94959V150.391H8.85759V142.027H13.5856ZM15.9965 144.883C16.1885 144.507 16.4605 144.215 16.8125 144.007C17.1725 143.799 17.6085 143.695 18.1205 143.695V144.823H17.8325C16.6085 144.823 15.9965 145.487 15.9965 146.815V150.391H14.9045V143.815H15.9965V144.883ZM19.945 142.747C19.737 142.747 19.561 142.675 19.417 142.531C19.273 142.387 19.201 142.211 19.201 142.003C19.201 141.795 19.273 141.619 19.417 141.475C19.561 141.331 19.737 141.259 19.945 141.259C20.145 141.259 20.313 141.331 20.449 141.475C20.593 141.619 20.665 141.795 20.665 142.003C20.665 142.211 20.593 142.387 20.449 142.531C20.313 142.675 20.145 142.747 19.945 142.747ZM20.473 143.815V150.391H19.381V143.815H20.473ZM28.3342 146.851C28.3342 147.059 28.3222 147.279 28.2982 147.511H23.0422C23.0822 148.159 23.3022 148.667 23.7022 149.035C24.1102 149.395 24.6022 149.575 25.1782 149.575C25.6502 149.575 26.0422 149.467 26.3542 149.251C26.6742 149.027 26.8982 148.731 27.0262 148.363H28.2022C28.0262 148.995 27.6742 149.511 27.1462 149.911C26.6182 150.303 25.9622 150.499 25.1782 150.499C24.5542 150.499 23.9942 150.359 23.4982 150.079C23.0102 149.799 22.6262 149.403 22.3462 148.891C22.0662 148.371 21.9262 147.771 21.9262 147.091C21.9262 146.411 22.0622 145.815 22.3342 145.303C22.6062 144.791 22.9862 144.399 23.4742 144.127C23.9702 143.847 24.5382 143.707 25.1782 143.707C25.8022 143.707 26.3542 143.843 26.8342 144.115C27.3142 144.387 27.6822 144.763 27.9382 145.243C28.2022 145.715 28.3342 146.251 28.3342 146.851ZM27.2062 146.623C27.2062 146.207 27.1142 145.851 26.9302 145.555C26.7462 145.251 26.4942 145.023 26.1742 144.871C25.8622 144.711 25.5142 144.631 25.1302 144.631C24.5782 144.631 24.1062 144.807 23.7142 145.159C23.3302 145.511 23.1102 145.999 23.0542 146.623H27.2062ZM32.9796 143.695C33.7796 143.695 34.4276 143.939 34.9236 144.427C35.4196 144.907 35.6676 145.603 35.6676 146.515V150.391H34.5876V146.671C34.5876 146.015 34.4236 145.515 34.0956 145.171C33.7676 144.819 33.3196 144.643 32.7516 144.643C32.1756 144.643 31.7156 144.823 31.3716 145.183C31.0356 145.543 30.8676 146.067 30.8676 146.755V150.391H29.7756V143.815H30.8676V144.751C31.0836 144.415 31.3756 144.155 31.7436 143.971C32.1196 143.787 32.5316 143.695 32.9796 143.695ZM37.0433 147.079C37.0433 146.407 37.1793 145.819 37.4513 145.315C37.7233 144.803 38.0953 144.407 38.5673 144.127C39.0473 143.847 39.5833 143.707 40.1753 143.707C40.6873 143.707 41.1633 143.827 41.6033 144.067C42.0433 144.299 42.3793 144.607 42.6113 144.991V141.511H43.7153V150.391H42.6113V149.155C42.3953 149.547 42.0753 149.871 41.6513 150.127C41.2273 150.375 40.7313 150.499 40.1633 150.499C39.5793 150.499 39.0473 150.355 38.5673 150.067C38.0953 149.779 37.7233 149.375 37.4513 148.855C37.1793 148.335 37.0433 147.743 37.0433 147.079ZM42.6113 147.091C42.6113 146.595 42.5113 146.163 42.3113 145.795C42.1113 145.427 41.8393 145.147 41.4953 144.955C41.1593 144.755 40.7873 144.655 40.3793 144.655C39.9713 144.655 39.5993 144.751 39.2633 144.943C38.9273 145.135 38.6593 145.415 38.4593 145.783C38.2593 146.151 38.1593 146.583 38.1593 147.079C38.1593 147.583 38.2593 148.023 38.4593 148.399C38.6593 148.767 38.9273 149.051 39.2633 149.251C39.5993 149.443 39.9713 149.539 40.3793 149.539C40.7873 149.539 41.1593 149.443 41.4953 149.251C41.8393 149.051 42.1113 148.767 42.3113 148.399C42.5113 148.023 42.6113 147.587 42.6113 147.091ZM47.8887 150.499C47.3847 150.499 46.9327 150.415 46.5327 150.247C46.1327 150.071 45.8167 149.831 45.5847 149.527C45.3527 149.215 45.2247 148.859 45.2007 148.459H46.3287C46.3607 148.787 46.5127 149.055 46.7847 149.263C47.0647 149.471 47.4287 149.575 47.8767 149.575C48.2927 149.575 48.6207 149.483 48.8607 149.299C49.1007 149.115 49.2207 148.883 49.2207 148.603C49.2207 148.315 49.0927 148.103 48.8367 147.967C48.5807 147.823 48.1847 147.683 47.6487 147.547C47.1607 147.419 46.7607 147.291 46.4487 147.163C46.1447 147.027 45.8807 146.831 45.6567 146.575C45.4407 146.311 45.3327 145.967 45.3327 145.543C45.3327 145.207 45.4327 144.899 45.6327 144.619C45.8327 144.339 46.1167 144.119 46.4847 143.959C46.8527 143.791 47.2727 143.707 47.7447 143.707C48.4727 143.707 49.0607 143.891 49.5087 144.259C49.9567 144.627 50.1967 145.131 50.2287 145.771H49.1367C49.1127 145.427 48.9727 145.151 48.7167 144.943C48.4687 144.735 48.1327 144.631 47.7087 144.631C47.3167 144.631 47.0047 144.715 46.7727 144.883C46.5407 145.051 46.4247 145.271 46.4247 145.543C46.4247 145.759 46.4927 145.939 46.6287 146.083C46.7727 146.219 46.9487 146.331 47.1567 146.419C47.3727 146.499 47.6687 146.591 48.0447 146.695C48.5167 146.823 48.9007 146.951 49.1967 147.079C49.4927 147.199 49.7447 147.383 49.9527 147.631C50.1687 147.879 50.2807 148.203 50.2887 148.603C50.2887 148.963 50.1887 149.287 49.9887 149.575C49.7887 149.863 49.5047 150.091 49.1367 150.259C48.7767 150.419 48.3607 150.499 47.8887 150.499ZM54.6215 147.079C54.6215 146.407 54.7575 145.819 55.0295 145.315C55.3015 144.803 55.6735 144.407 56.1455 144.127C56.6255 143.847 57.1575 143.707 57.7415 143.707C58.3175 143.707 58.8175 143.831 59.2415 144.079C59.6655 144.327 59.9815 144.639 60.1895 145.015V143.815H61.2935V150.391H60.1895V149.167C59.9735 149.551 59.6495 149.871 59.2175 150.127C58.7935 150.375 58.2975 150.499 57.7295 150.499C57.1455 150.499 56.6175 150.355 56.1455 150.067C55.6735 149.779 55.3015 149.375 55.0295 148.855C54.7575 148.335 54.6215 147.743 54.6215 147.079ZM60.1895 147.091C60.1895 146.595 60.0895 146.163 59.8895 145.795C59.6895 145.427 59.4175 145.147 59.0735 144.955C58.7375 144.755 58.3655 144.655 57.9575 144.655C57.5495 144.655 57.1775 144.751 56.8415 144.943C56.5055 145.135 56.2375 145.415 56.0375 145.783C55.8375 146.151 55.7375 146.583 55.7375 147.079C55.7375 147.583 55.8375 148.023 56.0375 148.399C56.2375 148.767 56.5055 149.051 56.8415 149.251C57.1775 149.443 57.5495 149.539 57.9575 149.539C58.3655 149.539 58.7375 149.443 59.0735 149.251C59.4175 149.051 59.6895 148.767 59.8895 148.399C60.0895 148.023 60.1895 147.587 60.1895 147.091ZM66.3428 143.695C67.1428 143.695 67.7908 143.939 68.2868 144.427C68.7828 144.907 69.0308 145.603 69.0308 146.515V150.391H67.9508V146.671C67.9508 146.015 67.7868 145.515 67.4588 145.171C67.1308 144.819 66.6828 144.643 66.1148 144.643C65.5388 144.643 65.0788 144.823 64.7348 145.183C64.3988 145.543 64.2308 146.067 64.2308 146.755V150.391H63.1388V143.815H64.2308V144.751C64.4468 144.415 64.7388 144.155 65.1068 143.971C65.4828 143.787 65.8948 143.695 66.3428 143.695ZM70.4066 147.079C70.4066 146.407 70.5426 145.819 70.8146 145.315C71.0866 144.803 71.4586 144.407 71.9306 144.127C72.4106 143.847 72.9466 143.707 73.5386 143.707C74.0506 143.707 74.5266 143.827 74.9666 144.067C75.4066 144.299 75.7426 144.607 75.9746 144.991V141.511H77.0786V150.391H75.9746V149.155C75.7586 149.547 75.4386 149.871 75.0146 150.127C74.5906 150.375 74.0946 150.499 73.5266 150.499C72.9426 150.499 72.4106 150.355 71.9306 150.067C71.4586 149.779 71.0866 149.375 70.8146 148.855C70.5426 148.335 70.4066 147.743 70.4066 147.079ZM75.9746 147.091C75.9746 146.595 75.8746 146.163 75.6746 145.795C75.4746 145.427 75.2026 145.147 74.8586 144.955C74.5226 144.755 74.1506 144.655 73.7426 144.655C73.3346 144.655 72.9626 144.751 72.6266 144.943C72.2906 145.135 72.0226 145.415 71.8226 145.783C71.6226 146.151 71.5226 146.583 71.5226 147.079C71.5226 147.583 71.6226 148.023 71.8226 148.399C72.0226 148.767 72.2906 149.051 72.6266 149.251C72.9626 149.443 73.3346 149.539 73.7426 149.539C74.1506 149.539 74.5226 149.443 74.8586 149.251C75.2026 149.051 75.4746 148.767 75.6746 148.399C75.8746 148.023 75.9746 147.587 75.9746 147.091ZM44.4645 157.027V157.915H40.8285V160.735H43.7805V161.623H40.8285V165.391H39.7365V157.027H44.4645ZM45.3754 162.079C45.3754 161.407 45.5114 160.819 45.7834 160.315C46.0554 159.803 46.4274 159.407 46.8994 159.127C47.3794 158.847 47.9114 158.707 48.4954 158.707C49.0714 158.707 49.5714 158.831 49.9954 159.079C50.4194 159.327 50.7354 159.639 50.9434 160.015V158.815H52.0474V165.391H50.9434V164.167C50.7274 164.551 50.4034 164.871 49.9714 165.127C49.5474 165.375 49.0514 165.499 48.4834 165.499C47.8994 165.499 47.3714 165.355 46.8994 165.067C46.4274 164.779 46.0554 164.375 45.7834 163.855C45.5114 163.335 45.3754 162.743 45.3754 162.079ZM50.9434 162.091C50.9434 161.595 50.8434 161.163 50.6434 160.795C50.4434 160.427 50.1714 160.147 49.8274 159.955C49.4914 159.755 49.1194 159.655 48.7114 159.655C48.3034 159.655 47.9314 159.751 47.5954 159.943C47.2594 160.135 46.9914 160.415 46.7914 160.783C46.5914 161.151 46.4914 161.583 46.4914 162.079C46.4914 162.583 46.5914 163.023 46.7914 163.399C46.9914 163.767 47.2594 164.051 47.5954 164.251C47.9314 164.443 48.3034 164.539 48.7114 164.539C49.1194 164.539 49.4914 164.443 49.8274 164.251C50.1714 164.051 50.4434 163.767 50.6434 163.399C50.8434 163.023 50.9434 162.587 50.9434 162.091ZM61.8008 158.695C62.3128 158.695 62.7688 158.803 63.1688 159.019C63.5688 159.227 63.8848 159.543 64.1168 159.967C64.3488 160.391 64.4648 160.907 64.4648 161.515V165.391H63.3848V161.671C63.3848 161.015 63.2208 160.515 62.8928 160.171C62.5728 159.819 62.1368 159.643 61.5848 159.643C61.0168 159.643 60.5648 159.827 60.2288 160.195C59.8928 160.555 59.7248 161.079 59.7248 161.767V165.391H58.6448V161.671C58.6448 161.015 58.4808 160.515 58.1528 160.171C57.8328 159.819 57.3968 159.643 56.8448 159.643C56.2768 159.643 55.8248 159.827 55.4888 160.195C55.1528 160.555 54.9848 161.079 54.9848 161.767V165.391H53.8928V158.815H54.9848V159.763C55.2008 159.419 55.4888 159.155 55.8488 158.971C56.2168 158.787 56.6208 158.695 57.0608 158.695C57.6128 158.695 58.1008 158.819 58.5248 159.067C58.9488 159.315 59.2648 159.679 59.4728 160.159C59.6568 159.695 59.9608 159.335 60.3848 159.079C60.8088 158.823 61.2808 158.695 61.8008 158.695ZM66.82 157.747C66.612 157.747 66.436 157.675 66.292 157.531C66.148 157.387 66.076 157.211 66.076 157.003C66.076 156.795 66.148 156.619 66.292 156.475C66.436 156.331 66.612 156.259 66.82 156.259C67.02 156.259 67.188 156.331 67.324 156.475C67.468 156.619 67.54 156.795 67.54 157.003C67.54 157.211 67.468 157.387 67.324 157.531C67.188 157.675 67.02 157.747 66.82 157.747ZM67.348 158.815V165.391H66.256V158.815H67.348ZM70.3012 156.511V165.391H69.2092V156.511H70.3012ZM77.8263 158.815L73.8663 168.487H72.7383L74.0343 165.319L71.3823 158.815H72.5943L74.6583 164.143L76.6983 158.815H77.8263Z" fill="#777F90"/>
<mask id="path-16-inside-5_8103_7265" fill="white">
<path d="M349 136.891L349 170.891L84 170.891L84 136.891L349 136.891Z"/>
</mask>
<path d="M349 136.891L349 170.891L84 170.891L84 136.891L349 136.891Z" fill="url(#paint4_linear_8103_7265)"/>
<path d="M348 136.891L348 170.891L350 170.891L350 136.891L348 136.891Z" fill="#1CC43B" mask="url(#path-16-inside-5_8103_7265)"/>
<path d="M49.3176 191.475C48.5416 191.475 47.8336 191.295 47.1936 190.935C46.5536 190.567 46.0456 190.059 45.6696 189.411C45.3016 188.755 45.1176 188.019 45.1176 187.203C45.1176 186.387 45.3016 185.655 45.6696 185.007C46.0456 184.351 46.5536 183.843 47.1936 183.483C47.8336 183.115 48.5416 182.931 49.3176 182.931C50.1016 182.931 50.8136 183.115 51.4536 183.483C52.0936 183.843 52.5976 184.347 52.9656 184.995C53.3336 185.643 53.5176 186.379 53.5176 187.203C53.5176 188.027 53.3336 188.763 52.9656 189.411C52.5976 190.059 52.0936 190.567 51.4536 190.935C50.8136 191.295 50.1016 191.475 49.3176 191.475ZM49.3176 190.527C49.9016 190.527 50.4256 190.391 50.8896 190.119C51.3616 189.847 51.7296 189.459 51.9936 188.955C52.2656 188.451 52.4016 187.867 52.4016 187.203C52.4016 186.531 52.2656 185.947 51.9936 185.451C51.7296 184.947 51.3656 184.559 50.9016 184.287C50.4376 184.015 49.9096 183.879 49.3176 183.879C48.7256 183.879 48.1976 184.015 47.7336 184.287C47.2696 184.559 46.9016 184.947 46.6296 185.451C46.3656 185.947 46.2336 186.531 46.2336 187.203C46.2336 187.867 46.3656 188.451 46.6296 188.955C46.9016 189.459 47.2696 189.847 47.7336 190.119C48.2056 190.391 48.7336 190.527 49.3176 190.527ZM56.2912 185.715V189.591C56.2912 189.911 56.3592 190.139 56.4952 190.275C56.6312 190.403 56.8672 190.467 57.2032 190.467H58.0072V191.391H57.0232C56.4152 191.391 55.9592 191.251 55.6552 190.971C55.3512 190.691 55.1992 190.231 55.1992 189.591V185.715H54.3472V184.815H55.1992V183.159H56.2912V184.815H58.0072V185.715H56.2912ZM62.5943 184.695C63.0903 184.695 63.5383 184.803 63.9383 185.019C64.3383 185.227 64.6503 185.543 64.8743 185.967C65.1063 186.391 65.2223 186.907 65.2223 187.515V191.391H64.1423V187.671C64.1423 187.015 63.9783 186.515 63.6503 186.171C63.3223 185.819 62.8743 185.643 62.3063 185.643C61.7303 185.643 61.2703 185.823 60.9263 186.183C60.5903 186.543 60.4223 187.067 60.4223 187.755V191.391H59.3303V182.511H60.4223V185.751C60.6383 185.415 60.9343 185.155 61.3103 184.971C61.6943 184.787 62.1223 184.695 62.5943 184.695ZM73.006 187.851C73.006 188.059 72.994 188.279 72.97 188.511H67.714C67.754 189.159 67.974 189.667 68.374 190.035C68.782 190.395 69.274 190.575 69.85 190.575C70.322 190.575 70.714 190.467 71.026 190.251C71.346 190.027 71.57 189.731 71.698 189.363H72.874C72.698 189.995 72.346 190.511 71.818 190.911C71.29 191.303 70.634 191.499 69.85 191.499C69.226 191.499 68.666 191.359 68.17 191.079C67.682 190.799 67.298 190.403 67.018 189.891C66.738 189.371 66.598 188.771 66.598 188.091C66.598 187.411 66.734 186.815 67.006 186.303C67.278 185.791 67.658 185.399 68.146 185.127C68.642 184.847 69.21 184.707 69.85 184.707C70.474 184.707 71.026 184.843 71.506 185.115C71.986 185.387 72.354 185.763 72.61 186.243C72.874 186.715 73.006 187.251 73.006 187.851ZM71.878 187.623C71.878 187.207 71.786 186.851 71.602 186.555C71.418 186.251 71.166 186.023 70.846 185.871C70.534 185.711 70.186 185.631 69.802 185.631C69.25 185.631 68.778 185.807 68.386 186.159C68.002 186.511 67.782 186.999 67.726 187.623H71.878ZM75.5394 185.883C75.7314 185.507 76.0034 185.215 76.3554 185.007C76.7154 184.799 77.1514 184.695 77.6634 184.695V185.823H77.3754C76.1514 185.823 75.5394 186.487 75.5394 187.815V191.391H74.4474V184.815H75.5394V185.883Z" fill="#777F90"/>
<mask id="path-19-inside-6_8103_7265" fill="white">
<path d="M241 170.891L241 204.891L84 204.891L84 170.891L241 170.891Z"/>
</mask>
<path d="M241 170.891L241 204.891L84 204.891L84 170.891L241 170.891Z" fill="url(#paint5_linear_8103_7265)"/>
<path d="M240 170.891L240 204.891L242 204.891L242 170.891L240 170.891Z" fill="#1CC43B" mask="url(#path-19-inside-6_8103_7265)"/>
<defs>
<linearGradient id="paint0_linear_8103_7265" x1="343" y1="17.8914" x2="84" y2="17.8913" gradientUnits="userSpaceOnUse">
<stop stop-color="#D7F5D9"/>
<stop offset="1" stop-color="#D7F5D9" stop-opacity="0.1"/>
</linearGradient>
<linearGradient id="paint1_linear_8103_7265" x1="219" y1="51.8914" x2="84" y2="51.8914" gradientUnits="userSpaceOnUse">
<stop stop-color="#D7F5D9"/>
<stop offset="1" stop-color="#D7F5D9" stop-opacity="0.1"/>
</linearGradient>
<linearGradient id="paint2_linear_8103_7265" x1="317" y1="85.8914" x2="84" y2="85.8913" gradientUnits="userSpaceOnUse">
<stop stop-color="#D7F5D9"/>
<stop offset="1" stop-color="#D7F5D9" stop-opacity="0.1"/>
</linearGradient>
<linearGradient id="paint3_linear_8103_7265" x1="275" y1="119.891" x2="84" y2="119.891" gradientUnits="userSpaceOnUse">
<stop stop-color="#D7F5D9"/>
<stop offset="1" stop-color="#D7F5D9" stop-opacity="0.1"/>
</linearGradient>
<linearGradient id="paint4_linear_8103_7265" x1="349" y1="153.891" x2="84" y2="153.891" gradientUnits="userSpaceOnUse">
<stop stop-color="#D7F5D9"/>
<stop offset="1" stop-color="#D7F5D9" stop-opacity="0.1"/>
</linearGradient>
<linearGradient id="paint5_linear_8103_7265" x1="241" y1="187.891" x2="84" y2="187.891" gradientUnits="userSpaceOnUse">
<stop stop-color="#D7F5D9"/>
<stop offset="1" stop-color="#D7F5D9" stop-opacity="0.1"/>
</linearGradient>
</defs>
</svg>
