<svg width="438" height="215" viewBox="0 0 438 215" fill="none" xmlns="http://www.w3.org/2000/svg">
<mask id="path-1-inside-1_8012_4153" fill="white">
<path d="M0 67H36.5V194H0V67Z"/>
</mask>
<path d="M0 67H36.5V194H0V67Z" fill="url(#paint0_linear_8012_4153)"/>
<path d="M0 68H36.5V66H0V68Z" fill="#FFB11B" mask="url(#path-1-inside-1_8012_4153)"/>
<path d="M12.3118 199.636V205.816C12.3118 206.504 12.0998 207.056 11.6758 207.472C11.2518 207.88 10.6918 208.084 9.99578 208.084C9.29178 208.084 8.72778 207.876 8.30378 207.46C7.87978 207.036 7.66778 206.46 7.66778 205.732H8.75978C8.76778 206.14 8.87178 206.472 9.07178 206.728C9.27978 206.984 9.58778 207.112 9.99578 207.112C10.4038 207.112 10.7078 206.992 10.9078 206.752C11.1078 206.504 11.2078 206.192 11.2078 205.816V199.636H12.3118ZM14.0551 204.688C14.0551 204.016 14.1911 203.428 14.4631 202.924C14.7351 202.412 15.1071 202.016 15.5791 201.736C16.0591 201.456 16.5911 201.316 17.1751 201.316C17.7511 201.316 18.2511 201.44 18.6751 201.688C19.0991 201.936 19.4151 202.248 19.6231 202.624V201.424H20.7271V208H19.6231V206.776C19.4071 207.16 19.0831 207.48 18.6511 207.736C18.2271 207.984 17.7311 208.108 17.1631 208.108C16.5791 208.108 16.0511 207.964 15.5791 207.676C15.1071 207.388 14.7351 206.984 14.4631 206.464C14.1911 205.944 14.0551 205.352 14.0551 204.688ZM19.6231 204.7C19.6231 204.204 19.5231 203.772 19.3231 203.404C19.1231 203.036 18.8511 202.756 18.5071 202.564C18.1711 202.364 17.7991 202.264 17.3911 202.264C16.9831 202.264 16.6111 202.36 16.2751 202.552C15.9391 202.744 15.6711 203.024 15.4711 203.392C15.2711 203.76 15.1711 204.192 15.1711 204.688C15.1711 205.192 15.2711 205.632 15.4711 206.008C15.6711 206.376 15.9391 206.66 16.2751 206.86C16.6111 207.052 16.9831 207.148 17.3911 207.148C17.7991 207.148 18.1711 207.052 18.5071 206.86C18.8511 206.66 19.1231 206.376 19.3231 206.008C19.5231 205.632 19.6231 205.196 19.6231 204.7ZM25.7764 201.304C26.5764 201.304 27.2244 201.548 27.7204 202.036C28.2164 202.516 28.4644 203.212 28.4644 204.124V208H27.3844V204.28C27.3844 203.624 27.2204 203.124 26.8924 202.78C26.5644 202.428 26.1164 202.252 25.5484 202.252C24.9724 202.252 24.5124 202.432 24.1684 202.792C23.8324 203.152 23.6644 203.676 23.6644 204.364V208H22.5724V201.424H23.6644V202.36C23.8804 202.024 24.1724 201.764 24.5404 201.58C24.9164 201.396 25.3284 201.304 25.7764 201.304Z" fill="#777F90"/>
<mask id="path-4-inside-2_8012_4153" fill="white">
<path d="M36.5 108H73V194H36.5V108Z"/>
</mask>
<path d="M36.5 108H73V194H36.5V108Z" fill="url(#paint1_linear_8012_4153)"/>
<path d="M36.5 109H73V107H36.5V109Z" fill="#FFB11B" mask="url(#path-4-inside-2_8012_4153)"/>
<path d="M49.6032 199.636V200.524H45.9672V203.344H48.9192V204.232H45.9672V208H44.8752V199.636H49.6032ZM56.922 204.46C56.922 204.668 56.91 204.888 56.886 205.12H51.63C51.67 205.768 51.89 206.276 52.29 206.644C52.698 207.004 53.19 207.184 53.766 207.184C54.238 207.184 54.63 207.076 54.942 206.86C55.262 206.636 55.486 206.34 55.614 205.972H56.79C56.614 206.604 56.262 207.12 55.734 207.52C55.206 207.912 54.55 208.108 53.766 208.108C53.142 208.108 52.582 207.968 52.086 207.688C51.598 207.408 51.214 207.012 50.934 206.5C50.654 205.98 50.514 205.38 50.514 204.7C50.514 204.02 50.65 203.424 50.922 202.912C51.194 202.4 51.574 202.008 52.062 201.736C52.558 201.456 53.126 201.316 53.766 201.316C54.39 201.316 54.942 201.452 55.422 201.724C55.902 201.996 56.27 202.372 56.526 202.852C56.79 203.324 56.922 203.86 56.922 204.46ZM55.794 204.232C55.794 203.816 55.702 203.46 55.518 203.164C55.334 202.86 55.082 202.632 54.762 202.48C54.45 202.32 54.102 202.24 53.718 202.24C53.166 202.24 52.694 202.416 52.302 202.768C51.918 203.12 51.698 203.608 51.642 204.232H55.794ZM59.4555 202.648C59.6795 202.256 60.0075 201.936 60.4395 201.688C60.8715 201.44 61.3635 201.316 61.9155 201.316C62.5075 201.316 63.0395 201.456 63.5115 201.736C63.9835 202.016 64.3555 202.412 64.6275 202.924C64.8995 203.428 65.0355 204.016 65.0355 204.688C65.0355 205.352 64.8995 205.944 64.6275 206.464C64.3555 206.984 63.9795 207.388 63.4995 207.676C63.0275 207.964 62.4995 208.108 61.9155 208.108C61.3475 208.108 60.8475 207.984 60.4155 207.736C59.9915 207.488 59.6715 207.172 59.4555 206.788V208H58.3635V199.12H59.4555V202.648ZM63.9195 204.688C63.9195 204.192 63.8195 203.76 63.6195 203.392C63.4195 203.024 63.1475 202.744 62.8035 202.552C62.4675 202.36 62.0955 202.264 61.6875 202.264C61.2875 202.264 60.9155 202.364 60.5715 202.564C60.2355 202.756 59.9635 203.04 59.7555 203.416C59.5555 203.784 59.4555 204.212 59.4555 204.7C59.4555 205.196 59.5555 205.632 59.7555 206.008C59.9635 206.376 60.2355 206.66 60.5715 206.86C60.9155 207.052 61.2875 207.148 61.6875 207.148C62.0955 207.148 62.4675 207.052 62.8035 206.86C63.1475 206.66 63.4195 206.376 63.6195 206.008C63.8195 205.632 63.9195 205.192 63.9195 204.688Z" fill="#777F90"/>
<path d="M85.0898 46.104C85.8578 45.464 86.4698 44.932 86.9258 44.508C87.3818 44.076 87.7618 43.628 88.0658 43.164C88.3698 42.7 88.5218 42.244 88.5218 41.796C88.5218 41.388 88.4258 41.068 88.2338 40.836C88.0418 40.604 87.7458 40.488 87.3458 40.488C86.9458 40.488 86.6378 40.624 86.4218 40.896C86.2058 41.16 86.0938 41.524 86.0858 41.988H84.4538C84.4858 41.028 84.7698 40.3 85.3058 39.804C85.8498 39.308 86.5378 39.06 87.3698 39.06C88.2818 39.06 88.9818 39.304 89.4698 39.792C89.9578 40.272 90.2018 40.908 90.2018 41.7C90.2018 42.324 90.0338 42.92 89.6978 43.488C89.3618 44.056 88.9778 44.552 88.5458 44.976C88.1138 45.392 87.5498 45.896 86.8538 46.488H90.3938V47.88H84.4658V46.632L85.0898 46.104ZM91.4524 43.512C91.4524 42.128 91.7004 41.044 92.1964 40.26C92.7004 39.476 93.5324 39.084 94.6924 39.084C95.8524 39.084 96.6804 39.476 97.1764 40.26C97.6804 41.044 97.9324 42.128 97.9324 43.512C97.9324 44.904 97.6804 45.996 97.1764 46.788C96.6804 47.58 95.8524 47.976 94.6924 47.976C93.5324 47.976 92.7004 47.58 92.1964 46.788C91.7004 45.996 91.4524 44.904 91.4524 43.512ZM96.2764 43.512C96.2764 42.92 96.2364 42.424 96.1564 42.024C96.0844 41.616 95.9324 41.284 95.7004 41.028C95.4764 40.772 95.1404 40.644 94.6924 40.644C94.2444 40.644 93.9044 40.772 93.6724 41.028C93.4484 41.284 93.2964 41.616 93.2164 42.024C93.1444 42.424 93.1084 42.92 93.1084 43.512C93.1084 44.12 93.1444 44.632 93.2164 45.048C93.2884 45.456 93.4404 45.788 93.6724 46.044C93.9044 46.292 94.2444 46.416 94.6924 46.416C95.1404 46.416 95.4804 46.292 95.7124 46.044C95.9444 45.788 96.0964 45.456 96.1684 45.048C96.2404 44.632 96.2764 44.12 96.2764 43.512Z" fill="#292D32"/>
<mask id="path-8-inside-3_8012_4153" fill="white">
<path d="M73 57H109.5V189H73V57Z"/>
</mask>
<path d="M73 57H109.5V189H73V57Z" fill="url(#paint2_linear_8012_4153)"/>
<path d="M73 58H109.5V56H73V58Z" fill="#FFB11B" mask="url(#path-8-inside-3_8012_4153)"/>
<path d="M89.3213 200.624V209H87.6413V203.552L85.3973 209H84.1253L81.8693 203.552V209H80.1893V200.624H82.0973L84.7613 206.852L87.4253 200.624H89.3213ZM90.5503 205.652C90.5503 204.98 90.6823 204.384 90.9463 203.864C91.2183 203.344 91.5823 202.944 92.0383 202.664C92.5023 202.384 93.0183 202.244 93.5863 202.244C94.0823 202.244 94.5143 202.344 94.8823 202.544C95.2583 202.744 95.5583 202.996 95.7823 203.3V202.352H97.4743V209H95.7823V208.028C95.5663 208.34 95.2663 208.6 94.8823 208.808C94.5063 209.008 94.0703 209.108 93.5743 209.108C93.0143 209.108 92.5023 208.964 92.0383 208.676C91.5823 208.388 91.2183 207.984 90.9463 207.464C90.6823 206.936 90.5503 206.332 90.5503 205.652ZM95.7823 205.676C95.7823 205.268 95.7023 204.92 95.5423 204.632C95.3823 204.336 95.1663 204.112 94.8943 203.96C94.6223 203.8 94.3303 203.72 94.0183 203.72C93.7063 203.72 93.4183 203.796 93.1543 203.948C92.8903 204.1 92.6743 204.324 92.5063 204.62C92.3463 204.908 92.2663 205.252 92.2663 205.652C92.2663 206.052 92.3463 206.404 92.5063 206.708C92.6743 207.004 92.8903 207.232 93.1543 207.392C93.4263 207.552 93.7143 207.632 94.0183 207.632C94.3303 207.632 94.6223 207.556 94.8943 207.404C95.1663 207.244 95.3823 207.02 95.5423 206.732C95.7023 206.436 95.7823 206.084 95.7823 205.676ZM100.795 203.384C101.011 203.032 101.291 202.756 101.635 202.556C101.987 202.356 102.387 202.256 102.835 202.256V204.02H102.391C101.863 204.02 101.463 204.144 101.191 204.392C100.927 204.64 100.795 205.072 100.795 205.688V209H99.1151V202.352H100.795V203.384Z" fill="#292D32"/>
<g clip-path="url(#clip0_8012_4153)">
<path d="M99.8276 82.7162L100.314 82.5992L99.8276 82.7162C99.8351 82.7473 99.8335 82.78 99.823 82.8102C99.8124 82.8404 99.7934 82.8669 99.7682 82.8866L100.076 83.2807L99.7682 82.8866C99.7429 82.9063 99.7126 82.9183 99.6807 82.9212L96.7021 83.1926L95.9935 83.2571L96.2943 83.9019L98.3376 88.2812L98.3375 88.2813L98.3428 88.292C98.4561 88.5203 98.5093 88.7738 98.4974 89.0283C98.4855 89.2829 98.409 89.5303 98.275 89.7471C98.141 89.9639 97.954 90.143 97.7316 90.2675C97.5093 90.3919 97.2589 90.4576 97.0042 90.4585C96.727 90.4589 96.4551 90.3826 96.2185 90.2382C95.9842 90.0953 95.7935 89.891 95.667 89.6475L93.5865 85.1871L93.3054 84.5845L92.8045 85.0219L90.4432 87.0839L90.4431 87.084C90.419 87.1051 90.3893 87.1187 90.3576 87.1234C90.326 87.128 90.2936 87.1235 90.2645 87.1102C90.2354 87.097 90.2106 87.0756 90.1933 87.0487C90.176 87.0218 90.1667 86.9905 90.1667 86.9585V76.9452V76.9451C90.1667 76.6562 90.2502 76.3734 90.407 76.1307C90.5639 75.8881 90.7875 75.6959 91.051 75.5773C91.3145 75.4587 91.6066 75.4187 91.8922 75.4621C92.175 75.5051 92.4394 75.628 92.6545 75.8162L99.7804 82.6344L99.7807 82.6347C99.8039 82.6568 99.8202 82.6851 99.8276 82.7162Z" fill="white" stroke="#777F90"/>
</g>
<rect x="85.0208" y="52" width="10" height="10" rx="5" fill="#FFB11B"/>
<mask id="path-13-inside-4_8012_4153" fill="white">
<path d="M109.5 86H146V189H109.5V86Z"/>
</mask>
<path d="M109.5 86H146V189H109.5V86Z" fill="url(#paint3_linear_8012_4153)"/>
<path d="M109.5 87H146V85H109.5V87Z" fill="#FFB11B" mask="url(#path-13-inside-4_8012_4153)"/>
<path d="M123.282 206.14H119.634L118.962 208H117.81L120.834 199.684H122.094L125.106 208H123.954L123.282 206.14ZM122.97 205.252L121.458 201.028L119.946 205.252H122.97ZM127.516 202.636C127.732 202.26 128.052 201.948 128.476 201.7C128.908 201.444 129.408 201.316 129.976 201.316C130.56 201.316 131.088 201.456 131.56 201.736C132.04 202.016 132.416 202.412 132.688 202.924C132.96 203.428 133.096 204.016 133.096 204.688C133.096 205.352 132.96 205.944 132.688 206.464C132.416 206.984 132.04 207.388 131.56 207.676C131.088 207.964 130.56 208.108 129.976 208.108C129.416 208.108 128.92 207.984 128.488 207.736C128.064 207.48 127.74 207.164 127.516 206.788V211.12H126.424V201.424H127.516V202.636ZM131.98 204.688C131.98 204.192 131.88 203.76 131.68 203.392C131.48 203.024 131.208 202.744 130.864 202.552C130.528 202.36 130.156 202.264 129.748 202.264C129.348 202.264 128.976 202.364 128.632 202.564C128.296 202.756 128.024 203.04 127.816 203.416C127.616 203.784 127.516 204.212 127.516 204.7C127.516 205.196 127.616 205.632 127.816 206.008C128.024 206.376 128.296 206.66 128.632 206.86C128.976 207.052 129.348 207.148 129.748 207.148C130.156 207.148 130.528 207.052 130.864 206.86C131.208 206.66 131.48 206.376 131.68 206.008C131.88 205.632 131.98 205.192 131.98 204.688ZM135.625 202.492C135.817 202.116 136.089 201.824 136.441 201.616C136.801 201.408 137.237 201.304 137.749 201.304V202.432H137.461C136.237 202.432 135.625 203.096 135.625 204.424V208H134.533V201.424H135.625V202.492Z" fill="#777F90"/>
<mask id="path-16-inside-5_8012_4153" fill="white">
<path d="M146 110H182.5V189H146V110Z"/>
</mask>
<path d="M146 110H182.5V189H146V110Z" fill="url(#paint4_linear_8012_4153)"/>
<path d="M146 111H182.5V109H146V111Z" fill="#FFB11B" mask="url(#path-16-inside-5_8012_4153)"/>
<path d="M161.054 199.696V208H159.962V201.808L157.202 208H156.434L153.662 201.796V208H152.57V199.696H153.746L156.818 206.56L159.89 199.696H161.054ZM162.498 204.688C162.498 204.016 162.634 203.428 162.906 202.924C163.178 202.412 163.55 202.016 164.022 201.736C164.502 201.456 165.034 201.316 165.618 201.316C166.194 201.316 166.694 201.44 167.118 201.688C167.542 201.936 167.858 202.248 168.066 202.624V201.424H169.17V208H168.066V206.776C167.85 207.16 167.526 207.48 167.094 207.736C166.67 207.984 166.174 208.108 165.606 208.108C165.022 208.108 164.494 207.964 164.022 207.676C163.55 207.388 163.178 206.984 162.906 206.464C162.634 205.944 162.498 205.352 162.498 204.688ZM168.066 204.7C168.066 204.204 167.966 203.772 167.766 203.404C167.566 203.036 167.294 202.756 166.95 202.564C166.614 202.364 166.242 202.264 165.834 202.264C165.426 202.264 165.054 202.36 164.718 202.552C164.382 202.744 164.114 203.024 163.914 203.392C163.714 203.76 163.614 204.192 163.614 204.688C163.614 205.192 163.714 205.632 163.914 206.008C164.114 206.376 164.382 206.66 164.718 206.86C165.054 207.052 165.426 207.148 165.834 207.148C166.242 207.148 166.614 207.052 166.95 206.86C167.294 206.66 167.566 206.376 167.766 206.008C167.966 205.632 168.066 205.196 168.066 204.7ZM176.68 201.424L172.72 211.096H171.592L172.888 207.928L170.236 201.424H171.448L173.512 206.752L175.552 201.424H176.68Z" fill="#777F90"/>
<mask id="path-19-inside-6_8012_4153" fill="white">
<path d="M182.5 0H219V189H182.5V0Z"/>
</mask>
<path d="M182.5 0H219V189H182.5V0Z" fill="url(#paint5_linear_8012_4153)"/>
<path d="M182.5 1H219V-1H182.5V1Z" fill="#FFB11B" mask="url(#path-19-inside-6_8012_4153)"/>
<path d="M195.029 199.636V205.816C195.029 206.504 194.817 207.056 194.393 207.472C193.969 207.88 193.409 208.084 192.713 208.084C192.009 208.084 191.445 207.876 191.021 207.46C190.597 207.036 190.385 206.46 190.385 205.732H191.477C191.485 206.14 191.589 206.472 191.789 206.728C191.997 206.984 192.305 207.112 192.713 207.112C193.121 207.112 193.425 206.992 193.625 206.752C193.825 206.504 193.925 206.192 193.925 205.816V199.636H195.029ZM203.012 201.424V208H201.92V207.028C201.712 207.364 201.42 207.628 201.044 207.82C200.676 208.004 200.268 208.096 199.82 208.096C199.308 208.096 198.848 207.992 198.44 207.784C198.032 207.568 197.708 207.248 197.468 206.824C197.236 206.4 197.12 205.884 197.12 205.276V201.424H198.2V205.132C198.2 205.78 198.364 206.28 198.692 206.632C199.02 206.976 199.468 207.148 200.036 207.148C200.62 207.148 201.08 206.968 201.416 206.608C201.752 206.248 201.92 205.724 201.92 205.036V201.424H203.012ZM208.06 201.304C208.86 201.304 209.508 201.548 210.004 202.036C210.5 202.516 210.748 203.212 210.748 204.124V208H209.668V204.28C209.668 203.624 209.504 203.124 209.176 202.78C208.848 202.428 208.4 202.252 207.832 202.252C207.256 202.252 206.796 202.432 206.452 202.792C206.116 203.152 205.948 203.676 205.948 204.364V208H204.856V201.424H205.948V202.36C206.164 202.024 206.456 201.764 206.824 201.58C207.2 201.396 207.612 201.304 208.06 201.304Z" fill="#777F90"/>
<mask id="path-22-inside-7_8012_4153" fill="white">
<path d="M219 81H255.5V189H219V81Z"/>
</mask>
<path d="M219 81H255.5V189H219V81Z" fill="url(#paint6_linear_8012_4153)"/>
<path d="M219 82H255.5V80H219V82Z" fill="#FFB11B" mask="url(#path-22-inside-7_8012_4153)"/>
<path d="M233.89 199.636V205.816C233.89 206.504 233.678 207.056 233.254 207.472C232.83 207.88 232.27 208.084 231.574 208.084C230.87 208.084 230.306 207.876 229.882 207.46C229.458 207.036 229.246 206.46 229.246 205.732H230.338C230.346 206.14 230.45 206.472 230.65 206.728C230.858 206.984 231.166 207.112 231.574 207.112C231.982 207.112 232.286 206.992 232.486 206.752C232.686 206.504 232.786 206.192 232.786 205.816V199.636H233.89ZM241.873 201.424V208H240.781V207.028C240.573 207.364 240.281 207.628 239.905 207.82C239.537 208.004 239.129 208.096 238.681 208.096C238.169 208.096 237.709 207.992 237.301 207.784C236.893 207.568 236.569 207.248 236.329 206.824C236.097 206.4 235.981 205.884 235.981 205.276V201.424H237.061V205.132C237.061 205.78 237.225 206.28 237.553 206.632C237.881 206.976 238.329 207.148 238.897 207.148C239.481 207.148 239.941 206.968 240.277 206.608C240.613 206.248 240.781 205.724 240.781 205.036V201.424H241.873ZM244.809 199.12V208H243.717V199.12H244.809Z" fill="#777F90"/>
<mask id="path-25-inside-8_8012_4153" fill="white">
<path d="M255.5 56H292V189H255.5V56Z"/>
</mask>
<path d="M255.5 56H292V189H255.5V56Z" fill="url(#paint7_linear_8012_4153)"/>
<path d="M255.5 57H292V55H255.5V57Z" fill="#FFB11B" mask="url(#path-25-inside-8_8012_4153)"/>
<path d="M267.682 206.14H264.034L263.362 208H262.21L265.234 199.684H266.494L269.506 208H268.354L267.682 206.14ZM267.37 205.252L265.858 201.028L264.346 205.252H267.37ZM276.656 201.424V208H275.564V207.028C275.356 207.364 275.064 207.628 274.688 207.82C274.32 208.004 273.912 208.096 273.464 208.096C272.952 208.096 272.492 207.992 272.084 207.784C271.676 207.568 271.352 207.248 271.112 206.824C270.88 206.4 270.764 205.884 270.764 205.276V201.424H271.844V205.132C271.844 205.78 272.008 206.28 272.336 206.632C272.664 206.976 273.112 207.148 273.68 207.148C274.264 207.148 274.724 206.968 275.06 206.608C275.396 206.248 275.564 205.724 275.564 205.036V201.424H276.656ZM281.212 201.316C281.78 201.316 282.276 201.44 282.7 201.688C283.132 201.936 283.452 202.248 283.66 202.624V201.424H284.764V208.144C284.764 208.744 284.636 209.276 284.38 209.74C284.124 210.212 283.756 210.58 283.276 210.844C282.804 211.108 282.252 211.24 281.62 211.24C280.756 211.24 280.036 211.036 279.46 210.628C278.884 210.22 278.544 209.664 278.44 208.96H279.52C279.64 209.36 279.888 209.68 280.264 209.92C280.64 210.168 281.092 210.292 281.62 210.292C282.22 210.292 282.708 210.104 283.084 209.728C283.468 209.352 283.66 208.824 283.66 208.144V206.764C283.444 207.148 283.124 207.468 282.7 207.724C282.276 207.98 281.78 208.108 281.212 208.108C280.628 208.108 280.096 207.964 279.616 207.676C279.144 207.388 278.772 206.984 278.5 206.464C278.228 205.944 278.092 205.352 278.092 204.688C278.092 204.016 278.228 203.428 278.5 202.924C278.772 202.412 279.144 202.016 279.616 201.736C280.096 201.456 280.628 201.316 281.212 201.316ZM283.66 204.7C283.66 204.204 283.56 203.772 283.36 203.404C283.16 203.036 282.888 202.756 282.544 202.564C282.208 202.364 281.836 202.264 281.428 202.264C281.02 202.264 280.648 202.36 280.312 202.552C279.976 202.744 279.708 203.024 279.508 203.392C279.308 203.76 279.208 204.192 279.208 204.688C279.208 205.192 279.308 205.632 279.508 206.008C279.708 206.376 279.976 206.66 280.312 206.86C280.648 207.052 281.02 207.148 281.428 207.148C281.836 207.148 282.208 207.052 282.544 206.86C282.888 206.66 283.16 206.376 283.36 206.008C283.56 205.632 283.66 205.196 283.66 204.7Z" fill="#777F90"/>
<mask id="path-28-inside-9_8012_4153" fill="white">
<path d="M292 77H328.5V189H292V77Z"/>
</mask>
<path d="M292 77H328.5V189H292V77Z" fill="url(#paint8_linear_8012_4153)"/>
<path d="M292 78H328.5V76H292V78Z" fill="#FFB11B" mask="url(#path-28-inside-9_8012_4153)"/>
<path d="M302.529 208.084C301.977 208.084 301.481 207.988 301.041 207.796C300.609 207.596 300.269 207.324 300.021 206.98C299.773 206.628 299.645 206.224 299.637 205.768H300.801C300.841 206.16 301.001 206.492 301.281 206.764C301.569 207.028 301.985 207.16 302.529 207.16C303.049 207.16 303.457 207.032 303.753 206.776C304.057 206.512 304.209 206.176 304.209 205.768C304.209 205.448 304.121 205.188 303.945 204.988C303.769 204.788 303.549 204.636 303.285 204.532C303.021 204.428 302.665 204.316 302.217 204.196C301.665 204.052 301.221 203.908 300.885 203.764C300.557 203.62 300.273 203.396 300.033 203.092C299.801 202.78 299.685 202.364 299.685 201.844C299.685 201.388 299.801 200.984 300.033 200.632C300.265 200.28 300.589 200.008 301.005 199.816C301.429 199.624 301.913 199.528 302.457 199.528C303.241 199.528 303.881 199.724 304.377 200.116C304.881 200.508 305.165 201.028 305.229 201.676H304.029C303.989 201.356 303.821 201.076 303.525 200.836C303.229 200.588 302.837 200.464 302.349 200.464C301.893 200.464 301.521 200.584 301.233 200.824C300.945 201.056 300.801 201.384 300.801 201.808C300.801 202.112 300.885 202.36 301.053 202.552C301.229 202.744 301.441 202.892 301.689 202.996C301.945 203.092 302.301 203.204 302.757 203.332C303.309 203.484 303.753 203.636 304.089 203.788C304.425 203.932 304.713 204.16 304.953 204.472C305.193 204.776 305.313 205.192 305.313 205.72C305.313 206.128 305.205 206.512 304.989 206.872C304.773 207.232 304.453 207.524 304.029 207.748C303.605 207.972 303.105 208.084 302.529 208.084ZM312.92 204.46C312.92 204.668 312.908 204.888 312.884 205.12H307.628C307.668 205.768 307.888 206.276 308.288 206.644C308.696 207.004 309.188 207.184 309.764 207.184C310.236 207.184 310.628 207.076 310.94 206.86C311.26 206.636 311.484 206.34 311.612 205.972H312.788C312.612 206.604 312.26 207.12 311.732 207.52C311.204 207.912 310.548 208.108 309.764 208.108C309.14 208.108 308.58 207.968 308.084 207.688C307.596 207.408 307.212 207.012 306.932 206.5C306.652 205.98 306.512 205.38 306.512 204.7C306.512 204.02 306.648 203.424 306.92 202.912C307.192 202.4 307.572 202.008 308.06 201.736C308.556 201.456 309.124 201.316 309.764 201.316C310.388 201.316 310.94 201.452 311.42 201.724C311.9 201.996 312.268 202.372 312.524 202.852C312.788 203.324 312.92 203.86 312.92 204.46ZM311.792 204.232C311.792 203.816 311.7 203.46 311.516 203.164C311.332 202.86 311.08 202.632 310.76 202.48C310.448 202.32 310.1 202.24 309.716 202.24C309.164 202.24 308.692 202.416 308.3 202.768C307.916 203.12 307.696 203.608 307.64 204.232H311.792ZM315.454 202.636C315.67 202.26 315.99 201.948 316.414 201.7C316.846 201.444 317.346 201.316 317.914 201.316C318.498 201.316 319.026 201.456 319.497 201.736C319.977 202.016 320.354 202.412 320.626 202.924C320.898 203.428 321.034 204.016 321.034 204.688C321.034 205.352 320.898 205.944 320.626 206.464C320.354 206.984 319.977 207.388 319.497 207.676C319.026 207.964 318.498 208.108 317.914 208.108C317.354 208.108 316.858 207.984 316.426 207.736C316.002 207.48 315.678 207.164 315.454 206.788V211.12H314.362V201.424H315.454V202.636ZM319.918 204.688C319.918 204.192 319.818 203.76 319.618 203.392C319.418 203.024 319.146 202.744 318.802 202.552C318.466 202.36 318.094 202.264 317.686 202.264C317.286 202.264 316.914 202.364 316.57 202.564C316.234 202.756 315.962 203.04 315.754 203.416C315.554 203.784 315.454 204.212 315.454 204.7C315.454 205.196 315.554 205.632 315.754 206.008C315.962 206.376 316.234 206.66 316.57 206.86C316.914 207.052 317.286 207.148 317.686 207.148C318.094 207.148 318.466 207.052 318.802 206.86C319.146 206.66 319.418 206.376 319.618 206.008C319.818 205.632 319.918 205.192 319.918 204.688Z" fill="#777F90"/>
<mask id="path-31-inside-10_8012_4153" fill="white">
<path d="M328.5 55H365V189H328.5V55Z"/>
</mask>
<path d="M328.5 55H365V189H328.5V55Z" fill="url(#paint9_linear_8012_4153)"/>
<path d="M328.5 56H365V54H328.5V56Z" fill="#FFB11B" mask="url(#path-31-inside-10_8012_4153)"/>
<path d="M340.919 208.084C340.143 208.084 339.435 207.904 338.795 207.544C338.155 207.176 337.647 206.668 337.271 206.02C336.903 205.364 336.719 204.628 336.719 203.812C336.719 202.996 336.903 202.264 337.271 201.616C337.647 200.96 338.155 200.452 338.795 200.092C339.435 199.724 340.143 199.54 340.919 199.54C341.703 199.54 342.415 199.724 343.055 200.092C343.695 200.452 344.199 200.956 344.567 201.604C344.935 202.252 345.119 202.988 345.119 203.812C345.119 204.636 344.935 205.372 344.567 206.02C344.199 206.668 343.695 207.176 343.055 207.544C342.415 207.904 341.703 208.084 340.919 208.084ZM340.919 207.136C341.503 207.136 342.027 207 342.491 206.728C342.963 206.456 343.331 206.068 343.595 205.564C343.867 205.06 344.003 204.476 344.003 203.812C344.003 203.14 343.867 202.556 343.595 202.06C343.331 201.556 342.967 201.168 342.503 200.896C342.039 200.624 341.511 200.488 340.919 200.488C340.327 200.488 339.799 200.624 339.335 200.896C338.871 201.168 338.503 201.556 338.231 202.06C337.967 202.556 337.835 203.14 337.835 203.812C337.835 204.476 337.967 205.06 338.231 205.564C338.503 206.068 338.871 206.456 339.335 206.728C339.807 207 340.335 207.136 340.919 207.136ZM346.153 204.7C346.153 204.02 346.289 203.428 346.561 202.924C346.833 202.412 347.209 202.016 347.689 201.736C348.177 201.456 348.733 201.316 349.357 201.316C350.165 201.316 350.829 201.512 351.349 201.904C351.877 202.296 352.225 202.84 352.393 203.536H351.217C351.105 203.136 350.885 202.82 350.557 202.588C350.237 202.356 349.837 202.24 349.357 202.24C348.733 202.24 348.229 202.456 347.845 202.888C347.461 203.312 347.269 203.916 347.269 204.7C347.269 205.492 347.461 206.104 347.845 206.536C348.229 206.968 348.733 207.184 349.357 207.184C349.837 207.184 350.237 207.072 350.557 206.848C350.877 206.624 351.097 206.304 351.217 205.888H352.393C352.217 206.56 351.865 207.1 351.337 207.508C350.809 207.908 350.149 208.108 349.357 208.108C348.733 208.108 348.177 207.968 347.689 207.688C347.209 207.408 346.833 207.012 346.561 206.5C346.289 205.988 346.153 205.388 346.153 204.7ZM355.182 202.324V206.2C355.182 206.52 355.25 206.748 355.386 206.884C355.522 207.012 355.758 207.076 356.094 207.076H356.898V208H355.914C355.306 208 354.85 207.86 354.546 207.58C354.242 207.3 354.09 206.84 354.09 206.2V202.324H353.238V201.424H354.09V199.768H355.182V201.424H356.898V202.324H355.182Z" fill="#777F90"/>
<mask id="path-34-inside-11_8012_4153" fill="white">
<path d="M365 75H401.5V189H365V75Z"/>
</mask>
<path d="M365 75H401.5V189H365V75Z" fill="url(#paint10_linear_8012_4153)"/>
<path d="M365 76H401.5V74H365V76Z" fill="#FFB11B" mask="url(#path-34-inside-11_8012_4153)"/>
<path d="M379.33 208H378.238L373.846 201.34V208H372.754V199.624H373.846L378.238 206.272V199.624H379.33V208ZM384.06 208.108C383.444 208.108 382.884 207.968 382.38 207.688C381.884 207.408 381.492 207.012 381.204 206.5C380.924 205.98 380.784 205.38 380.784 204.7C380.784 204.028 380.928 203.436 381.216 202.924C381.512 202.404 381.912 202.008 382.416 201.736C382.92 201.456 383.484 201.316 384.108 201.316C384.732 201.316 385.296 201.456 385.8 201.736C386.304 202.008 386.7 202.4 386.988 202.912C387.284 203.424 387.432 204.02 387.432 204.7C387.432 205.38 387.28 205.98 386.976 206.5C386.68 207.012 386.276 207.408 385.764 207.688C385.252 207.968 384.684 208.108 384.06 208.108ZM384.06 207.148C384.452 207.148 384.82 207.056 385.164 206.872C385.508 206.688 385.784 206.412 385.992 206.044C386.208 205.676 386.316 205.228 386.316 204.7C386.316 204.172 386.212 203.724 386.004 203.356C385.796 202.988 385.524 202.716 385.188 202.54C384.852 202.356 384.488 202.264 384.096 202.264C383.696 202.264 383.328 202.356 382.992 202.54C382.664 202.716 382.4 202.988 382.2 203.356C382 203.724 381.9 204.172 381.9 204.7C381.9 205.236 381.996 205.688 382.188 206.056C382.388 206.424 382.652 206.7 382.98 206.884C383.308 207.06 383.668 207.148 384.06 207.148ZM391.315 206.992L393.355 201.424H394.519L391.939 208H390.667L388.087 201.424H389.263L391.315 206.992Z" fill="#777F90"/>
<mask id="path-37-inside-12_8012_4153" fill="white">
<path d="M401.5 116H438V189H401.5V116Z"/>
</mask>
<path d="M401.5 116H438V189H401.5V116Z" fill="url(#paint11_linear_8012_4153)"/>
<path d="M401.5 117H438V115H401.5V117Z" fill="#FFB11B" mask="url(#path-37-inside-12_8012_4153)"/>
<path d="M411.671 199.636C412.583 199.636 413.371 199.808 414.035 200.152C414.707 200.488 415.219 200.972 415.571 201.604C415.931 202.236 416.111 202.98 416.111 203.836C416.111 204.692 415.931 205.436 415.571 206.068C415.219 206.692 414.707 207.172 414.035 207.508C413.371 207.836 412.583 208 411.671 208H409.067V199.636H411.671ZM411.671 207.1C412.751 207.1 413.575 206.816 414.143 206.248C414.711 205.672 414.995 204.868 414.995 203.836C414.995 202.796 414.707 201.984 414.131 201.4C413.563 200.816 412.743 200.524 411.671 200.524H410.159V207.1H411.671ZM423.551 204.46C423.551 204.668 423.539 204.888 423.515 205.12H418.259C418.299 205.768 418.519 206.276 418.919 206.644C419.327 207.004 419.819 207.184 420.395 207.184C420.867 207.184 421.259 207.076 421.571 206.86C421.891 206.636 422.115 206.34 422.243 205.972H423.419C423.243 206.604 422.891 207.12 422.363 207.52C421.835 207.912 421.179 208.108 420.395 208.108C419.771 208.108 419.211 207.968 418.715 207.688C418.227 207.408 417.843 207.012 417.563 206.5C417.283 205.98 417.143 205.38 417.143 204.7C417.143 204.02 417.279 203.424 417.551 202.912C417.823 202.4 418.203 202.008 418.691 201.736C419.187 201.456 419.755 201.316 420.395 201.316C421.019 201.316 421.571 201.452 422.051 201.724C422.531 201.996 422.899 202.372 423.155 202.852C423.419 203.324 423.551 203.86 423.551 204.46ZM422.423 204.232C422.423 203.816 422.331 203.46 422.147 203.164C421.963 202.86 421.711 202.632 421.391 202.48C421.079 202.32 420.731 202.24 420.347 202.24C419.795 202.24 419.323 202.416 418.931 202.768C418.547 203.12 418.327 203.608 418.271 204.232H422.423ZM424.584 204.7C424.584 204.02 424.72 203.428 424.992 202.924C425.264 202.412 425.64 202.016 426.12 201.736C426.608 201.456 427.164 201.316 427.788 201.316C428.596 201.316 429.26 201.512 429.78 201.904C430.308 202.296 430.656 202.84 430.824 203.536H429.648C429.536 203.136 429.316 202.82 428.988 202.588C428.668 202.356 428.268 202.24 427.788 202.24C427.164 202.24 426.66 202.456 426.276 202.888C425.892 203.312 425.7 203.916 425.7 204.7C425.7 205.492 425.892 206.104 426.276 206.536C426.66 206.968 427.164 207.184 427.788 207.184C428.268 207.184 428.668 207.072 428.988 206.848C429.308 206.624 429.528 206.304 429.648 205.888H430.824C430.648 206.56 430.296 207.1 429.768 207.508C429.24 207.908 428.58 208.108 427.788 208.108C427.164 208.108 426.608 207.968 426.12 207.688C425.64 207.408 425.264 207.012 424.992 206.5C424.72 205.988 424.584 205.388 424.584 204.7Z" fill="#777F90"/>
<defs>
<linearGradient id="paint0_linear_8012_4153" x1="18.25" y1="67" x2="18.25" y2="194" gradientUnits="userSpaceOnUse">
<stop stop-color="#FFF5E5"/>
<stop offset="1" stop-color="#FFF5E5" stop-opacity="0"/>
</linearGradient>
<linearGradient id="paint1_linear_8012_4153" x1="54.75" y1="108" x2="54.75" y2="194" gradientUnits="userSpaceOnUse">
<stop stop-color="#FFF5E5"/>
<stop offset="1" stop-color="#FFF5E5" stop-opacity="0"/>
</linearGradient>
<linearGradient id="paint2_linear_8012_4153" x1="91.25" y1="57" x2="91.25" y2="189" gradientUnits="userSpaceOnUse">
<stop stop-color="#FFF5E5"/>
<stop offset="1" stop-color="#FFF5E5" stop-opacity="0"/>
</linearGradient>
<linearGradient id="paint3_linear_8012_4153" x1="127.75" y1="86" x2="127.75" y2="189" gradientUnits="userSpaceOnUse">
<stop stop-color="#FFF5E5"/>
<stop offset="1" stop-color="#FFF5E5" stop-opacity="0"/>
</linearGradient>
<linearGradient id="paint4_linear_8012_4153" x1="164.25" y1="110" x2="164.25" y2="189" gradientUnits="userSpaceOnUse">
<stop stop-color="#FFF5E5"/>
<stop offset="1" stop-color="#FFF5E5" stop-opacity="0"/>
</linearGradient>
<linearGradient id="paint5_linear_8012_4153" x1="200.75" y1="0" x2="200.75" y2="189" gradientUnits="userSpaceOnUse">
<stop stop-color="#FFF5E5"/>
<stop offset="1" stop-color="#FFF5E5" stop-opacity="0"/>
</linearGradient>
<linearGradient id="paint6_linear_8012_4153" x1="237.25" y1="81" x2="237.25" y2="189" gradientUnits="userSpaceOnUse">
<stop stop-color="#FFF5E5"/>
<stop offset="1" stop-color="#FFF5E5" stop-opacity="0"/>
</linearGradient>
<linearGradient id="paint7_linear_8012_4153" x1="273.75" y1="56" x2="273.75" y2="189" gradientUnits="userSpaceOnUse">
<stop stop-color="#FFF5E5"/>
<stop offset="1" stop-color="#FFF5E5" stop-opacity="0"/>
</linearGradient>
<linearGradient id="paint8_linear_8012_4153" x1="310.25" y1="77" x2="310.25" y2="189" gradientUnits="userSpaceOnUse">
<stop stop-color="#FFF5E5"/>
<stop offset="1" stop-color="#FFF5E5" stop-opacity="0"/>
</linearGradient>
<linearGradient id="paint9_linear_8012_4153" x1="346.75" y1="55" x2="346.75" y2="189" gradientUnits="userSpaceOnUse">
<stop stop-color="#FFF5E5"/>
<stop offset="1" stop-color="#FFF5E5" stop-opacity="0"/>
</linearGradient>
<linearGradient id="paint10_linear_8012_4153" x1="383.25" y1="75" x2="383.25" y2="189" gradientUnits="userSpaceOnUse">
<stop stop-color="#FFF5E5"/>
<stop offset="1" stop-color="#FFF5E5" stop-opacity="0"/>
</linearGradient>
<linearGradient id="paint11_linear_8012_4153" x1="419.75" y1="116" x2="419.75" y2="189" gradientUnits="userSpaceOnUse">
<stop stop-color="#FFF5E5"/>
<stop offset="1" stop-color="#FFF5E5" stop-opacity="0"/>
</linearGradient>
<clipPath id="clip0_8012_4153">
<rect width="16" height="16" fill="white" transform="translate(87 74.9585)"/>
</clipPath>
</defs>
</svg>
