<svg width="70" height="70" viewBox="0 0 70 70" fill="none" xmlns="http://www.w3.org/2000/svg">
<rect width="70" height="70" rx="35" fill="#FFEFEF"/>
<path d="M53.8958 20.8952C50.5417 20.5618 47.1875 20.3118 43.8125 20.1243V20.1035L43.3542 17.3952C43.0417 15.4785 42.5833 12.6035 37.7083 12.6035H32.25C27.3958 12.6035 26.9375 15.3535 26.6042 17.3743L26.1667 20.041C24.2292 20.166 22.2917 20.291 20.3542 20.4785L16.1042 20.8952C15.2292 20.9785 14.6042 21.7493 14.6875 22.6035C14.7708 23.4577 15.5208 24.0827 16.3958 23.9993L20.6458 23.5827C31.5625 22.4993 42.5625 22.916 53.6042 24.0202C53.6667 24.0202 53.7083 24.0202 53.7708 24.0202C54.5625 24.0202 55.25 23.416 55.3333 22.6035C55.3958 21.7493 54.7708 20.9785 53.8958 20.8952Z" fill="#FF5D5D"/>
<path d="M50.0625 26.959C49.5625 26.4382 48.875 26.1465 48.1667 26.1465H21.8333C21.125 26.1465 20.4167 26.4382 19.9375 26.959C19.4583 27.4798 19.1875 28.1882 19.2292 28.9173L20.5208 50.2923C20.75 53.459 21.0417 57.4173 28.3125 57.4173H41.6875C48.9583 57.4173 49.25 53.4798 49.4792 50.2923L50.7708 28.9382C50.8125 28.1882 50.5417 27.4798 50.0625 26.959ZM38.4583 46.9798H31.5208C30.6667 46.9798 29.9583 46.2715 29.9583 45.4173C29.9583 44.5632 30.6667 43.8548 31.5208 43.8548H38.4583C39.3125 43.8548 40.0208 44.5632 40.0208 45.4173C40.0208 46.2715 39.3125 46.9798 38.4583 46.9798ZM40.2083 38.6465H29.7917C28.9375 38.6465 28.2292 37.9382 28.2292 37.084C28.2292 36.2298 28.9375 35.5215 29.7917 35.5215H40.2083C41.0625 35.5215 41.7708 36.2298 41.7708 37.084C41.7708 37.9382 41.0625 38.6465 40.2083 38.6465Z" fill="#F4614C"/>
</svg>
