<svg width="196" height="45" viewBox="0 0 196 45" fill="none" xmlns="http://www.w3.org/2000/svg">
<rect width="45.8824" height="45" rx="9" fill="#FCE6D2"/>
<path d="M37.2358 20.8142L28.0864 26.0945V35.9786L37.2305 30.7036V20.8248H37.2358V20.8142Z" fill="url(#paint0_linear_8650_11241)"/>
<path d="M28.076 26.1051L18.9055 20.8142L18.8896 20.8301V30.6983L28.0655 35.9892L28.076 35.9998L28.0866 35.9945L28.0919 35.9998L28.0813 35.9892L28.0866 35.9786V26.0945L28.076 26.1051Z" fill="url(#paint1_linear_8650_11241)"/>
<path d="M18.2502 8.98494L18.2555 8.97437L18.2502 8.97965V8.97437L18.2291 8.98494L18.2026 8.99551V18.8796L18.2396 18.869L27.3996 24.1599V24.1441V14.2758L18.2502 8.98494Z" fill="url(#paint2_linear_8650_11241)"/>
<path d="M9.05859 14.2706V24.1495L9.06388 24.16L18.2027 18.8797V8.99561L9.05859 14.2706Z" fill="url(#paint3_linear_8650_11241)"/>
<path d="M17.5737 20.8142L9.05859 25.7245V35.6139L17.5684 30.7036V20.8248H17.5737V20.8142Z" fill="url(#paint4_linear_8650_11241)"/>
<path d="M37.231 9.36035L28.7212 14.2707V24.1495L28.7265 24.1601L37.231 19.2497V9.36035Z" fill="url(#paint5_linear_8650_11241)"/>
<path d="M69.8283 26.106H64.8243L63.9963 28.5H61.3503L65.8683 15.918H68.8023L73.3203 28.5H70.6563L69.8283 26.106ZM69.1443 24.09L67.3263 18.834L65.5083 24.09H69.1443ZM78.8251 28.662C78.0091 28.662 77.2771 28.518 76.6291 28.23C75.9811 27.93 75.4651 27.528 75.0811 27.024C74.7091 26.52 74.5051 25.962 74.4691 25.35H77.0071C77.0551 25.734 77.2411 26.052 77.5651 26.304C77.9011 26.556 78.3151 26.682 78.8071 26.682C79.2871 26.682 79.6591 26.586 79.9231 26.394C80.1991 26.202 80.3371 25.956 80.3371 25.656C80.3371 25.332 80.1691 25.092 79.8331 24.936C79.5091 24.768 78.9871 24.588 78.2671 24.396C77.5231 24.216 76.9111 24.03 76.4311 23.838C75.9631 23.646 75.5551 23.352 75.2071 22.956C74.8711 22.56 74.7031 22.026 74.7031 21.354C74.7031 20.802 74.8591 20.298 75.1711 19.842C75.4951 19.386 75.9511 19.026 76.5391 18.762C77.1391 18.498 77.8411 18.366 78.6451 18.366C79.8331 18.366 80.7811 18.666 81.4891 19.266C82.1971 19.854 82.5871 20.652 82.6591 21.66H80.2471C80.2111 21.264 80.0431 20.952 79.7431 20.724C79.4551 20.484 79.0651 20.364 78.5731 20.364C78.1171 20.364 77.7631 20.448 77.5111 20.616C77.2711 20.784 77.1511 21.018 77.1511 21.318C77.1511 21.654 77.3191 21.912 77.6551 22.092C77.9911 22.26 78.5131 22.434 79.2211 22.614C79.9411 22.794 80.5351 22.98 81.0031 23.172C81.4711 23.364 81.8731 23.664 82.2091 24.072C82.5571 24.468 82.7371 24.996 82.7491 25.656C82.7491 26.232 82.5871 26.748 82.2631 27.204C81.9511 27.66 81.4951 28.02 80.8951 28.284C80.3071 28.536 79.6171 28.662 78.8251 28.662ZM87.3377 19.968C87.6617 19.512 88.1057 19.134 88.6697 18.834C89.2457 18.522 89.8997 18.366 90.6317 18.366C91.4837 18.366 92.2517 18.576 92.9357 18.996C93.6317 19.416 94.1777 20.016 94.5737 20.796C94.9817 21.564 95.1857 22.458 95.1857 23.478C95.1857 24.498 94.9817 25.404 94.5737 26.196C94.1777 26.976 93.6317 27.582 92.9357 28.014C92.2517 28.446 91.4837 28.662 90.6317 28.662C89.8997 28.662 89.2517 28.512 88.6877 28.212C88.1357 27.912 87.6857 27.534 87.3377 27.078V33.252H84.8177V18.528H87.3377V19.968ZM92.6117 23.478C92.6117 22.878 92.4857 22.362 92.2337 21.93C91.9937 21.486 91.6697 21.15 91.2617 20.922C90.8657 20.694 90.4337 20.58 89.9657 20.58C89.5097 20.58 89.0777 20.7 88.6697 20.94C88.2737 21.168 87.9497 21.504 87.6977 21.948C87.4577 22.392 87.3377 22.914 87.3377 23.514C87.3377 24.114 87.4577 24.636 87.6977 25.08C87.9497 25.524 88.2737 25.866 88.6697 26.106C89.0777 26.334 89.5097 26.448 89.9657 26.448C90.4337 26.448 90.8657 26.328 91.2617 26.088C91.6697 25.848 91.9937 25.506 92.2337 25.062C92.4857 24.618 92.6117 24.09 92.6117 23.478ZM106.287 23.298C106.287 23.658 106.263 23.982 106.215 24.27H98.9249C98.9849 24.99 99.2369 25.554 99.6809 25.962C100.125 26.37 100.671 26.574 101.319 26.574C102.255 26.574 102.921 26.172 103.317 25.368H106.035C105.747 26.328 105.195 27.12 104.379 27.744C103.563 28.356 102.561 28.662 101.373 28.662C100.413 28.662 99.5489 28.452 98.7809 28.032C98.0249 27.6 97.4309 26.994 96.9989 26.214C96.5789 25.434 96.3689 24.534 96.3689 23.514C96.3689 22.482 96.5789 21.576 96.9989 20.796C97.4189 20.016 98.0069 19.416 98.7629 18.996C99.5189 18.576 100.389 18.366 101.373 18.366C102.321 18.366 103.167 18.57 103.911 18.978C104.667 19.386 105.249 19.968 105.657 20.724C106.077 21.468 106.287 22.326 106.287 23.298ZM103.677 22.578C103.665 21.93 103.431 21.414 102.975 21.03C102.519 20.634 101.961 20.436 101.301 20.436C100.677 20.436 100.149 20.628 99.7169 21.012C99.2969 21.384 99.0389 21.906 98.9429 22.578H103.677ZM113.652 18.384C114.84 18.384 115.8 18.762 116.532 19.518C117.264 20.262 117.63 21.306 117.63 22.65V28.5H115.11V22.992C115.11 22.2 114.912 21.594 114.516 21.174C114.12 20.742 113.58 20.526 112.896 20.526C112.2 20.526 111.648 20.742 111.24 21.174C110.844 21.594 110.646 22.2 110.646 22.992V28.5H108.126V18.528H110.646V19.77C110.982 19.338 111.408 19.002 111.924 18.762C112.452 18.51 113.028 18.384 113.652 18.384ZM132.074 15.936V17.97H126.836V21.192H130.85V23.19H126.836V28.5H124.316V15.936H132.074ZM143.131 23.298C143.131 23.658 143.107 23.982 143.059 24.27H135.769C135.829 24.99 136.081 25.554 136.525 25.962C136.969 26.37 137.515 26.574 138.163 26.574C139.099 26.574 139.765 26.172 140.161 25.368H142.879C142.591 26.328 142.039 27.12 141.223 27.744C140.407 28.356 139.405 28.662 138.217 28.662C137.257 28.662 136.393 28.452 135.625 28.032C134.869 27.6 134.275 26.994 133.843 26.214C133.423 25.434 133.213 24.534 133.213 23.514C133.213 22.482 133.423 21.576 133.843 20.796C134.263 20.016 134.851 19.416 135.607 18.996C136.363 18.576 137.233 18.366 138.217 18.366C139.165 18.366 140.011 18.57 140.755 18.978C141.511 19.386 142.093 19.968 142.501 20.724C142.921 21.468 143.131 22.326 143.131 23.298ZM140.521 22.578C140.509 21.93 140.275 21.414 139.819 21.03C139.363 20.634 138.805 20.436 138.145 20.436C137.521 20.436 136.993 20.628 136.561 21.012C136.141 21.384 135.883 21.906 135.787 22.578H140.521ZM150.496 18.384C151.684 18.384 152.644 18.762 153.376 19.518C154.108 20.262 154.474 21.306 154.474 22.65V28.5H151.954V22.992C151.954 22.2 151.756 21.594 151.36 21.174C150.964 20.742 150.424 20.526 149.74 20.526C149.044 20.526 148.492 20.742 148.084 21.174C147.688 21.594 147.49 22.2 147.49 22.992V28.5H144.97V18.528H147.49V19.77C147.826 19.338 148.252 19.002 148.768 18.762C149.296 18.51 149.872 18.384 150.496 18.384ZM156.222 23.514C156.222 22.482 156.432 21.582 156.852 20.814C157.272 20.034 157.854 19.434 158.598 19.014C159.342 18.582 160.194 18.366 161.154 18.366C162.39 18.366 163.41 18.678 164.214 19.302C165.03 19.914 165.576 20.778 165.852 21.894H163.134C162.99 21.462 162.744 21.126 162.396 20.886C162.06 20.634 161.64 20.508 161.136 20.508C160.416 20.508 159.846 20.772 159.426 21.3C159.006 21.816 158.796 22.554 158.796 23.514C158.796 24.462 159.006 25.2 159.426 25.728C159.846 26.244 160.416 26.502 161.136 26.502C162.156 26.502 162.822 26.046 163.134 25.134H165.852C165.576 26.214 165.03 27.072 164.214 27.708C163.398 28.344 162.378 28.662 161.154 28.662C160.194 28.662 159.342 28.452 158.598 28.032C157.854 27.6 157.272 27 156.852 26.232C156.432 25.452 156.222 24.546 156.222 23.514ZM168.977 17.34C168.533 17.34 168.161 17.202 167.861 16.926C167.573 16.638 167.429 16.284 167.429 15.864C167.429 15.444 167.573 15.096 167.861 14.82C168.161 14.532 168.533 14.388 168.977 14.388C169.421 14.388 169.787 14.532 170.075 14.82C170.375 15.096 170.525 15.444 170.525 15.864C170.525 16.284 170.375 16.638 170.075 16.926C169.787 17.202 169.421 17.34 168.977 17.34ZM170.219 18.528V28.5H167.699V18.528H170.219ZM178.234 18.384C179.422 18.384 180.382 18.762 181.114 19.518C181.846 20.262 182.212 21.306 182.212 22.65V28.5H179.692V22.992C179.692 22.2 179.494 21.594 179.098 21.174C178.702 20.742 178.162 20.526 177.478 20.526C176.782 20.526 176.23 20.742 175.822 21.174C175.426 21.594 175.228 22.2 175.228 22.992V28.5H172.708V18.528H175.228V19.77C175.564 19.338 175.99 19.002 176.506 18.762C177.034 18.51 177.61 18.384 178.234 18.384ZM188.515 18.366C189.259 18.366 189.913 18.516 190.477 18.816C191.041 19.104 191.485 19.482 191.809 19.95V18.528H194.347V28.572C194.347 29.496 194.161 30.318 193.789 31.038C193.417 31.77 192.859 32.346 192.115 32.766C191.371 33.198 190.471 33.414 189.415 33.414C187.999 33.414 186.835 33.084 185.923 32.424C185.023 31.764 184.513 30.864 184.393 29.724H186.895C187.027 30.18 187.309 30.54 187.741 30.804C188.185 31.08 188.719 31.218 189.343 31.218C190.075 31.218 190.669 30.996 191.125 30.552C191.581 30.12 191.809 29.46 191.809 28.572V27.024C191.485 27.492 191.035 27.882 190.459 28.194C189.895 28.506 189.247 28.662 188.515 28.662C187.675 28.662 186.907 28.446 186.211 28.014C185.515 27.582 184.963 26.976 184.555 26.196C184.159 25.404 183.961 24.498 183.961 23.478C183.961 22.47 184.159 21.576 184.555 20.796C184.963 20.016 185.509 19.416 186.193 18.996C186.889 18.576 187.663 18.366 188.515 18.366ZM191.809 23.514C191.809 22.902 191.689 22.38 191.449 21.948C191.209 21.504 190.885 21.168 190.477 20.94C190.069 20.7 189.631 20.58 189.163 20.58C188.695 20.58 188.263 20.694 187.867 20.922C187.471 21.15 187.147 21.486 186.895 21.93C186.655 22.362 186.535 22.878 186.535 23.478C186.535 24.078 186.655 24.606 186.895 25.062C187.147 25.506 187.471 25.848 187.867 26.088C188.275 26.328 188.707 26.448 189.163 26.448C189.631 26.448 190.069 26.334 190.477 26.106C190.885 25.866 191.209 25.53 191.449 25.098C191.689 24.654 191.809 24.126 191.809 23.514Z" fill="#292D32"/>
<defs>
<linearGradient id="paint0_linear_8650_11241" x1="28.0864" y1="20.8157" x2="37.2385" y2="20.8157" gradientUnits="userSpaceOnUse">
<stop stop-color="#78A99A"/>
<stop offset="1" stop-color="#A0B8B0"/>
</linearGradient>
<linearGradient id="paint1_linear_8650_11241" x1="18.8896" y1="20.8157" x2="28.0906" y2="20.8157" gradientUnits="userSpaceOnUse">
<stop stop-color="#006655"/>
<stop offset="1" stop-color="#004B47"/>
</linearGradient>
<linearGradient id="paint2_linear_8650_11241" x1="18.2026" y1="8.97585" x2="27.3996" y2="8.97585" gradientUnits="userSpaceOnUse">
<stop stop-color="#00A76D"/>
<stop offset="1" stop-color="#00A886"/>
</linearGradient>
<linearGradient id="paint3_linear_8650_11241" x1="9.05859" y1="8.9936" x2="18.2027" y2="8.9936" gradientUnits="userSpaceOnUse">
<stop stop-color="#A0B8B0"/>
<stop offset="1" stop-color="#78A99A"/>
</linearGradient>
<linearGradient id="paint4_linear_8650_11241" x1="9.05859" y1="20.8157" x2="17.5764" y2="20.8157" gradientUnits="userSpaceOnUse">
<stop stop-color="#00A886"/>
<stop offset="1" stop-color="#00A76D"/>
</linearGradient>
<linearGradient id="paint5_linear_8650_11241" x1="28.7212" y1="9.35982" x2="37.231" y2="9.35982" gradientUnits="userSpaceOnUse">
<stop stop-color="#004B47"/>
<stop offset="1" stop-color="#006655"/>
</linearGradient>
</defs>
</svg>
