<svg width="39" height="38" viewBox="0 0 39 38" fill="none" xmlns="http://www.w3.org/2000/svg">
<rect x="0.75" width="38" height="38" rx="5" fill="#E6EBED"/>
<g clip-path="url(#clip0_8136_18916)">
<path d="M28.9429 30.7081H10.5679V19.5693C10.5679 17.1246 11.5261 14.8201 13.2661 13.0801C15.006 11.3401 17.3107 10.3818 19.7554 10.3818C22.2001 10.3818 24.5047 11.3401 26.2447 13.0801C27.9846 14.8201 28.9429 17.1246 28.9429 19.5693V30.7081Z" fill="#74564F"/>
<path d="M26.2447 13.0801C24.5047 11.3401 22.2001 10.3818 19.7554 10.3818V30.7081H28.9429V19.5694C28.9429 17.1246 27.9846 14.8201 26.2447 13.0801Z" fill="#604A43"/>
<path fill-rule="evenodd" clip-rule="evenodd" d="M18.3906 19.2812H16.8438C16.0703 19.2812 15.4375 19.9141 15.4375 20.6875C15.4375 21.4609 16.0703 22.0938 16.8438 22.0938H18.3906V19.2812Z" fill="#FDBF00"/>
<path fill-rule="evenodd" clip-rule="evenodd" d="M21.2031 19.2812H22.75C23.5234 19.2812 24.1562 19.9141 24.1562 20.6875C24.1562 21.4609 23.5234 22.0938 22.75 22.0938H21.2031V19.2812Z" fill="#FF9100"/>
<path d="M21.5514 27.4609V12.3672H18.0358V27.4609H9.2251V30.9766H29.906V27.4609H21.5514Z" fill="#F6EFEA"/>
<path d="M21.5514 27.4609V12.3672H19.7554V30.9766H29.906V27.4609H21.5514Z" fill="#EEE1DC"/>
<path d="M28.2256 11.3858C25.9528 9.11298 22.9428 7.86133 19.75 7.86133C16.5571 7.86133 13.5471 9.11298 11.2743 11.3858C9.00161 13.6585 7.75 16.6685 7.75 19.8613V30.297C7.75 30.6853 8.06481 31.0001 8.45312 31.0001H9.86467C10.253 31.0001 10.5678 30.6853 10.5678 30.297V19.8613C10.5678 17.4166 11.526 15.112 13.266 13.372C15.006 11.6321 17.3106 10.6738 19.7553 10.6738C22.2 10.6738 24.5046 11.632 26.2446 13.372C27.9845 15.112 28.9428 17.4166 28.9428 19.8613V30.297C28.9428 30.6853 29.2576 31.0001 29.6459 31.0001H31.0468C31.4351 31.0001 31.75 30.6853 31.75 30.297V19.8613C31.7499 16.6685 30.4982 13.6585 28.2256 11.3858Z" fill="#FDBF00"/>
<path d="M28.2256 11.3857C25.9542 9.1142 22.9462 7.86273 19.7554 7.86133V10.6738C22.2001 10.6738 24.5047 11.632 26.2447 13.372C27.9846 15.112 28.9429 17.4166 28.9429 19.8613V30.2969C28.9429 30.6852 29.2577 31 29.646 31H31.0469C31.4352 31 31.75 30.6852 31.75 30.2969V19.8612C31.75 16.6684 30.4983 13.6584 28.2256 11.3857Z" fill="#FF9100"/>
<path d="M23.448 13.5527C23.3282 13.5527 23.2072 13.5222 23.0969 13.4585L20.787 12.1248C20.4791 11.9471 20.3523 11.5674 20.4916 11.2403C20.9394 10.1894 22.0233 7.63894 22.0233 7.63894C22.0622 7.54734 22.1202 7.46505 22.1933 7.39752C22.2664 7.32999 22.353 7.27876 22.4474 7.2472C22.5418 7.21565 22.6419 7.2045 22.7409 7.21449C22.8399 7.22447 22.9357 7.25537 23.0219 7.30514L26.3913 9.25045C26.4775 9.3002 26.5521 9.36766 26.6102 9.44839C26.6684 9.52911 26.7088 9.62125 26.7287 9.71872C26.7486 9.8162 26.7475 9.91678 26.7257 10.0138C26.7038 10.1109 26.6616 10.2022 26.6019 10.2817C26.0699 10.9897 24.4906 12.6337 24.0105 13.2722C23.9449 13.3594 23.8599 13.4301 23.7623 13.4788C23.6647 13.5275 23.5571 13.5528 23.448 13.5527Z" fill="#FFCD00"/>
<path d="M16.0625 13.5528C15.9534 13.5529 15.8458 13.5276 15.7482 13.4789C15.6506 13.4302 15.5657 13.3594 15.5002 13.2722C15.02 12.6338 13.4407 10.9898 12.9087 10.2818C12.8489 10.2023 12.8066 10.1109 12.7848 10.0139C12.7629 9.91682 12.7619 9.81622 12.7818 9.71874C12.8017 9.62125 12.8421 9.5291 12.9002 9.44838C12.9584 9.36767 13.033 9.30021 13.1192 9.25049L16.4886 7.30518C16.5748 7.2554 16.6706 7.22449 16.7696 7.21449C16.8687 7.2045 16.9687 7.21564 17.0631 7.2472C17.1575 7.27875 17.2441 7.33 17.3172 7.39754C17.3904 7.46507 17.4483 7.54737 17.4872 7.63898C17.4872 7.63898 18.5752 10.1991 19.0189 11.2404C19.0862 11.3984 19.0933 11.5757 19.0389 11.7386C18.9845 11.9016 18.8723 12.039 18.7236 12.1249L16.4136 13.4585C16.3069 13.5203 16.1858 13.5528 16.0625 13.5528Z" fill="#FFDE46"/>
<path d="M21.7421 13.4219H17.7573C17.5926 13.4219 17.4332 13.3641 17.3068 13.2586C17.1804 13.1532 17.095 13.0067 17.0655 12.8447C16.9511 12.2159 16.3411 8.87195 16.1519 7.82856C16.1335 7.72726 16.1376 7.62315 16.1639 7.52361C16.1902 7.42406 16.238 7.3315 16.304 7.25247C16.37 7.17344 16.4526 7.10987 16.5458 7.06624C16.6391 7.02262 16.7408 7 16.8437 7H22.6562C22.7593 7.00003 22.861 7.02269 22.9543 7.06638C23.0476 7.11007 23.1302 7.17373 23.1962 7.25285C23.2621 7.33197 23.3099 7.42462 23.3362 7.52425C23.3624 7.62388 23.3664 7.72805 23.3479 7.82941L23.1885 8.70302C22.9363 10.0833 22.6848 11.4638 22.434 12.8443C22.4046 13.0064 22.3192 13.153 22.1927 13.2585C22.0663 13.3641 21.9068 13.4219 21.7421 13.4219Z" fill="#FFF36C"/>
<path d="M23.1962 7.2528C23.1302 7.17368 23.0477 7.11002 22.9543 7.06634C22.861 7.02266 22.7593 7.00001 22.6562 7H19.7554V13.4219H21.7422C21.9069 13.4219 22.0663 13.364 22.1928 13.2585C22.3192 13.1529 22.4046 13.0063 22.434 12.8443C22.6845 11.4637 22.9365 10.0833 23.1885 8.70297L23.3479 7.82936C23.3664 7.72801 23.3624 7.62384 23.3362 7.52421C23.31 7.42457 23.2622 7.33192 23.1962 7.2528Z" fill="#FFDE46"/>
</g>
<defs>
<clipPath id="clip0_8136_18916">
<rect width="24" height="24" fill="white" transform="translate(7.75 7)"/>
</clipPath>
</defs>
</svg>
