<svg width="39" height="38" viewBox="0 0 39 38" fill="none" xmlns="http://www.w3.org/2000/svg">
<rect x="0.25" width="38" height="38" rx="5" fill="#E6EBED"/>
<g clip-path="url(#clip0_8136_18899)">
<path d="M28.4881 30.9584H10.012V18.5343C10.012 12.3755 13.6766 9.25417 19.25 7C24.8235 9.25417 28.4881 12.3755 28.4881 18.5343V30.9584Z" fill="#E8EDF2"/>
<path d="M19.25 7C18.9265 7.13067 18.6051 7.26655 18.2859 7.40758C23.314 9.63222 26.5598 12.7381 26.5598 18.5343V30.9584H28.4881V18.5343C28.4881 12.3755 24.8235 9.25417 19.25 7Z" fill="#D9E7EC"/>
<path d="M11.6992 30.9584V18.5342C11.6992 16.0297 12.3888 14.029 13.8073 12.4177C15.0109 11.0506 16.7506 9.90126 19.2501 8.82764C21.7495 9.90126 23.4892 11.0507 24.6928 12.4177C26.1113 14.029 26.8009 16.0297 26.8009 18.5342V30.9584H11.6992Z" fill="#E19974"/>
<path d="M8.78931 27.0603H29.7107V28.9413H8.78931V27.0603Z" fill="#C5D3DD"/>
<path d="M27.7825 27.0603H29.7107V28.9413H27.7825V27.0603Z" fill="#B6C4CF"/>
<path d="M7.80103 28.9414H30.6989V31.0001H7.80103V28.9414Z" fill="#E8EDF2"/>
<path d="M28.7708 28.9414H30.699V31.0001H28.7708V28.9414Z" fill="#D9E7EC"/>
<path d="M13.9492 18.5983C13.9492 16.62 14.443 15.1377 15.5031 13.9335C16.3445 12.9778 17.549 12.1347 19.2501 11.3176C20.9511 12.1347 22.1556 12.9778 22.997 13.9335C24.0572 15.1377 24.5509 16.62 24.5509 18.5983H13.9492Z" fill="white"/>
<path d="M22.6934 13.3157C22.5975 13.3157 22.5056 13.3538 22.4378 13.4216C22.37 13.4894 22.3319 13.5814 22.3319 13.6773V18.5985C22.3319 18.7982 22.4937 18.9601 22.6934 18.9601C22.8931 18.9601 23.055 18.7982 23.055 18.5985V13.6773C23.055 13.5814 23.0169 13.4894 22.9491 13.4216C22.8813 13.3538 22.7893 13.3157 22.6934 13.3157ZM20.9717 11.9238C20.9242 11.9238 20.8772 11.9332 20.8333 11.9514C20.7894 11.9695 20.7496 11.9962 20.716 12.0297C20.6824 12.0633 20.6558 12.1032 20.6376 12.147C20.6195 12.1909 20.6101 12.2379 20.6101 12.2854V18.5985C20.6101 18.7982 20.772 18.9601 20.9717 18.9601C21.1714 18.9601 21.3332 18.7982 21.3332 18.5985V12.2854C21.3332 12.1895 21.2951 12.0975 21.2273 12.0297C21.1595 11.9619 21.0676 11.9238 20.9717 11.9238ZM19.2499 11.0291C19.154 11.0291 19.0621 11.0671 18.9943 11.1349C18.9264 11.2028 18.8884 11.2947 18.8884 11.3906V18.5985C18.8884 18.7982 19.0502 18.96 19.2499 18.96C19.4496 18.96 19.6115 18.7982 19.6115 18.5985V11.3906C19.6115 11.2947 19.5734 11.2028 19.5056 11.1349C19.4378 11.0671 19.3458 11.0291 19.2499 11.0291ZM17.5281 11.9238C17.4322 11.9238 17.3403 11.9619 17.2725 12.0297C17.2047 12.0975 17.1666 12.1895 17.1666 12.2854V18.5985C17.1666 18.7982 17.3284 18.9601 17.5281 18.9601C17.7278 18.9601 17.8897 18.7982 17.8897 18.5985V12.2854C17.8897 12.1895 17.8516 12.0975 17.7838 12.0297C17.716 11.9619 17.624 11.9238 17.5281 11.9238ZM15.8064 13.3157C15.7105 13.3157 15.6185 13.3538 15.5507 13.4216C15.4829 13.4894 15.4448 13.5814 15.4448 13.6773V18.5985C15.4448 18.7982 15.6067 18.9601 15.8064 18.9601C16.0061 18.9601 16.1679 18.7982 16.1679 18.5985V13.6773C16.1679 13.5814 16.1298 13.4894 16.062 13.4216C15.9942 13.3538 15.9023 13.3157 15.8064 13.3157Z" fill="#C5D3DD"/>
<path d="M24.5509 23.6395V21.4599C23.8829 21.4599 23.3413 20.9183 23.3413 20.2502H15.1588C15.1588 20.9183 14.6173 21.4599 13.9492 21.4599V23.6395C14.6173 23.6395 15.1588 24.181 15.1588 24.8491H23.3413C23.3413 24.181 23.8829 23.6395 24.5509 23.6395Z" fill="#C86D36"/>
</g>
<defs>
<clipPath id="clip0_8136_18899">
<rect width="24" height="24" fill="white" transform="translate(7.25 7)"/>
</clipPath>
</defs>
</svg>
