<svg width="39" height="38" viewBox="0 0 39 38" fill="none" xmlns="http://www.w3.org/2000/svg">
<rect x="0.25" width="38" height="38" rx="5" fill="#E6EBED"/>
<mask id="mask0_8136_18859" style="mask-type:luminance" maskUnits="userSpaceOnUse" x="7" y="7" width="25" height="24">
<path d="M7.25 7H31.25V31H7.25V7Z" fill="white"/>
</mask>
<g mask="url(#mask0_8136_18859)">
<path d="M29.5957 16.4277H8.90314C7.99391 16.4277 7.25 15.6838 7.25 14.7746C7.25 13.8654 7.99391 13.1215 8.90314 13.1215H29.5957C30.5049 13.1215 31.2488 13.8654 31.2488 14.7746C31.2488 15.6838 30.5049 16.4277 29.5957 16.4277Z" fill="#D97C41"/>
<path d="M29.5962 23.0908H8.90363C7.99439 23.0908 7.25049 22.3469 7.25049 21.4377C7.25049 20.5285 7.99439 19.7846 8.90363 19.7846H29.5962C30.5054 19.7846 31.2493 20.5285 31.2493 21.4377C31.2493 22.3469 30.5054 23.0908 29.5962 23.0908Z" fill="#D97C41"/>
<path d="M9.47862 8.66413L11.1052 7.23969C11.4694 6.92075 12.0135 6.9207 12.3777 7.23964L14.0045 8.66413C14.1598 8.8001 14.2842 8.96768 14.3694 9.15565C14.4547 9.34361 14.4988 9.54762 14.4988 9.75402V27.3547H8.98438V9.75397C8.98438 9.54759 9.02848 9.34359 9.11372 9.15563C9.19896 8.96768 9.32337 8.8001 9.47862 8.66413Z" fill="#E4996D"/>
<path d="M11.8931 8.66413L12.9487 7.73966L12.3777 7.23964C12.0135 6.9207 11.4694 6.92075 11.1051 7.23969L9.47863 8.66413C9.32337 8.8001 9.19896 8.96768 9.11372 9.15563C9.02848 9.34359 8.98438 9.54759 8.98438 9.75397V27.3547H11.3989V9.75397C11.3989 9.54759 11.443 9.34359 11.5282 9.15563C11.6134 8.96768 11.7379 8.8001 11.8931 8.66413Z" fill="#DF8A57"/>
<path d="M16.9862 8.66413L18.6128 7.23969C18.977 6.92075 19.5211 6.9207 19.8853 7.23964L21.512 8.66413C21.6673 8.80009 21.7917 8.96767 21.877 9.15564C21.9623 9.3436 22.0064 9.54762 22.0064 9.75402V27.3547H16.4919V9.75397C16.4919 9.54759 16.536 9.34359 16.6213 9.15563C16.7065 8.96768 16.8309 8.8001 16.9862 8.66413Z" fill="#E4996D"/>
<path d="M19.4007 8.66413L20.4563 7.73966L19.8853 7.23964C19.5211 6.9207 18.977 6.92075 18.6128 7.23969L16.9862 8.66413C16.831 8.8001 16.7066 8.96767 16.6213 9.15563C16.5361 9.34359 16.492 9.54759 16.4919 9.75397V27.3547H18.9065V9.75397C18.9065 9.54759 18.9506 9.34359 19.0358 9.15563C19.1211 8.96768 19.2455 8.8001 19.4007 8.66413Z" fill="#DF8A57"/>
<path d="M24.4957 8.66413L26.1223 7.23969C26.4864 6.92075 27.0306 6.9207 27.3948 7.23964L29.0215 8.66413C29.1768 8.80009 29.3013 8.96767 29.3865 9.15564C29.4718 9.3436 29.5159 9.54762 29.5159 9.75402V27.3547H24.0015V9.75397C24.0015 9.54759 24.0456 9.34359 24.1308 9.15563C24.216 8.96768 24.3405 8.8001 24.4957 8.66413Z" fill="#E4996D"/>
<path d="M26.9102 8.66413L27.9658 7.73966L27.3948 7.23964C27.0306 6.9207 26.4864 6.92075 26.1223 7.23969L24.4957 8.66413C24.3405 8.8001 24.216 8.96768 24.1308 9.15563C24.0456 9.34359 24.0015 9.54759 24.0015 9.75397V27.3547H26.4159V9.75397C26.416 9.54759 26.4601 9.34359 26.5453 9.15563C26.6305 8.96768 26.7549 8.8001 26.9102 8.66413Z" fill="#DF8A57"/>
<path d="M31.25 27.8374C31.1493 26.6981 30.1834 25.8046 29.0174 25.8046C28.1766 25.8046 27.4447 26.2694 27.0639 26.9558C26.6832 26.2694 25.9513 25.8046 25.1105 25.8046C24.2697 25.8046 23.5378 26.2694 23.157 26.9558C22.7762 26.2694 22.0443 25.8046 21.2035 25.8046C20.3627 25.8046 19.6308 26.2694 19.25 26.9558C18.8692 26.2694 18.1373 25.8046 17.2965 25.8046C16.4557 25.8046 15.7238 26.2694 15.343 26.9558C14.9623 26.2694 14.2303 25.8046 13.3895 25.8046C12.5487 25.8046 11.8168 26.2694 11.4361 26.9558C11.0553 26.2694 10.3234 25.8046 9.48256 25.8046C8.31664 25.8046 7.35069 26.6981 7.25 27.8374V29.5837C7.25 30.3626 7.88736 31 8.66628 31H29.8337C30.6126 31 31.25 30.3626 31.25 29.5837V28.7468V27.8374Z" fill="#8DD470"/>
<path d="M13.2468 29.5837V27.8375C13.3149 27.0669 13.7791 26.4092 14.4331 26.0639C14.1117 25.8933 13.7534 25.8043 13.3895 25.8047C12.5487 25.8047 11.8168 26.2694 11.4361 26.9558C11.0553 26.2694 10.3234 25.8047 9.48256 25.8047C8.31664 25.8047 7.35069 26.6982 7.25 27.8375V29.5837C7.25 30.3627 7.88736 31 8.66628 31H14.6631C13.8842 31 13.2468 30.3627 13.2468 29.5837Z" fill="#7DCE5C"/>
<path d="M10.9674 14.7751C10.9674 14.8711 10.9293 14.9632 10.8614 15.0311C10.7935 15.0991 10.7013 15.1372 10.6053 15.1372C10.5093 15.1372 10.4171 15.0991 10.3492 15.0311C10.2813 14.9632 10.2432 14.8711 10.2432 14.7751C10.2432 14.7275 10.2525 14.6804 10.2707 14.6365C10.2889 14.5926 10.3156 14.5526 10.3492 14.519C10.3829 14.4854 10.4228 14.4587 10.4667 14.4405C10.5107 14.4223 10.5578 14.413 10.6053 14.413C10.6529 14.413 10.7 14.4223 10.7439 14.4405C10.7878 14.4587 10.8278 14.4854 10.8614 14.519C10.895 14.5526 10.9217 14.5926 10.9399 14.6365C10.9581 14.6804 10.9674 14.7275 10.9674 14.7751Z" fill="#D97C41"/>
<path d="M13.2533 14.7739C13.2539 14.8218 13.2449 14.8693 13.227 14.9137C13.209 14.9581 13.1824 14.9985 13.1487 15.0326C13.1151 15.0667 13.075 15.0937 13.0308 15.1122C12.9865 15.1306 12.9391 15.1401 12.8912 15.1401C12.8433 15.1401 12.7959 15.1306 12.7517 15.1122C12.7075 15.0937 12.6674 15.0667 12.6337 15.0326C12.6 14.9985 12.5734 14.9581 12.5554 14.9137C12.5375 14.8693 12.5285 14.8218 12.5291 14.7739C12.5302 14.6785 12.5688 14.5875 12.6366 14.5204C12.7044 14.4534 12.7959 14.4158 12.8912 14.4158C12.9865 14.4158 13.078 14.4534 13.1458 14.5204C13.2136 14.5875 13.2523 14.6785 13.2533 14.7739Z" fill="#DF8A57"/>
<path d="M10.9547 21.6042C10.9547 21.7002 10.9165 21.7923 10.8486 21.8602C10.7807 21.9282 10.6886 21.9663 10.5926 21.9663C10.4965 21.9663 10.4044 21.9282 10.3365 21.8602C10.2686 21.7923 10.2305 21.7002 10.2305 21.6042C10.2305 21.5082 10.2686 21.4161 10.3365 21.3481C10.4044 21.2802 10.4965 21.2421 10.5926 21.2421C10.6886 21.2421 10.7807 21.2802 10.8486 21.3481C10.9165 21.4161 10.9547 21.5082 10.9547 21.6042Z" fill="#D97C41"/>
<path d="M13.2406 21.6042C13.2406 21.7002 13.2024 21.7923 13.1345 21.8602C13.0666 21.9282 12.9745 21.9663 12.8785 21.9663C12.7824 21.9663 12.6903 21.9282 12.6224 21.8602C12.5545 21.7923 12.5164 21.7002 12.5164 21.6042C12.5164 21.5082 12.5545 21.4161 12.6224 21.3481C12.6903 21.2802 12.7824 21.2421 12.8785 21.2421C12.9745 21.2421 13.0666 21.2802 13.1345 21.3481C13.2024 21.4161 13.2406 21.5082 13.2406 21.6042Z" fill="#DF8A57"/>
<path d="M18.4752 14.5227C18.4752 14.6187 18.4371 14.7108 18.3692 14.7787C18.3013 14.8466 18.2091 14.8848 18.1131 14.8848C18.0171 14.8848 17.925 14.8466 17.857 14.7787C17.7891 14.7108 17.751 14.6187 17.751 14.5226C17.751 14.4266 17.7891 14.3345 17.857 14.2666C17.925 14.1987 18.0171 14.1605 18.1131 14.1605C18.2092 14.1605 18.3013 14.1987 18.3692 14.2666C18.4371 14.3345 18.4752 14.4266 18.4752 14.5227Z" fill="#D97C41"/>
<path d="M20.7609 14.5227C20.7609 14.5702 20.7516 14.6173 20.7334 14.6612C20.7152 14.7052 20.6885 14.7451 20.6549 14.7787C20.6212 14.8123 20.5813 14.839 20.5374 14.8572C20.4934 14.8754 20.4463 14.8848 20.3988 14.8848C20.3271 14.8848 20.2571 14.8635 20.1976 14.8237C20.138 14.7839 20.0916 14.7274 20.0642 14.6612C20.0368 14.595 20.0296 14.5222 20.0436 14.4519C20.0576 14.3817 20.0921 14.3172 20.1427 14.2665C20.1934 14.2159 20.2579 14.1814 20.3282 14.1674C20.3984 14.1534 20.4712 14.1606 20.5374 14.188C20.6036 14.2155 20.6601 14.2619 20.6999 14.3214C20.7397 14.381 20.7609 14.451 20.7609 14.5227Z" fill="#DF8A57"/>
<path d="M18.4625 21.3518C18.4625 21.3993 18.4531 21.4464 18.4349 21.4903C18.4168 21.5343 18.3901 21.5742 18.3565 21.6078C18.3228 21.6414 18.2829 21.6681 18.239 21.6863C18.195 21.7045 18.1479 21.7139 18.1004 21.7139C18.0044 21.7139 17.9122 21.6757 17.8443 21.6078C17.7764 21.5399 17.7383 21.4478 17.7383 21.3518C17.7383 21.2557 17.7764 21.1636 17.8443 21.0957C17.9122 21.0278 18.0044 20.9896 18.1004 20.9896C18.1479 20.9896 18.195 20.999 18.239 21.0172C18.2829 21.0354 18.3228 21.0621 18.3565 21.0957C18.3901 21.1293 18.4168 21.1692 18.4349 21.2132C18.4531 21.2571 18.4625 21.3042 18.4625 21.3518Z" fill="#D97C41"/>
<path d="M20.7484 21.3518C20.7484 21.4478 20.7102 21.5399 20.6423 21.6078C20.5744 21.6757 20.4823 21.7139 20.3863 21.7139C20.2902 21.7139 20.1981 21.6757 20.1302 21.6078C20.0623 21.5399 20.0242 21.4478 20.0242 21.3518C20.0242 21.2557 20.0623 21.1636 20.1302 21.0957C20.1981 21.0278 20.2902 20.9896 20.3863 20.9896C20.4823 20.9896 20.5744 21.0278 20.6423 21.0957C20.7102 21.1636 20.7484 21.2557 20.7484 21.3518Z" fill="#DF8A57"/>
<path d="M25.9847 14.7751C25.9847 14.8711 25.9466 14.9632 25.8787 15.0311C25.8107 15.0991 25.7186 15.1372 25.6226 15.1372C25.5266 15.1372 25.4345 15.0991 25.3666 15.0311C25.2986 14.9632 25.2605 14.8711 25.2605 14.7751C25.2605 14.7275 25.2699 14.6805 25.288 14.6365C25.3062 14.5926 25.3329 14.5527 25.3665 14.519C25.4002 14.4854 25.4401 14.4587 25.484 14.4405C25.528 14.4223 25.5751 14.413 25.6226 14.413C25.6702 14.413 25.7173 14.4223 25.7612 14.4405C25.8051 14.4587 25.845 14.4854 25.8787 14.519C25.9123 14.5527 25.939 14.5926 25.9572 14.6365C25.9754 14.6805 25.9847 14.7275 25.9847 14.7751Z" fill="#D97C41"/>
<path d="M28.2706 14.7751C28.2706 14.8711 28.2325 14.9632 28.1645 15.0311C28.0966 15.0991 28.0045 15.1372 27.9085 15.1372C27.8125 15.1372 27.7204 15.0991 27.6524 15.0311C27.5845 14.9632 27.5464 14.8711 27.5464 14.7751C27.5464 14.7275 27.5557 14.6805 27.5739 14.6365C27.5921 14.5926 27.6188 14.5527 27.6524 14.519C27.6861 14.4854 27.726 14.4587 27.7699 14.4405C27.8139 14.4223 27.8609 14.413 27.9085 14.413C27.9561 14.413 28.0031 14.4223 28.0471 14.4405C28.091 14.4587 28.1309 14.4854 28.1646 14.519C28.1982 14.5527 28.2249 14.5926 28.2431 14.6365C28.2612 14.6805 28.2706 14.7275 28.2706 14.7751Z" fill="#DF8A57"/>
<path d="M25.9706 21.6047C25.9712 21.6526 25.9622 21.7001 25.9442 21.7445C25.9263 21.789 25.8997 21.8294 25.866 21.8634C25.8323 21.8975 25.7922 21.9245 25.748 21.943C25.7038 21.9614 25.6564 21.971 25.6085 21.9709C25.5606 21.9709 25.5131 21.9614 25.4689 21.943C25.4247 21.9245 25.3846 21.8975 25.3509 21.8634C25.3173 21.8293 25.2907 21.7889 25.2727 21.7445C25.2548 21.7001 25.2458 21.6526 25.2464 21.6046C25.2475 21.5093 25.2861 21.4183 25.3539 21.3512C25.4217 21.2842 25.5132 21.2466 25.6085 21.2466C25.7039 21.2466 25.7953 21.2842 25.8631 21.3513C25.9309 21.4183 25.9695 21.5094 25.9706 21.6047Z" fill="#D97C41"/>
<path d="M28.2577 21.6047C28.2583 21.6526 28.2493 21.7001 28.2314 21.7445C28.2134 21.789 28.1868 21.8294 28.1531 21.8634C28.1194 21.8975 28.0793 21.9245 28.0351 21.943C27.9909 21.9614 27.9435 21.971 27.8956 21.9709C27.8477 21.9709 27.8002 21.9614 27.756 21.943C27.7118 21.9245 27.6717 21.8975 27.6381 21.8634C27.6044 21.8293 27.5778 21.7889 27.5598 21.7445C27.5419 21.7001 27.5329 21.6526 27.5335 21.6046C27.5346 21.5093 27.5732 21.4183 27.641 21.3512C27.7088 21.2842 27.8003 21.2466 27.8956 21.2466C27.991 21.2466 28.0825 21.2842 28.1502 21.3513C28.218 21.4183 28.2567 21.5094 28.2577 21.6047Z" fill="#DF8A57"/>
</g>
</svg>
