<svg width="39" height="38" viewBox="0 0 39 38" fill="none" xmlns="http://www.w3.org/2000/svg">
<rect x="0.75" width="38" height="38" rx="5" fill="#E6EBED"/>
<g clip-path="url(#clip0_8136_18890)">
<path d="M11.2656 19.0469C10.4774 19.0469 9.85938 19.6649 9.85938 20.4531C9.85938 21.2414 10.4774 21.8594 11.2656 21.8594C12.0539 21.8594 12.6719 21.2414 12.6719 20.4531C12.6719 19.6649 12.0539 19.0469 11.2656 19.0469ZM11.2656 26.0781C10.4774 26.0781 9.85938 26.6961 9.85938 27.4844C9.85938 28.2726 10.4774 28.8906 11.2656 28.8906C12.0539 28.8906 12.6719 28.2726 12.6719 27.4844C12.6719 26.6961 12.0539 26.0781 11.2656 26.0781ZM16.9375 19.75H14.0781C13.6895 19.75 13.375 20.0645 13.375 20.4531C13.375 20.8418 13.6895 21.1562 14.0781 21.1562H16.9375C17.3261 21.1562 17.6406 20.8418 17.6406 20.4531C17.6406 20.0645 17.3261 19.75 16.9375 19.75ZM25.4219 19.75H22.5625C22.1739 19.75 21.8594 20.0645 21.8594 20.4531C21.8594 20.8418 22.1739 21.1562 22.5625 21.1562H25.4219C25.8105 21.1562 26.125 20.8418 26.125 20.4531C26.125 20.0645 25.8105 19.75 25.4219 19.75ZM25.4219 26.7812H22.5625C22.1739 26.7812 21.8594 27.0957 21.8594 27.4844C21.8594 27.873 22.1739 28.1875 22.5625 28.1875H25.4219C25.8105 28.1875 26.125 27.873 26.125 27.4844C26.125 27.0957 25.8105 26.7812 25.4219 26.7812ZM16.9375 26.7812H14.0781C13.6895 26.7812 13.375 27.0957 13.375 27.4844C13.375 27.873 13.6895 28.1875 14.0781 28.1875H16.9375C17.3261 28.1875 17.6406 27.873 17.6406 27.4844C17.6406 27.0957 17.3261 26.7812 16.9375 26.7812ZM29.5938 9.8125H23.2656V7.70312C23.2656 7.31448 22.9511 7 22.5625 7H18.3438C17.9551 7 17.6406 7.31448 17.6406 7.70312V13.3281C17.6406 13.7168 17.9551 14.0312 18.3438 14.0312H22.5625C22.9511 14.0312 23.2656 13.7168 23.2656 13.3281V11.2188H29.5938C29.9824 11.2188 30.2969 10.9043 30.2969 10.5156C30.2969 10.127 29.9824 9.8125 29.5938 9.8125ZM19.75 19.0469C18.9618 19.0469 18.3438 19.6649 18.3438 20.4531C18.3438 21.2414 18.9618 21.8594 19.75 21.8594C20.5382 21.8594 21.1562 21.2414 21.1562 20.4531C21.1562 19.6649 20.5382 19.0469 19.75 19.0469ZM19.75 26.0781C18.9618 26.0781 18.3438 26.6961 18.3438 27.4844C18.3438 28.2726 18.9618 28.8906 19.75 28.8906C20.5382 28.8906 21.1562 28.2726 21.1562 27.4844C21.1562 26.6961 20.5382 26.0781 19.75 26.0781ZM28.2344 19.0469C27.4461 19.0469 26.8281 19.6649 26.8281 20.4531C26.8281 21.2414 27.4461 21.8594 28.2344 21.8594C29.0226 21.8594 29.6406 21.2414 29.6406 20.4531C29.6406 19.6649 29.0226 19.0469 28.2344 19.0469ZM28.2344 26.0781C27.4461 26.0781 26.8281 26.6961 26.8281 27.4844C26.8281 28.2726 27.4461 28.8906 28.2344 28.8906C29.0226 28.8906 29.6406 28.2726 29.6406 27.4844C29.6406 26.6961 29.0226 26.0781 28.2344 26.0781Z" fill="url(#paint0_linear_8136_18890)"/>
<path d="M15.4942 10.0703C15.3294 9.71742 14.9078 9.5677 14.5603 9.73045C14.2074 9.89456 14.055 10.3127 14.2197 10.665L14.8144 11.9394C14.9772 12.2876 15.3926 12.4444 15.7482 12.2793C16.1012 12.1152 16.2536 11.697 16.0888 11.3448L15.4942 10.0703ZM12.0719 13.805L13.393 14.2864C13.7612 14.4197 14.1614 14.2286 14.2939 13.8668C14.4272 13.5015 14.239 13.0978 13.8737 12.9653L12.5526 12.4839C12.1859 12.3521 11.7849 12.5402 11.6517 12.9035C11.5185 13.2687 11.7066 13.6725 12.0719 13.805ZM11.7578 15.7421C11.4905 15.4609 11.0407 15.4609 10.7734 15.7421L7.96094 18.5546C7.82036 18.6812 7.75 18.864 7.75 19.0469V30.2969C7.75 30.6906 8.05933 31 8.45312 31H14.0781C14.4719 31 14.7812 30.6906 14.7812 30.2969V19.0469C14.7812 18.864 14.7109 18.6812 14.5703 18.5546L11.7578 15.7421ZM11.2656 28.1875C10.8718 28.1875 10.5625 27.8781 10.5625 27.4844C10.5625 27.0906 10.8718 26.7812 11.2656 26.7812C11.6594 26.7812 11.9688 27.0906 11.9688 27.4844C11.9688 27.8781 11.6594 28.1875 11.2656 28.1875ZM11.2656 21.1562C10.8718 21.1562 10.5625 20.8468 10.5625 20.4531C10.5625 20.0593 10.8718 19.75 11.2656 19.75C11.6594 19.75 11.9688 20.0593 11.9688 20.4531C11.9688 20.8468 11.6594 21.1562 11.2656 21.1562ZM20.2421 15.7421C19.9749 15.4609 19.5251 15.4609 19.2578 15.7421L16.4453 18.5546C16.3047 18.6812 16.2344 18.864 16.2344 19.0469V30.2969C16.2344 30.6906 16.5437 31 16.9375 31H22.5625C22.9563 31 23.2656 30.6906 23.2656 30.2969V19.0469C23.2656 18.864 23.1953 18.6812 23.0546 18.5546L20.2421 15.7421ZM19.75 28.1875C19.3562 28.1875 19.0469 27.8781 19.0469 27.4844C19.0469 27.0906 19.3562 26.7812 19.75 26.7812C20.1438 26.7812 20.4531 27.0906 20.4531 27.4844C20.4531 27.8781 20.1438 28.1875 19.75 28.1875ZM19.75 21.1562C19.3562 21.1562 19.0469 20.8468 19.0469 20.4531C19.0469 20.0593 19.3562 19.75 19.75 19.75C20.1438 19.75 20.4531 20.0593 20.4531 20.4531C20.4531 20.8468 20.1438 21.1562 19.75 21.1562ZM31.539 18.5546L28.7265 15.7421C28.4592 15.4609 28.0095 15.4609 27.7422 15.7421L24.9297 18.5546C24.7891 18.6812 24.7188 18.864 24.7188 19.0469V30.2969C24.7188 30.6906 25.0281 31 25.4219 31H31.0469C31.4407 31 31.75 30.6906 31.75 30.2969V19.0469C31.75 18.864 31.6796 18.6812 31.539 18.5546ZM28.2344 28.1875C27.8406 28.1875 27.5312 27.8781 27.5312 27.4844C27.5312 27.0906 27.8406 26.7812 28.2344 26.7812C28.6282 26.7812 28.9375 27.0906 28.9375 27.4844C28.9375 27.8781 28.6282 28.1875 28.2344 28.1875ZM28.2344 21.1562C27.8406 21.1562 27.5312 20.8468 27.5312 20.4531C27.5312 20.0593 27.8406 19.75 28.2344 19.75C28.6282 19.75 28.9375 20.0593 28.9375 20.4531C28.9375 20.8468 28.6282 21.1562 28.2344 21.1562Z" fill="url(#paint1_linear_8136_18890)"/>
</g>
<defs>
<linearGradient id="paint0_linear_8136_18890" x1="20.0781" y1="28.8906" x2="20.0781" y2="7" gradientUnits="userSpaceOnUse">
<stop stop-color="#F7CAB0"/>
<stop offset="1" stop-color="#FFDBC6"/>
</linearGradient>
<linearGradient id="paint1_linear_8136_18890" x1="19.75" y1="31" x2="19.75" y2="9.66482" gradientUnits="userSpaceOnUse">
<stop stop-color="#DF8A57"/>
<stop offset="1" stop-color="#FFCDB0"/>
</linearGradient>
<clipPath id="clip0_8136_18890">
<rect width="24" height="24" fill="white" transform="translate(7.75 7)"/>
</clipPath>
</defs>
</svg>
