<svg width="200" height="200" viewBox="0 0 200 200" fill="none" xmlns="http://www.w3.org/2000/svg">
<g clip-path="url(#clip0_8458_40693)">
<path d="M164.425 99.9631V194.139C164.425 197.421 161.846 200 158.563 200H41.3322C38.0494 200 35.4707 197.421 35.4707 194.139V109.107C35.4707 106.997 36.6426 105.121 38.4015 104.066L54.2272 94.9222C55.1655 94.3356 56.2206 94.1016 57.158 94.1016H82.363L99.9476 109.107L117.532 94.1016H158.563C161.846 94.1016 164.425 96.6802 164.425 99.9631Z" fill="#E63950"/>
<path d="M164.424 99.9631V194.139C164.424 197.421 161.846 200 158.563 200H99.9473V109.107L117.532 94.1016H158.563C161.846 94.1016 164.424 96.6802 164.424 99.9631Z" fill="#D0004F"/>
<path d="M103.934 11.7275C102.878 9.8514 101.471 8.09333 99.9474 6.80301C97.1339 3.87224 93.6173 1.87971 89.7483 0.825025C83.6519 -0.816206 77.3219 0.00440902 71.9289 3.16925C64.4261 7.50757 59.9717 15.5957 60.2058 24.2712C60.323 25.4435 60.9092 42.8718 60.9092 42.8718C59.6196 42.1684 46.2553 33.8446 46.2553 33.8446C44.7313 33.1413 34.1809 25.1696 21.1683 32.7892C15.7753 35.9548 11.9067 40.9953 10.2651 46.9745C8.62425 53.0709 9.44526 59.401 12.6097 64.794C19.0574 76.0477 33.4772 79.7991 44.6141 73.3514L59.7056 64.638L38.6814 63.2364C36.9225 64.2429 34.9316 64.7736 32.9051 64.7764C28.7149 64.7764 24.8341 62.5498 22.7791 58.9606C21.1422 56.1728 20.7526 53.1162 21.5825 50.0252C22.4012 47.0542 24.3644 44.5072 27.1006 42.9042C29.0126 41.7823 30.8328 41.2384 32.6589 41.2384C35.6928 41.2384 38.2055 42.721 39.5509 43.5166L40.2949 43.9402C42.1323 45.0851 54.05 52.4804 55.2864 53.1561L55.7272 53.3964L55.6275 53.4538L55.7897 53.4609L69.8574 61.667L72.5928 43.6916L72.6604 43.4787L72.6252 42.4693C72.6252 42.4693 71.9898 24.2974 71.864 23.0723C71.8011 19.5577 74.0562 15.482 77.7943 13.3183C79.6204 12.248 81.5437 11.7212 83.5699 11.7212C84.6117 11.7212 85.6648 11.8643 86.7066 12.1448C88.5897 12.6599 90.2212 13.5989 91.4919 14.9267L92.3735 15.7567C92.7057 16.0314 93.2492 16.6441 93.7072 17.4624C96.5122 22.2021 95.6478 28.4907 91.7897 32.2229C91.1543 32.8009 90.3185 33.4308 89.5573 33.8657L88.9746 34.2022L87.4088 48.6423L95.3742 44.0433C97.0155 43.1055 98.5399 41.9332 99.9462 40.644C107.45 33.3761 109.56 21.2232 103.934 11.7275ZM82.3628 94.1017V158.969C82.3628 161.314 83.7696 163.424 85.9969 164.362C88.1071 165.3 90.6866 164.831 92.327 163.072L99.9474 155.569L107.568 163.072C109.209 164.831 111.788 165.299 113.898 164.362C116.125 163.424 117.532 161.314 117.532 158.969V94.1017H82.3628Z" fill="#FED843"/>
<path d="M194.123 70.6555H188.262V64.7939C188.262 61.554 185.64 58.9324 182.4 58.9324C179.16 58.9324 176.539 61.554 176.539 64.7939V70.6555H170.677C167.437 70.6555 164.815 73.2771 164.815 76.517C164.815 79.7569 167.437 82.3785 170.677 82.3785H176.539V88.2401C176.539 91.4799 179.16 94.1016 182.4 94.1016C185.64 94.1016 188.262 91.4799 188.262 88.2401V82.3785H194.123C197.363 82.3785 199.985 79.7569 199.985 76.517C199.985 73.2771 197.363 70.6555 194.123 70.6555Z" fill="#FFB64C"/>
<path d="M170.285 47.2094C173.523 47.2094 176.147 44.5851 176.147 41.3479C176.147 38.1106 173.523 35.4863 170.285 35.4863C167.048 35.4863 164.424 38.1106 164.424 41.3479C164.424 44.5851 167.048 47.2094 170.285 47.2094Z" fill="#FFB64C"/>
<path d="M146.84 82.3786C150.077 82.3786 152.702 79.7543 152.702 76.5171C152.702 73.2798 150.077 70.6555 146.84 70.6555C143.603 70.6555 140.979 73.2798 140.979 76.5171C140.979 79.7543 143.603 82.3786 146.84 82.3786Z" fill="#FFB64C"/>
<path d="M99.9473 94.1017H117.532V158.969C117.532 161.314 116.125 163.424 113.898 164.362C111.788 165.3 109.208 164.831 107.568 163.072L99.9473 155.569V94.1017ZM99.9473 40.6445V6.80347C101.471 8.0934 102.878 9.85147 103.933 11.7275C109.56 21.2232 107.45 33.3766 99.9473 40.6445Z" fill="#FFB64C"/>
<path d="M150.708 46.0367L133.124 15.5567C131.482 12.7431 127.848 11.8053 125.035 13.4465L99.9473 27.9831L96.5886 29.9206L29.9316 68.3805L3.23191 83.7854C0.418367 85.3094 -0.910249 88.9435 0.730982 91.757L18.7064 122.237C20.3476 125.051 23.8645 125.988 26.6781 124.347L99.9473 82.0269L148.481 54.0084C151.294 52.3679 152.233 48.851 150.708 46.0367Z" fill="#FF641A"/>
<path d="M148.481 54.0084L99.9473 82.0265V27.9831L125.035 13.4465C127.848 11.8053 131.482 12.7431 133.124 15.5567L150.708 46.0363C152.233 48.851 151.294 52.3675 148.481 54.0084Z" fill="#E63950"/>
</g>
<defs>
<clipPath id="clip0_8458_40693">
<rect width="200" height="200" fill="white"/>
</clipPath>
</defs>
</svg>
