<svg width="25" height="24" viewBox="0 0 25 24" fill="none" xmlns="http://www.w3.org/2000/svg">
<path d="M23.6334 12.264C23.6334 11.52 23.5614 10.752 23.4414 10.032H13.0494V14.28H19.0014C18.7614 15.648 17.9694 16.848 16.7934 17.616L20.3454 20.376C22.4334 18.432 23.6334 15.6 23.6334 12.264Z" fill="#4280EF"/>
<path d="M13.0495 23.016C16.0255 23.016 18.5215 22.032 20.3455 20.352L16.7935 17.616C15.8095 18.288 14.5375 18.672 13.0495 18.672C10.1695 18.672 7.74547 16.728 6.85747 14.136L3.20947 16.944C5.08147 20.664 8.87347 23.016 13.0495 23.016Z" fill="#34A353"/>
<path d="M6.85743 14.1122C6.40143 12.7442 6.40143 11.2562 6.85743 9.88815L3.20943 7.05615C1.64943 10.1762 1.64943 13.8482 3.20943 16.9442L6.85743 14.1122Z" fill="#F6B704"/>
<path d="M13.0495 5.35206C14.6095 5.32806 16.1455 5.92806 17.2735 7.00806L20.4175 3.84006C18.4255 1.96806 15.7855 0.960061 13.0495 0.984061C8.87347 0.984061 5.08147 3.33606 3.20947 7.05606L6.85747 9.88806C7.74547 7.27206 10.1695 5.35206 13.0495 5.35206Z" fill="#E54335"/>
</svg>
