<svg width="328" height="343" viewBox="0 0 328 343" fill="none" xmlns="http://www.w3.org/2000/svg">
<path d="M138.282 0H131.055L125.635 1.0841L117.684 3.97504L111.903 6.86597L106.482 9.75691L99.6161 14.0933L93.8342 18.4297L89.8592 21.682L84.8001 26.0184L77.9341 32.8844L71.4295 40.8345L68.1772 46.6163L66.3704 51.3141L65.2863 56.0119L64.5635 60.3483L64.2022 64.3233V68.2983L64.9249 75.5257L67.0931 86.7281L69.984 97.2077L69.2613 99.0145L68.1772 101.544V107.326L69.984 114.553L72.5136 120.335L76.1273 127.201L79.0182 131.176L81.9091 133.706L85.5228 135.874L88.0524 138.042L92.3888 140.572L95.6411 140.933L98.1707 140.21L99.2548 139.488L99.9775 141.294L104.314 149.245L108.65 156.833L110.457 160.086L110.818 162.615V170.204L105.759 172.733L102.868 176.347L99.9775 181.768L98.8934 185.381L96.7252 186.104L80.825 192.97L70.7068 197.668L63.8408 201.281L59.8658 203.811L56.2521 206.702V207.425L54.8066 208.147L48.302 210.316L45.0497 213.568L42.5201 216.459L38.9065 220.072L37.461 217.181L35.2928 208.87L34.5701 205.979H34.2087V208.87L34.9315 212.484H35.6542V215.375L38.1837 224.047L39.9906 229.468H40.7133L41.0747 231.998L44.327 239.586L47.2179 245.368H47.9406L48.302 247.175L51.9157 253.318H52.6384V254.402H53.3611V255.486H54.0839L54.4453 256.932L54.8066 257.655H55.5294L55.8907 259.1H56.6135V260.184H57.3362L58.0589 261.991L59.143 263.436H59.8658L60.2271 264.882L62.034 266.689L62.3953 267.411H63.1181V272.832H66.009L66.3704 272.109L71.7909 277.53H72.875V278.614H73.9591L74.6818 280.059L75.7659 281.143L76.85 281.505L78.6568 283.673L81.9091 286.203H82.9932V286.925L84.0773 287.287L84.4387 288.009H85.5228L86.2455 289.455L92.3888 293.43L98.532 297.044L100.339 297.766L103.23 299.573H104.675V300.296L114.794 304.632L125.635 308.246L134.307 310.414L145.871 312.221L154.905 312.944H166.469L175.503 312.221L185.26 310.776L196.101 308.246L201.883 306.439V305.716L205.135 305.355L214.531 301.38L219.59 298.85L226.456 295.237L228.263 294.153V293.43H229.347V292.707L231.154 292.346L237.297 288.009L237.658 286.925H238.742V286.203L240.911 286.564L249.583 290.9L257.895 294.875L263.677 297.766L264.399 298.489L260.063 302.103L253.558 306.8L248.138 310.414L240.188 315.112L231.876 319.448L222.842 323.423L216.338 325.953L203.328 329.928L193.933 332.096L182.731 333.903L176.226 334.626L170.805 334.987H153.46L144.787 334.264L134.307 332.819L124.189 330.651L113.709 327.76L104.314 324.507L93.4729 319.81L86.2455 316.196L77.5727 311.137L71.0681 306.8L66.009 303.187L62.7567 300.657L58.0589 296.682L55.168 294.153L51.5543 290.9L42.5201 281.866L39.2679 277.891L38.5451 276.807L36.3769 276.084L34.9315 272.471L32.0405 268.496L31.6791 267.773H30.9564L30.2337 265.966L26.9814 261.268L23.7291 255.848L19.3927 247.898L15.0563 238.863L12.1653 231.636L7.82892 218.627L5.66074 209.954L3.85388 200.559L2.40842 188.995L2.04706 185.02L1.6857 166.59H1.32431L0.601593 177.431V186.827L1.32431 198.029L2.76981 208.87L5.29935 221.157L8.19031 231.275L11.0812 239.586L15.0563 248.982L18.6699 256.57L23.3677 264.882L28.4268 272.832L33.1246 279.337L37.8224 285.118L41.0747 288.732L43.6042 291.623L46.1338 294.153L47.9406 296.321L50.8316 298.85L54.0839 302.103L58.0589 305.355L62.7567 309.33L69.2613 314.028L74.6818 317.641L81.1864 321.617L89.1365 325.953L96.7252 329.567L106.843 333.542L114.432 336.071L125.273 338.962L136.476 341.13L144.787 342.214L154.544 342.937H167.553L178.033 342.214L190.681 340.408L200.799 338.239L212.001 334.987L219.951 332.096L229.347 328.121L237.297 324.146L244.886 319.81L255.727 312.582L260.424 308.969L266.568 303.91L270.904 299.935L274.518 296.682L277.047 294.153L278.493 294.875L284.275 299.573L288.972 302.825L293.309 305.355L298.007 307.162L302.704 308.246H310.293L315.714 306.8L321.134 303.91L325.109 300.657L326.916 298.489L328 295.598V276.446L327.277 266.327L325.832 257.293L324.025 251.511L321.857 248.259L318.604 245.007L312.823 241.032L311.738 240.309L312.823 236.695L316.436 225.493L318.966 215.013L320.411 207.063V204.172H320.05L318.243 212.845L315.714 221.879L312.823 230.552L309.57 238.502L308.125 238.141L299.813 233.804L291.863 229.468L284.636 225.132L283.913 221.879L278.131 217.904L274.156 215.013L269.459 211.4L267.652 209.593H266.929L266.206 208.147L257.533 199.475L252.474 195.499L248.499 192.609H247.777L247.415 188.272L244.886 177.792L244.163 173.095V164.783L244.524 161.892V156.833L243.079 153.942L240.188 152.135H234.406L230.431 153.581L227.54 155.388L225.01 158.64L222.119 164.422L220.313 170.565L219.59 175.986V181.045L220.313 185.743L209.833 184.297L193.933 181.406L192.487 181.045L190.319 177.431L189.958 176.347L191.765 175.986L196.824 171.649L198.631 168.036L200.437 159.724L201.883 153.581L204.051 146.354L205.497 138.404L207.303 126.117L207.665 121.781V114.192L206.581 107.326L204.774 101.905L202.244 96.1236L201.16 92.8713L200.437 85.644L199.353 78.4166L196.824 67.937L208.026 69.3824L221.035 72.6347L225.733 72.9961L227.901 71.912L228.624 70.8279V66.1301L226.456 63.2392L223.565 62.1551L207.665 58.1801L196.824 54.9278L195.74 53.8437L191.042 43.364L188.151 36.8594L185.26 31.0776L182.008 24.9343L179.84 20.9593L176.949 16.9842L174.058 14.0933L168.999 10.4796L163.217 7.22734L157.435 4.69777L149.846 2.1682L141.535 0.361367L138.282 0Z" fill="#020202"/>
<path d="M66.0088 53.1199L63.1179 54.5653L62.7565 55.2881L61.6724 55.6494L60.9497 56.7335L59.8656 57.0949L58.7815 58.5404L57.6974 58.9017L56.2519 60.7086L54.8065 61.4313L52.9996 63.5995L51.9155 64.6836L50.1087 65.7677L47.5791 68.6587L43.9654 71.911L42.8813 73.7178L40.7132 75.5246L39.629 77.3315L38.1836 78.4156L37.8222 79.4997L36.7381 80.2224L36.0154 81.6679L34.9313 82.752V83.4747L33.8472 83.8361L33.4858 84.9202L32.7631 85.2815L32.4017 86.3656L31.679 86.727L31.3176 87.8111L30.5949 88.1725V89.2566H29.8721L28.788 91.4248L28.0653 91.7861L26.6198 94.6771L25.5357 96.1225V96.8453H24.813L23.0062 100.459L22.2834 102.266H21.5607L20.4766 105.518H19.7539L16.5016 112.384L15.4175 113.83L14.6947 117.443L13.6106 117.805L11.8038 122.502L11.0811 125.032V131.898H8.91286L7.46738 135.512V136.957H6.74466V139.487H6.02191L4.93784 144.907L2.40826 157.916L1.32416 166.589L1.68552 185.019L3.13098 198.389L4.93784 208.146L7.10602 217.542L11.4424 230.551L13.2493 235.249L16.8629 243.56L20.838 251.51L24.813 258.376L28.0653 263.435L30.9562 267.772H31.679L32.4017 269.579L34.9313 272.831L36.0154 276.083L37.4608 276.806H38.5449L39.2677 278.251L42.52 282.227L54.0837 293.79L56.9747 296.32L63.1179 301.379L68.8998 305.715L77.5726 311.497L85.1613 315.834L93.4727 320.17L104.314 324.868L117.323 329.204L130.332 332.457L139.005 333.902L148.039 334.986L153.46 335.347H170.805L179.478 334.625L189.958 333.179L201.883 330.65L213.085 327.397L222.842 323.784L230.069 320.531L236.935 317.279L243.44 313.665L250.306 309.329L257.533 304.27L262.231 300.656L264.761 298.488L263.315 297.043L254.281 292.706L240.91 286.202L238.381 285.84L238.742 286.924H237.658L235.851 288.731L230.431 292.345L229.347 292.706V293.429H228.263V294.152L226.456 294.874L220.674 297.765L217.783 299.572L208.749 303.547L203.69 305.354L201.883 305.715V306.438L198.269 307.161L190.319 309.329L181.285 311.136L172.251 312.22L166.469 312.581H154.905L145.871 311.859L134.307 310.052L124.55 307.522L114.793 304.27L107.205 301.018L106.121 300.295H104.675V299.572L101.784 298.488L99.9773 297.043L97.0864 295.958L89.4977 291.261L85.884 288.731L85.5226 288.008H84.4385L84.0772 286.924H82.9931V286.202L80.4635 284.756L77.5726 282.227L76.8498 281.142L75.043 280.058L73.9589 278.613H72.8748V277.529L71.068 276.445L66.3702 271.747L66.0088 272.831H63.1179V267.41H62.3952L61.6724 265.604L60.227 264.52L59.8656 263.435H59.1429L58.4201 261.99L57.336 260.183H56.6133V259.099L55.8905 258.738L55.5292 257.654H54.8065L54.0837 255.485H53.361V254.401H52.6382V253.317H51.9155L51.1928 251.51L48.3018 246.451L47.9405 245.367H47.2177L46.8564 243.922L42.52 234.887L41.0745 231.274L40.7132 229.467H39.9904L39.2677 226.215L37.4608 220.794L36.0154 215.374L35.654 212.483H34.9313L34.5699 207.062L36.3767 214.651L38.1836 219.71L38.9063 220.433L45.0495 214.29L47.5791 211.399L49.0246 210.314L54.8065 208.508L56.6133 206.701L61.3111 203.087L69.2611 198.751L79.018 194.053L96.725 186.464L98.8932 185.38L101.784 178.876L104.314 174.901L106.121 172.732L111.18 170.203V162.614L110.457 159.362L105.036 149.605L99.2546 139.487L95.6409 140.571L92.3886 140.209L88.0522 137.68L84.0772 134.427L80.4635 132.259L77.9339 129.368L75.043 124.671L71.068 116.359L69.2611 110.577L68.5384 107.325V101.543L70.3452 97.9294L66.7316 83.4747L65.2861 75.5246L64.5634 68.2973V64.3222L65.2861 58.179L66.0088 53.1199Z" fill="#0599B2"/>
<path d="M182.73 22.7686H180.923L181.646 24.9368L185.26 31.8027L189.596 40.8369L192.848 48.0642L195.739 54.5688L198.992 56.0143L207.664 58.5439L213.446 59.9893L226.094 63.2416L228.262 66.1326V70.8304L226.817 72.2758L223.926 72.6372L218.144 71.5531L208.026 69.0235L199.353 67.9394H196.823L197.546 72.2758L199.353 79.8645L200.076 85.6464L200.798 92.8737L202.967 98.6556L205.496 104.799L206.942 110.942L207.303 114.194V121.783L206.58 128.649L204.412 143.104L202.605 150.331L200.437 157.92L198.63 166.593L197.185 170.568L195.378 172.736L191.041 175.988L189.957 176.349L190.319 178.156L192.487 181.409L205.857 183.938L214.169 185.384L220.312 185.745L219.951 181.047V175.988L220.674 170.568L222.48 164.424L225.371 158.643L227.54 156.113V155.39L228.985 154.667L232.96 152.861L234.405 152.499H240.187L243.078 154.306L244.162 156.836V161.895L243.801 164.786V173.097L245.246 181.047L247.053 188.275L247.776 192.611L252.112 195.502L256.81 199.477L259.701 202.007L268.374 210.679L271.988 213.932L275.601 216.461L280.66 220.075L283.551 221.882L284.274 225.134L287.526 227.302L296.561 232.361L304.872 236.698L308.486 238.866L309.931 238.505L313.545 229.47L316.797 219.714L319.688 208.15L320.049 204.175H320.772L321.495 198.754L322.218 183.938L321.856 170.929L320.411 157.92L317.881 144.911L316.074 136.96H315.352V134.792L313.906 131.179L313.183 130.095V131.901H310.293V121.422L309.57 120.338L309.208 130.095L308.847 131.901L305.595 131.54L305.233 130.817V132.624L307.402 133.347H308.847V135.515H303.788L302.704 133.708L302.342 119.254H305.233V129.01H306.679V119.254H309.208L307.402 114.556L303.427 106.606L302.704 104.799H301.981L301.258 102.631L299.813 99.7397H299.09L298.367 97.9329L295.838 93.9578L295.476 92.8737H294.754L294.031 90.7055H293.308V89.6214L292.586 89.2601L292.224 88.176L290.779 86.7305L290.417 85.6464L289.695 85.285L289.333 84.2009L288.249 83.4782L287.888 82.3941L286.804 81.6714L286.442 80.5873L285.72 80.2259L284.635 78.4191L283.551 78.0577V76.9736H282.829L282.106 75.5281L280.66 74.0827L278.131 71.1917L270.904 63.9644L269.097 62.8803L267.651 61.0734L265.844 59.9893L263.315 57.8211L262.953 57.0984L261.869 56.737L261.508 56.0143L260.063 55.2916L259.701 54.5688L257.533 53.8461V53.1234H256.81V52.4006L255.726 52.0393L255.365 51.3165L252.112 49.5097L248.499 46.9801H247.776V46.2574H246.692V45.5347L243.078 43.7278L241.271 43.0051V42.2824L238.019 41.1983V40.4755L235.49 39.3914L225.733 34.6937L220.312 32.5255H219.228V31.8027L214.169 29.9959L211.278 29.6345V28.9118L205.496 27.4663L202.605 27.105V26.3822L189.957 23.8527L189.596 23.4913L182.73 22.7686Z" fill="#59E1E1"/>
<path d="M103.23 193.33L99.9773 194.414L81.9089 202.364L71.4293 207.424L65.6474 210.676L62.3951 213.205L60.9497 214.651L55.8905 217.542L50.47 223.324L47.5791 226.937L44.3268 231.997L43.9654 232.719L40.7131 225.492L37.4608 217.181L35.2926 208.869L34.5699 205.978H34.2085V208.869L34.9312 212.483H35.654V215.374L38.1835 224.047L39.9904 229.467H40.7131L41.0745 231.997L44.3268 239.585L47.2177 245.367H47.9404L48.3018 247.174L51.9155 253.317H52.6382V254.401H53.3609V255.485H54.0837L54.4451 256.931L54.8064 257.654H55.5292L55.8905 259.099H56.6133V260.183H57.336L58.0587 261.99L59.1428 263.435H59.8656L60.2269 264.881L62.0338 266.688L62.3951 267.411H63.1179V272.831H66.0088L66.3702 272.108L71.7907 277.529H72.8748V278.613H73.9589L74.6816 280.058L75.7657 281.142L76.8498 281.504L78.6566 283.672L81.9089 286.202H82.993V286.924L84.0771 287.286L84.4385 288.008H85.5226L86.2453 289.454L92.3886 293.429L98.5318 297.043L100.339 297.765L103.23 299.572H104.675V300.295L114.793 304.631L125.634 308.245L134.307 310.413L145.871 312.22L154.905 312.943H166.469L175.503 312.22L185.26 310.775L196.101 308.245L201.883 306.438V305.715L205.135 305.354L214.531 301.379L219.59 298.849L226.456 295.236L228.263 294.152V293.429H229.347V292.706L231.153 292.345L237.297 288.008L237.658 286.924H238.742V286.202H235.129L231.876 286.563L225.372 290.177L214.892 295.236L205.135 298.849L208.387 291.622L213.085 278.974L213.808 276.445L211.64 271.747L211.278 270.301L208.387 269.217L206.942 272.108L203.328 280.781L199.353 289.454L195.017 298.488L193.571 301.379V302.102L191.403 302.463L191.764 301.018L195.74 291.983L200.076 282.227L206.219 268.133L204.051 265.604L201.883 262.351L199.715 257.654L198.63 259.099L193.571 269.579L188.512 279.336L183.453 288.008L180.562 293.068L175.142 301.74L172.973 304.993L170.082 305.354L174.78 296.681L177.671 291.622L183.453 281.142L189.958 268.856L198.63 252.233L196.462 249.342L194.655 245.006L193.933 241.392V235.972L194.294 232.358L192.849 229.467L192.126 225.492L191.764 221.517L187.067 218.626L178.755 214.29L175.503 212.844L173.335 213.205L168.276 215.374L168.637 217.903L171.167 227.299L167.192 228.022L166.469 224.408L164.301 216.458L163.939 216.096H159.964L150.93 217.181L146.955 218.626L141.173 221.517L131.778 226.576L130.332 226.215L126.357 221.156L122.743 217.181L119.491 213.205L114.793 208.146L111.541 204.171L107.566 199.474L103.23 193.33Z" fill="#F4614C"/>
<path d="M189.956 66.1294L182.368 66.8521L171.165 69.0203L156.349 72.2726L146.592 75.1636L141.894 76.9704L143.34 77.6931L148.76 78.7772L154.904 79.1386L153.82 81.3068L152.013 82.3909H147.676L139.726 80.5841L135.751 80.2227L131.776 81.3068L125.994 84.1977L123.826 85.6432L125.633 82.7523L125.994 81.6682H126.717V80.9454L127.801 80.5841V80.2227L123.826 80.5841L102.144 84.1977L100.699 84.9205L98.8918 91.4251V95.4001L101.421 105.88V108.048L99.9759 109.855L97.8077 110.216L96.0008 109.132L93.8326 105.518L90.5803 101.905L88.0508 99.7365L87.328 100.098L89.1349 102.989L83.353 100.098L79.7393 99.7365L77.2098 100.821L75.7643 102.627L75.0416 104.434V110.939L76.8484 116.359L79.378 121.419L81.9075 125.032L85.1598 128.646L87.6894 131.175L91.3031 133.705L94.9167 135.15L97.4463 134.789L99.6145 132.982L99.9759 131.537L101.421 132.982L105.035 138.403L108.649 144.546L113.708 153.942L118.767 159.001L116.96 158.639L117.321 162.614V178.153L120.935 183.574L127.44 190.078L132.86 194.053L137.919 196.944L140.81 198.39L150.567 201.281L159.24 203.81L161.77 205.978L164.299 208.869L165.383 208.508L168.274 202.003L171.888 196.583L172.972 193.331L173.333 190.801V179.96H168.274L161.047 178.876V172.371H162.131V178.876H164.299L165.383 178.153L166.106 178.876H167.913L168.997 177.792L169.358 174.901L168.997 173.455H169.72V178.876H172.611V173.094H173.695V178.876H175.863L176.947 178.153L177.308 178.876L176.224 179.237L176.586 183.935V192.246L175.14 196.944L171.527 202.365L168.997 207.424L170.442 206.701L174.056 204.172L176.586 203.087L180.199 203.449L189.956 205.978H190.679L190.318 196.944L189.234 189.717L186.343 183.935L182.368 177.43L180.922 177.792V174.901L179.838 172.733L178.754 172.371V171.649L183.09 170.926L187.427 169.48L190.318 167.312L191.763 163.698L194.293 152.857L196.822 144.907L198.629 135.873L200.436 124.671L200.797 120.334V116.359L199.713 108.771L197.545 101.543L195.377 95.0387L193.931 89.2569L193.209 81.6682L192.124 79.5L189.956 77.6931L188.872 77.3318H183.813L178.031 79.5L175.502 80.2227L172.611 79.8613H171.888L171.527 79.1386L172.249 79.5L171.527 77.3318L174.056 76.9704L180.199 74.4408L183.813 73.7181L188.149 74.0795L191.04 75.8863L192.124 76.609L191.763 72.9954L190.318 66.8521L189.956 66.1294Z" fill="#F5B492"/>
<path d="M182.73 22.7686H180.923L181.646 24.9368L185.26 31.8027L189.596 40.8369L192.848 48.0642L195.739 54.5688L198.992 56.0143L207.664 58.5439L213.446 59.9893L226.094 63.2416L228.262 66.1326V71.5531L230.069 72.2758V72.9986H231.153V73.7213H232.237V74.444L234.044 75.1668L234.405 75.8895L236.574 76.9736L236.935 77.6963H238.019L238.381 78.7804H239.465V79.5032L240.91 80.2259L241.633 81.31L243.801 82.0327V82.7555L245.608 84.5623L247.415 85.6464L248.86 87.4532H249.944V88.176L252.835 90.7055L255.003 93.2351H255.726L256.088 94.6806L258.256 96.4874L258.978 97.9329L260.785 99.3783L261.147 100.462L262.953 102.269L264.038 104.076L265.844 105.883L266.929 108.051H267.651V109.135L268.735 110.219L269.097 111.303L270.181 112.388L270.542 113.472H271.265V114.556H271.988L272.349 116.363H273.072L273.794 118.892H274.517L275.24 120.699L277.408 125.035L277.77 126.481H278.492L278.854 128.288L280.66 132.263L283.913 140.574L286.804 151.054L288.972 161.895L290.056 170.929L290.417 176.711V188.275L289.333 199.838L287.888 208.15L285.358 218.629L284.635 221.882H283.913L284.274 225.134L287.526 227.302L296.561 232.361L304.872 236.698L308.486 238.866L309.931 238.505L313.545 229.47L316.797 219.714L319.688 208.15L320.049 204.175H320.772L321.495 198.754L322.218 183.938L321.856 170.929L320.411 157.92L317.881 144.911L316.074 136.96H315.352V134.792L313.906 131.179L313.183 130.095V131.901H310.293V121.422L309.57 120.338L309.208 130.095L308.847 131.901L305.595 131.54L305.233 130.817V132.624L307.402 133.347H308.847V135.515H303.788L302.704 133.708L302.342 119.254H305.233V129.01H306.679V119.254H309.208L307.402 114.556L303.427 106.606L302.704 104.799H301.981L301.258 102.631L299.813 99.7397H299.09L298.367 97.9329L295.838 93.9578L295.476 92.8737H294.754L294.031 90.7055H293.308V89.6214L292.586 89.2601L292.224 88.176L290.779 86.7305L290.417 85.6464L289.695 85.285L289.333 84.2009L288.249 83.4782L287.888 82.3941L286.804 81.6714L286.442 80.5873L285.72 80.2259L284.635 78.4191L283.551 78.0577V76.9736H282.829L282.106 75.5281L280.66 74.0827L278.131 71.1917L270.904 63.9644L269.097 62.8803L267.651 61.0734L265.844 59.9893L263.315 57.8211L262.953 57.0984L261.869 56.737L261.508 56.0143L260.063 55.2916L259.701 54.5688L257.533 53.8461V53.1234H256.81V52.4006L255.726 52.0393L255.365 51.3165L252.112 49.5097L248.499 46.9801H247.776V46.2574H246.692V45.5347L243.078 43.7278L241.271 43.0051V42.2824L238.019 41.1983V40.4755L235.49 39.3914L225.733 34.6937L220.312 32.5255H219.228V31.8027L214.169 29.9959L211.278 29.6345V28.9118L205.496 27.4663L202.605 27.105V26.3822L189.957 23.8527L189.596 23.4913L182.73 22.7686Z" fill="#0599B2"/>
<path d="M68.9 92.8721L67.0932 93.2334L66.3704 94.6789L64.2022 96.4857L62.034 99.0153V100.099L60.5886 100.822V101.906L59.5045 102.268V103.352L58.059 104.074V105.159L56.9749 105.52V106.604L55.8908 106.965L55.1681 108.049V109.134H54.4453V110.218L53.3612 110.579L51.9158 113.109V114.193L50.8317 114.554L46.1339 123.227L42.5202 130.816L37.8225 143.463L34.9315 154.304L33.4861 162.255L32.402 171.289L32.0406 177.793V192.609L33.1247 202.366L33.8474 207.064H34.5702L36.377 214.653L38.1838 219.712L38.9066 220.435L45.0498 214.291L47.5794 211.4L49.0248 210.316L54.8067 208.509L56.6135 206.703L61.3113 203.089L69.2614 198.753L79.0183 194.055L96.7253 186.466L98.8935 185.382L101.784 178.877L104.314 174.902L106.121 172.734L111.18 170.205V162.616L110.457 159.364L105.037 149.607L99.2548 139.488L95.6412 140.573L92.3889 140.211L88.0525 137.682L84.0774 134.429L80.4637 132.261L77.9342 129.37L75.0432 124.672L71.0682 116.361L69.2614 110.579L68.5386 107.327V101.545L70.3455 97.9312L69.2614 93.5948L68.9 92.8721Z" fill="#59E1E1"/>
<path d="M238.019 159.003L234.767 159.364L231.876 161.532L229.708 164.785L227.901 169.121L226.817 172.735L226.455 175.264V179.239L227.539 187.912L229.708 198.392L230.069 202.006V207.426H232.96L236.574 206.703H238.38L231.514 209.594L226.817 210.678L216.337 211.763L210.194 213.208L203.328 215.738L200.075 217.544L198.991 218.99L198.63 220.074V225.856L200.075 229.469L201.16 230.554L204.412 230.192L218.144 227.663L223.564 226.94L226.094 224.772L227.178 224.41L226.455 226.579L222.842 228.024L203.689 231.999L201.16 233.083L199.714 235.251L199.353 238.504L200.437 243.563L202.244 247.176L203.328 247.899L208.387 247.538L222.842 245.37L227.539 244.647L228.985 243.201L230.43 242.84L229.346 244.647L223.564 246.454L210.555 248.622L206.58 250.067L205.496 251.513L205.135 253.32L206.219 256.933L208.387 260.547L210.194 262.354L212.001 263.799L212.723 264.161H215.253L219.589 262.715L226.817 261.631L234.405 260.908L236.935 259.102L236.212 260.908L234.405 261.993L225.733 263.799L218.505 265.245L216.698 266.329L217.06 269.581L218.505 273.195L221.035 275.724L223.564 276.809L225.733 277.17H235.128L238.38 277.893L243.44 280.422L257.533 280.784L263.676 281.145L266.928 280.061L270.542 277.893L274.517 273.918L277.408 268.858L278.853 264.522L279.215 262.715V255.488L278.492 256.572L277.047 262.715L274.878 268.497L271.626 274.279L270.903 275.363L271.265 272.111L271.626 271.027L272.71 269.943V267.774L271.988 265.245H272.71L272.349 261.993V256.572L271.626 250.067L270.181 243.924L267.651 237.781L264.76 233.083L260.062 226.579L256.81 220.797L251.39 211.04L249.221 207.787L244.162 205.619L245.246 204.535L244.524 202.367L243.078 199.115L241.633 193.333L238.38 178.155L238.019 175.626V167.676L238.38 160.087L238.019 159.003Z" fill="#F4B492"/>
<path d="M136.837 8.67261H132.5L126.357 10.1181L119.13 13.009L111.541 16.984L107.204 20.2363L104.675 22.7659L101.423 27.1023L98.5317 31.8001L95.6407 37.9433L93.4725 45.1707V51.6753L94.918 61.7935L97.0862 71.9118L98.1703 75.1641L99.9771 74.4414L106.12 70.8277L115.877 65.7686L124.55 61.7935L133.946 58.1799L143.341 55.2889L151.653 53.4821L158.157 52.7594H175.141L181.646 53.4821L185.621 53.8435L185.26 52.0366L179.839 40.1115L173.696 27.8251L171.166 23.85L167.553 20.2363L163.939 17.7068L158.88 14.8158L151.653 11.9249L145.509 10.1181L136.837 8.67261Z" fill="#F4614C"/>
<path d="M34.5699 205.978H34.2085V208.869L34.9312 212.482H35.654V215.373L38.1835 224.046L39.9904 229.467H40.7131L41.0745 231.996L44.3268 239.585L47.2177 245.367H47.9404L48.3018 247.174L51.9155 253.317H52.6382V254.401H53.3609V255.485H54.0837L54.4451 256.931L54.8064 257.653H55.5292L55.8905 259.099H56.6133V260.183H57.336L58.0587 261.99L59.1428 263.435H59.8656L60.2269 264.881L62.0338 266.687L62.3951 267.41H63.1179V272.831H66.0088L66.3702 272.108L71.7907 277.528H72.8748V278.613H73.9589L74.6816 280.058L75.7657 281.142L76.8498 281.503L78.6566 283.672L81.9089 286.201H82.993V286.924L84.0771 287.285L84.4385 288.008H85.5226L86.2453 289.454L92.3886 293.429L98.5318 297.042L100.339 297.765L103.23 299.572H104.675V300.295L114.793 304.631L125.634 308.245L134.307 310.413L145.871 312.22L154.905 312.942H166.469L175.503 312.22L185.26 310.774L196.101 308.245L201.883 306.438V305.715L205.135 305.354L214.531 301.379L219.59 298.849L226.456 295.235L228.263 294.151V293.429H229.347V292.706L231.153 292.344L237.297 288.008L237.658 286.924H238.742V286.201H235.129L231.876 286.563L225.372 290.176L214.892 295.235L205.135 298.849L208.387 291.622L213.085 278.974L213.808 276.444L211.64 271.747L211.278 270.301L208.387 269.217L206.942 272.108L203.328 280.781L199.353 289.454L195.017 298.488L193.571 301.379V302.101L191.403 302.463L191.764 301.017L195.74 291.983L200.076 282.226L206.219 268.133L204.051 265.603L201.883 262.351L199.715 257.653L198.63 259.099L193.571 269.578L188.512 279.335L183.453 288.008L180.562 293.067L175.142 301.74L172.973 304.992H152.737L145.871 304.27L136.837 302.824L127.441 300.656L116.962 297.404L109.734 294.513L100.339 290.176L92.0272 285.479L85.5226 281.142L79.7407 276.806L73.9589 272.108L69.2611 267.772L66.3702 264.881L66.0088 261.99V258.015L65.2861 257.292H63.4792L63.1179 257.653L62.7565 260.906L59.8656 257.653L55.1678 251.51L51.9155 246.812L46.495 237.778L42.5199 229.828L37.4608 217.18L35.2926 208.869L34.5699 205.978Z" fill="#F5F8F7"/>
<path d="M277.047 230.913L275.241 231.275L274.879 232.72L277.77 235.972L280.661 240.309L283.552 241.393L291.141 243.561L296.561 245.729L300.536 247.898L301.259 248.62L298.007 247.536L294.754 247.175L283.552 246.813L283.191 247.536L284.275 251.873V259.1L282.829 264.882L279.577 271.025L275.602 275.723L273.795 277.53L274.157 278.975L277.77 281.866L282.468 285.841L287.527 289.816L292.586 293.43L299.452 296.682L303.789 297.766H308.486L312.461 296.682L316.798 294.514L319.327 292.346L320.411 289.816L319.689 285.118L318.605 267.773L317.521 259.823L316.075 255.125L313.546 252.234L309.932 249.704L305.234 246.813L296.2 241.754L291.864 239.586L283.552 234.888L277.047 230.913Z" fill="#F5B593"/>
<path d="M149.486 23.4893H142.258L137.561 24.9347L134.67 26.3802L130.333 29.6325L127.804 33.2462L126.358 36.8598V39.7508L127.804 42.6417L131.056 45.1713L136.477 46.9781L140.09 47.3395H143.704L149.124 46.6167L154.184 45.1713L158.881 42.6417L160.327 41.5576V40.8349L161.772 40.1121L163.579 36.4985V33.2462L161.772 29.6325L158.881 27.1029L153.822 24.5734L149.486 23.4893Z" fill="#F1E6DD"/>
<path d="M169.36 55.6501L159.241 56.0115L151.653 57.0956L140.089 59.9865L129.609 63.2389L117.684 67.5753L108.289 71.5503L102.145 74.8026L99.6159 76.9708V77.3322L103.591 76.9708L130.693 72.6344L135.391 71.1889L147.678 67.2139L158.157 64.6843L167.914 62.8775L178.394 61.7934L185.26 61.432H193.933L202.605 61.7934L201.16 61.0706L188.151 57.8183L179.478 56.3729L169.36 55.6501Z" fill="#F4614C"/>
<path d="M110.818 178.156L108.288 180.324L106.12 183.937L105.758 185.021V188.274L107.927 192.249L111.179 196.585L114.431 200.56L119.129 205.981L122.381 209.594L124.911 212.485L128.163 216.099L131.054 219.713L132.138 220.074L135.391 216.099L138.281 213.569L141.895 210.317L147.316 207.065H154.543L152.736 205.619L144.063 203.813L136.836 201.283L130.331 198.392L126.356 195.862L121.659 191.887L119.129 188.997L114.793 183.937L111.54 179.24L110.818 178.156Z" fill="#F4614C"/>
<path d="M199.715 257.656L198.631 259.102L193.572 269.582L188.513 279.339L183.453 288.011L180.562 293.07L175.142 301.743L173.335 304.996L174.058 305.357L185.26 303.911L191.042 302.827L192.488 299.214L198.631 285.482L205.135 270.666L206.219 267.775L203.329 264.884L200.438 259.102L199.715 257.656Z" fill="#F4614C"/>
<path d="M209.833 69.3821H206.942L208.387 70.1048L218.867 74.4412L227.901 79.139L234.406 83.114L241.272 87.8118L246.331 91.7868L251.029 95.7619L255.365 100.098L258.979 103.351L261.508 106.242L265.483 110.939L268.736 115.276L271.988 119.973L275.24 125.033L277.408 129.008L279.938 133.344L281.745 136.958L283.552 141.655H283.913L283.552 138.765L279.938 129.73L278.492 126.478H277.77L277.408 124.31L274.517 118.889H273.795L273.072 116.36H272.349L271.988 114.553H271.265V113.469H270.542L270.181 111.662L269.097 111.301L268.736 109.494L267.651 109.132V108.048H266.929L266.567 106.603L264.761 104.073L264.038 103.712L262.592 101.182L261.147 100.46L260.785 99.0142L258.979 97.5687L257.895 95.7619L256.088 94.3164L255.726 93.2323H255.004L254.281 91.7868L252.474 89.98H251.751L251.029 88.5345L249.944 88.1732V87.4504L248.86 87.0891L246.692 84.5595H245.608L244.885 83.114L243.801 82.7527V82.0299L241.633 80.9458L240.188 79.5004H239.465V78.7776L238.381 78.4163L238.019 77.6935H236.935L236.574 76.6094L235.49 75.8867H234.406L234.044 74.8026L232.237 74.4412V73.7185H231.153V72.9957H230.069V72.273L227.901 71.5503L225.733 72.6344L221.035 72.273L209.833 69.3821Z" fill="#F4FAFA"/>
<path d="M126.719 236.335H122.382L118.046 237.419L114.432 239.587L112.626 241.032L110.457 244.285L109.735 246.814L110.096 249.705L111.541 251.512L115.155 253.319L118.769 254.042H123.105L128.526 252.958L132.139 251.512L135.392 248.983L136.837 246.814L137.198 243.562L135.753 240.671L132.862 238.503L129.971 237.057L126.719 236.335Z" fill="#F1E6DC"/>
<path d="M182.37 177.432L180.924 177.793L180.202 177.432L176.227 179.239L176.588 183.937V192.248L175.143 196.946L171.529 202.366L168.999 207.426L170.445 206.703L174.059 204.173L176.588 203.089L180.202 203.451L189.959 205.98H190.681L190.32 196.946L189.236 189.719L186.345 183.937L182.37 177.432Z" fill="#F4614C"/>
<path d="M208.748 269.219L207.664 270.303L203.328 280.782L199.353 289.455L195.017 298.489L193.571 301.38V302.103L197.546 301.38L203.689 299.574L205.135 298.851L208.387 291.623L213.085 278.976L213.808 276.446L211.639 271.748L211.278 270.303L208.748 269.219Z" fill="#F4614C"/>
<path d="M188.152 128.645L179.117 129.368L161.049 131.536L153.46 131.898L149.485 132.62L148.04 134.066V134.789L165.747 133.704L178.033 132.259L184.177 131.175V135.511L180.202 135.873L169.361 137.318L164.301 137.679H159.242L153.099 136.957L149.124 136.234L149.847 137.679L154.183 140.209L158.881 141.654L163.579 142.377H174.058L180.924 140.932L185.983 138.402L187.429 136.595L188.152 130.813V128.645Z" fill="#020202"/>
<path d="M184.176 131.176L175.503 132.26L161.048 133.705L148.762 134.428L148.039 135.512L148.4 135.873H150.207V136.596L154.905 137.68L159.241 138.042H164.3L172.612 137.319L184.176 135.512V131.176Z" fill="#F3F7F6"/>
<path d="M98.5317 254.042L97.809 255.487L92.0271 272.472L88.0521 282.229V283.313L94.5567 287.288H95.2794L96.3635 281.145L97.809 267.774L98.5317 258.74V254.042Z" fill="#020202"/>
<path d="M145.148 87.4507H139.727L135.391 88.5348L132.5 89.9803L130.332 92.1485V93.9553L134.307 91.7871L135.752 91.4257V92.1485H139.366L139.005 93.2326L137.921 94.3167L133.223 94.678L134.307 95.4008L139.005 96.4849H142.618L146.232 95.7621L149.846 94.3167H152.375L152.737 92.8712L149.484 90.3416L148.039 88.5348L145.148 87.4507Z" fill="#020303"/>
<path d="M136.837 8.67261H132.5L126.357 10.1181L119.13 13.009L111.541 16.984L108.289 19.5136L108.65 20.2363L114.432 17.3454L121.659 14.4545L128.525 12.2863L134.668 11.2022L139.728 11.5635L150.569 14.0931L160.687 17.7068L167.553 21.3204L168.637 22.0432L167.914 20.5977L163.939 17.7068L158.88 14.8158L151.653 11.9249L145.509 10.1181L136.837 8.67261Z" fill="#F2EFEB"/>
<path d="M45.7718 259.823L43.6036 260.545L43.2422 261.268V272.832H46.1331V262.714H47.5786V272.832H50.4695L50.8309 263.075H51.1923L51.5536 272.832H54.4446V260.184H51.5536L51.1923 260.907L50.8309 260.184H48.3013L47.94 261.268H47.2172V260.545L45.7718 259.823Z" fill="#0599B2"/>
<path d="M171.528 85.2817H170.806L170.083 87.0886L169.722 90.7022L170.806 95.0386L176.226 105.518L178.756 111.662L180.563 115.275L180.201 117.443L178.756 119.25L176.588 121.057L177.31 121.418L180.924 119.973L183.815 117.805L185.983 115.275V113.468L184.899 112.384H184.176V115.637L183.454 115.275L183.092 113.107L179.84 105.88L178.033 101.543L173.335 93.5932L171.89 89.2568L171.528 85.2817Z" fill="#020202"/>
<path d="M309.57 118.889L306.679 119.251L306.318 129.007H305.595L305.234 119.251H302.343V133.705L303.427 135.512L303.788 135.873H309.209V133.344L305.595 132.621V131.537L306.318 131.898H308.847L309.57 130.092L309.931 119.612L309.57 118.889Z" fill="#0599B2"/>
<path d="M42.519 260.184H39.6281L39.2667 269.941H38.544L38.1826 260.184H35.2917V273.916L36.3758 276.445L37.4599 276.807H42.1577L41.7963 274.277L38.544 273.554V272.109L40.3508 273.193L41.7963 272.832L42.519 271.025V260.184Z" fill="#0599B2"/>
<path d="M185.26 82.7517H180.201L176.587 84.5585L176.226 85.2813H177.31V86.3654L175.865 87.0881L174.78 90.7018L174.058 92.1472L177.671 92.87H182.008L185.983 91.7859L187.79 90.3404L184.176 90.7018V88.5336L182.008 86.004H185.621L188.512 88.1722H189.235L188.874 86.004L186.706 84.1972L187.428 83.4744L185.26 82.7517Z" fill="#020202"/>
<path d="M13.6105 118.889L12.8877 119.973L11.8036 123.226L12.165 131.898H14.6946V131.176L17.2241 132.26L19.031 131.176L19.3923 130.092V127.201L17.9469 125.032L15.4173 123.226L15.0559 121.78H16.5014V123.587H19.3923L19.031 120.335L17.5855 119.251H13.9718L13.6105 118.889Z" fill="#0599B2"/>
<path d="M74.6815 211.038H72.1519L72.8747 211.761L76.8497 212.845L81.9089 215.374L85.5225 218.265L88.4135 221.156L92.3885 226.938L94.9181 232.358L96.0022 235.972H96.3635V232.72L94.5567 225.854L91.6658 220.433L87.6907 216.097L84.0771 213.567L80.8247 212.122L77.9338 211.399L74.6815 211.038Z" fill="#020202"/>
<path d="M57.3368 260.184L55.8914 261.629L55.53 262.352L55.1686 272.832H58.0596L58.4209 272.109L59.1437 272.832H61.6732L62.7573 271.025V268.495L62.0346 265.966L60.2278 264.52L59.8664 263.436H59.1437L58.4209 261.991L57.3368 260.184Z" fill="#0599B2"/>
<path d="M261.147 212.847L260.786 213.57L263.677 219.352L266.207 223.327L269.459 227.302L271.266 227.663L275.241 225.134V224.05L270.182 220.436L265.484 216.822L264.038 215.377H263.316V214.654L261.147 212.847Z" fill="#F4614C"/>
<path d="M174.419 267.051L173.335 268.135L169.721 273.555L163.578 282.589L157.796 290.901L153.099 297.767L149.485 302.464L148.401 304.633L149.846 304.994L152.737 301.38L155.628 297.405L159.603 291.623L164.662 284.035L169.36 276.446L174.419 267.773V267.051Z" fill="#020202"/>
<path d="M68.8999 92.8721L67.093 93.2334L66.3703 94.6789L64.2021 96.4857L62.0339 99.0153V100.099L60.5884 100.822V101.906L59.5043 102.268V103.352L58.0589 104.074V105.159L56.9748 105.52V106.604L55.8907 106.965L55.1679 108.049V109.134H54.4452V110.218L53.3611 110.579L51.9156 113.109V114.193L50.8315 114.554L47.2178 121.059L47.5792 122.143L50.4702 117.445L54.0838 112.747L56.9748 108.772L61.3112 103.713L63.118 101.545L64.9248 99.738L67.4544 97.5698L69.2612 95.763V93.5948L68.8999 92.8721Z" fill="#ECF7F8"/>
<path d="M71.4299 260.184L68.9003 260.545L67.4549 262.352L67.0935 265.966L68.1776 267.05H68.9003L69.6231 268.495L73.5981 272.109H73.9595V268.495L72.8754 266.688L70.3458 264.52L69.9844 262.713H71.4299L72.1526 264.159H73.9595L73.5981 261.629H72.8754L72.514 260.545L71.4299 260.184Z" fill="#F4614C"/>
<path d="M178.755 171.65L174.057 172.734L173.696 173.096V178.878H175.864L176.948 178.155L178.394 178.516L180.562 177.432L180.923 174.903L179.839 172.734L178.755 172.373V171.65Z" fill="#020202"/>
<path d="M90.5813 111.303H88.4131L86.2449 112.748L85.5222 113.471V115.278L86.9677 114.194L88.7745 114.555L91.6654 121.06L93.4723 122.505L96.0018 123.228L97.0859 124.673L96.7246 122.144L94.195 119.976L93.1109 118.891L92.3882 113.471L91.3041 111.664L90.5813 111.303Z" fill="#020202"/>
<path d="M128.526 162.255H127.803V162.978L129.61 164.062L133.585 166.953L141.535 172.012H141.897V166.953L131.778 163.339L128.526 162.255Z" fill="#040302"/>
<path d="M81.9085 101.907H79.0176L77.2108 102.991L76.1266 105.882V108.773L77.5721 113.47L78.2949 114.193L77.9335 108.411L78.6562 105.882L80.1017 104.798L81.9085 105.159L84.7995 107.327L86.9677 108.773L88.0518 108.411L84.7995 104.075L82.6313 102.268L81.9085 101.907Z" fill="#020202"/>
<path d="M279.215 255.488L278.492 256.572L277.047 262.715L274.878 268.497L271.626 274.279L270.903 275.363L270.181 275.002V276.808L272.349 276.086L275.24 272.833L278.131 267.052L279.215 262.715V255.488Z" fill="#F2B183"/>
<path d="M163.938 172.734H162.132V178.877H164.3L165.384 178.155L166.107 178.877H167.913L168.998 177.793L169.359 174.902L168.275 173.457L165.745 173.095L163.938 172.734Z" fill="#020202"/>
<path d="M237.658 215.013L236.936 215.736L237.297 218.627L239.827 221.879L241.633 224.77V227.3L239.104 230.552L238.742 232.72L239.827 235.611L242.717 238.502L243.44 238.141L241.633 235.25L241.272 232.359L243.079 227.661L242.717 224.048L240.188 219.711L238.381 216.82L237.658 215.013Z" fill="#020202"/>
<path d="M109.012 309.33H106.482L105.398 310.414L105.037 318.003H109.373L110.096 317.28V314.389L107.566 312.221L107.205 311.137H108.289V312.221H110.096V310.414L109.012 309.33Z" fill="#0599B2"/>
<path d="M271.627 74.4419H269.098L268.014 75.526L267.652 83.1147H271.989L272.711 82.7533V79.8624L271.266 78.0556L270.182 77.3328L269.82 76.2487H270.905V77.3328H273.073L272.35 75.1646L271.627 74.4419Z" fill="#0599B2"/>
<path d="M217.06 309.33L214.169 309.691L213.808 310.414L213.447 317.641L215.253 318.003H217.783L218.506 317.28V314.389L217.06 312.944L215.976 312.221L215.615 311.137H216.699V312.221H218.506V310.414L217.06 309.33Z" fill="#0599B2"/>
<path d="M54.8068 74.4419H52.2772L51.1931 75.526L50.8317 83.1147H55.1681L55.8909 82.7533V79.8624L54.4454 78.0556L53.3613 77.3328L52.9999 76.2487H54.084V77.3328H55.8909V75.526L54.8068 74.4419Z" fill="#0599B2"/>
<path d="M163.217 74.4419H160.687L159.603 75.526L159.242 83.1147H163.578L164.301 82.392V79.8624L162.855 78.0556L161.771 77.3328L162.133 76.6101L162.494 77.3328H164.301L163.939 75.1646L163.217 74.4419Z" fill="#F5B492"/>
<path d="M108.65 121.419L106.121 121.781L105.398 122.503L105.037 129.731L106.843 130.092H107.928L109.734 129.731L110.096 129.369V126.84L109.373 125.394L107.205 124.671V123.226H108.289L108.65 124.31H110.096V122.503L108.65 121.419Z" fill="#F5B492"/>
<path d="M145.51 168.035H144.787V174.178L149.123 176.347L149.485 169.119L145.51 168.035Z" fill="#020202"/>
<path d="M107.928 27.4636H107.205V28.1864L105.759 28.5477L105.398 30.7159V35.7751L106.843 36.1364V35.4137L109.373 35.7751L110.096 35.0523V32.8841L107.566 30.7159L107.205 29.2705L108.65 29.9932L110.096 29.6318L109.012 27.825L107.928 27.4636Z" fill="#F4614C"/>
<path d="M109.012 215.736H106.482L105.759 216.459L105.398 219.35V222.602L106.121 223.686L107.566 223.325L109.373 223.686L110.096 222.963V220.795L107.566 218.627L107.205 216.82L108.65 218.265L110.096 217.904L109.373 216.097L109.012 215.736Z" fill="#F4614C"/>
<path d="M158.519 171.65H157.074V178.516L160.326 179.239V178.516H161.049V172.373L158.519 171.65Z" fill="#020202"/>
<path d="M290.418 282.228L289.334 282.59L297.645 286.565L303.427 288.372L308.125 289.094H311.016L312.461 288.372L306.318 287.287L297.645 284.758L290.418 282.228Z" fill="#020202"/>
<path d="M162.133 262.352L160.326 263.075L159.603 264.159V270.663H161.41V267.05L162.494 267.411V269.218L161.771 269.579L162.494 271.025L163.939 270.663L164.301 269.941V267.773L161.41 265.243V264.159H162.855V264.882H164.301L163.939 263.075L162.133 262.352Z" fill="#F4614C"/>
<path d="M181.645 145.271L174.779 146.355L165.022 147.078L163.577 147.801L167.19 148.524H175.14L179.115 147.439L181.284 145.994L181.645 145.271Z" fill="#020202"/>
<path d="M214.169 29.9939L213.446 30.3553V36.1371H215.253H215.975H218.144L218.866 33.6076L218.505 32.5235L219.228 31.8007L214.169 29.9939Z" fill="#0599B2"/>
<path d="M144.426 88.8962L141.174 89.2576L143.342 91.7872V94.3167H145.872L148.763 93.2326L148.401 91.4258L146.594 89.2576L144.426 88.8962Z" fill="#F2F4F3"/>
<path d="M152.015 118.528L149.485 120.696L146.233 123.949V124.671H145.51L142.98 128.285L141.535 131.537V135.512L142.619 138.403L143.703 139.487L142.98 135.874V132.621L144.065 129.369L146.594 125.755L150.931 120.696L152.015 119.251V118.528Z" fill="#020202"/>
<path d="M185.621 85.644H182.007L181.646 86.3668L183.453 87.8122L183.814 88.535V91.0645L186.705 90.7032L188.512 89.9804V89.2577L189.957 88.8963H188.873L188.15 87.4509L185.621 85.644Z" fill="#F4F2ED"/>
<path d="M57.6978 254.764L57.3365 255.487L59.5047 258.739L61.3115 260.546L62.0342 261.63L63.8411 262.353L64.5638 263.437H65.2865L65.6479 264.521H66.0093V258.017L65.2865 257.294H63.4797L63.1183 257.655L62.757 260.908L59.866 257.655L57.6978 254.764Z" fill="#F4614C"/>
<path d="M310.655 121.419H310.293V131.899H313.184L313.546 129.008L311.739 124.671L310.655 121.419Z" fill="#0599B2"/>
<path d="M155.266 170.927H154.182V177.793L157.073 178.155V171.65L155.266 170.927Z" fill="#020202"/>
<path d="M185.259 82.7517H180.2L176.586 84.5585L176.225 85.2813H177.309V86.004L181.646 84.9199H187.066L186.705 84.1972L187.427 83.4744L185.259 82.7517Z" fill="#F5AE77"/>
<path d="M136.114 90.7039L131.778 92.8721L132.5 94.3175L133.223 94.6789H138.643L138.282 93.9562L139.366 93.2334V92.1493H135.753L136.114 90.7039Z" fill="#E3EEEE"/>
<path d="M172.613 173.095L169.722 173.457V178.877H172.613V173.095Z" fill="#020202"/>
<path d="M142.98 167.313H141.896V172.372L144.787 173.818V168.036L142.98 167.313Z" fill="#020202"/>
<path d="M167.191 118.528H163.577L162.493 119.612L165.746 120.696L169.359 121.058L171.889 120.696L171.166 119.974L167.191 118.528Z" fill="#020202"/>
<path d="M157.074 113.833L155.629 114.555L154.906 116.001L155.268 118.169L156.713 119.976L159.243 121.06H161.411L159.965 119.976L157.074 117.446L156.713 114.917L157.074 113.833Z" fill="#020202"/>
<path d="M244.885 252.958L244.163 254.042L243.801 256.933L245.608 261.269L247.054 264.16L247.776 265.244V261.992L245.247 256.933L244.885 254.403V252.958Z" fill="#020202"/>
<path d="M84.4393 120.697L84.0779 121.781L85.5234 123.588L88.0529 124.672H92.028L93.1121 123.949L92.028 123.226L86.9688 122.504L84.8006 121.058L84.4393 120.697Z" fill="#070402"/>
<path d="M133.585 238.865L132.862 239.226L133.585 240.671H134.308V241.394L135.753 241.755L136.114 245.369L135.753 247.537L134.308 248.26L133.223 249.344V250.067H132.501V250.79L134.308 250.067L136.476 247.537L137.198 245.369L136.837 242.478L135.392 240.31L133.585 238.865Z" fill="#F7D1BA"/>
<path d="M166.107 168.759H165.023V170.565L167.553 172.734L166.83 173.456L168.998 174.179V173.456H169.721V170.565L166.83 170.204L166.107 168.759Z" fill="#F6B794"/>
<path d="M152.015 99.0164L145.51 100.462L138.283 101.185V101.546L140.09 101.907H146.233L150.208 100.462L152.015 99.3777V99.0164Z" fill="#020202"/>
<path d="M160.327 28.187L159.604 28.5484L161.772 31.4393L162.495 33.6075L162.856 37.2212H162.134L160.327 40.1121L159.243 41.1962L160.327 41.5576V40.8349L161.772 40.1121L163.579 36.4985V33.2461L161.772 29.6325L160.327 28.187Z" fill="#F7CDB5"/>
<path d="M80.4634 112.022H80.102V116.359L80.8248 119.611L82.2702 121.779L82.6316 120.334L81.1861 113.468L80.4634 112.022Z" fill="#020202"/>
<path d="M160.687 15.9016L157.796 16.6243L163.578 19.1539L167.553 21.3221L168.637 22.0448L167.914 20.5994L163.939 17.7084L160.687 15.9016Z" fill="#F4E4D9"/>
<path d="M63.4798 267.774H63.1185V272.833H66.0094L66.3708 272.11L67.0935 272.472L66.3708 271.026L64.5639 269.219L63.4798 267.774Z" fill="#0599B2"/>
<path d="M154.183 170.565H152.376V177.07L154.183 177.793V170.565Z" fill="#0A0702"/>
<path d="M152.862 170.065H151.055V176.57L152.862 177.293V170.065Z" fill="#0A0702"/>
<path d="M151.999 169.491H148.263V175.957L151.999 176.676V169.491Z" fill="#0A0702"/>
<path d="M190.68 120.336L190.319 121.058L192.126 125.033L192.487 126.479V129.731L191.764 134.068L192.849 132.622L193.571 130.093V125.395L191.764 121.781L190.68 120.336Z" fill="#020202"/>
<path d="M250.306 94.6787H249.222L249.944 96.1242L252.113 97.5696L254.281 99.3765L256.449 101.906L258.256 103.713L260.063 105.158L259.34 103.352L254.642 98.6537L251.028 95.4014L250.306 94.6787Z" fill="#75D4DC"/>
<path d="M179.478 88.5352L176.587 88.8965L175.865 91.0647L176.226 91.4261H179.84L179.117 90.7034L180.201 89.6193V88.8965L179.478 88.5352Z" fill="#C0E4E7"/>
<path d="M145.509 168.035H144.786V174.178L146.593 174.54L146.231 168.397L145.509 168.035Z" fill="#050402"/>
<path d="M34.5693 205.978H34.2079V208.869L34.9307 212.482H35.6534V215.373L36.3761 218.264L37.0989 217.18L36.7375 214.651L34.5693 205.978Z" fill="#D8F2F4"/>
<path d="M116.6 238.503L114.793 239.226L112.625 241.033L110.457 244.285L109.734 246.815L110.095 249.706H110.457V247.176L110.818 245.008H111.541L112.986 242.117L114.071 241.033L115.516 240.31L116.6 238.503Z" fill="#F8D0B8"/>
<path d="M11.0823 125.396L10.3595 126.118L8.91407 130.816V131.9H11.0823V125.396Z" fill="#0599B2"/>
<path d="M144.786 85.2817H139.004L135.752 86.7272L136.475 87.0886L140.089 86.3658H145.148L148.039 86.7272L146.593 85.6431L144.786 85.2817Z" fill="#020202"/>
<path d="M118.768 15.1782L115.877 15.5396L112.986 16.9851L111.179 17.3464L108.288 19.5146L108.65 20.2374L114.432 17.3464L118.768 15.5396V15.1782Z" fill="#F2D7C4"/>
<path d="M213.809 71.9146H212.002L213.447 72.9987L217.784 74.8055L221.397 76.6123L222.12 76.251L221.036 75.1669L213.809 71.9146Z" fill="#76D4DC"/>
<path d="M225.009 77.334H224.286L224.648 78.4181L227.177 79.5022L232.237 82.7545L233.682 83.1159L233.321 82.0318L225.732 77.6954L225.009 77.334Z" fill="#76D3DC"/>
<path d="M158.159 171.65H157.075V178.516H158.159V171.65Z" fill="#020202"/>
<path d="M189.235 95.0381L179.478 96.4836L180.562 97.2063H184.537L188.874 95.7608L189.235 95.0381Z" fill="#020202"/>
<path d="M185.259 82.7517H180.2L176.586 84.5585L176.225 85.2813L178.032 84.5585L180.562 83.8358H187.427L186.705 83.1131L185.259 82.7517Z" fill="#020202"/>
<path d="M241.272 87.4507L240.188 87.8121L244.524 91.4257L246.331 92.5098L248.86 94.3167L248.138 92.8712L242.717 88.5348L241.272 87.4507Z" fill="#75D4DC"/>
<path d="M69.6227 94.6787L69.2614 95.7628L67.8159 96.4855L66.0091 98.2924L63.4795 101.183L63.8409 101.906L64.925 100.822V100.099H65.6477L67.4545 98.2924L68.5386 96.8469H69.2614L70.3455 97.931L69.6227 94.6787Z" fill="#71CFD9"/>
<path d="M73.2373 196.221L69.985 196.944L68.1782 198.39L64.5645 200.196V200.919L66.3713 200.196L73.2373 196.583V196.221Z" fill="#6BC3D2"/>
<path d="M136.836 245.368H136.114L135.752 247.536L134.307 248.259L133.223 249.343V250.065H132.5V250.788L134.307 250.065L136.475 247.536L136.836 245.368Z" fill="#F8D3BD"/>
<path d="M269.82 116.363H269.097L269.82 117.808L270.181 118.892H270.904L271.627 120.699L273.433 123.229L273.795 122.145L270.904 117.808L269.82 116.363Z" fill="#78D3DC"/>
<path d="M103.592 175.264L102.508 175.626L102.147 177.071H101.424L101.062 179.239L99.9784 179.601L99.617 181.407L100.701 181.046L103.592 175.987V175.264Z" fill="#73C7D5"/>
<path d="M84.4384 134.79L83.7157 135.151L86.968 138.042L88.0521 137.681L84.4384 134.79ZM88.7748 138.042L88.0521 138.404L90.2203 140.211L91.6658 140.572V139.849L88.7748 138.042Z" fill="#63C3D1"/>
<path d="M205.858 68.6614H203.328V69.0227L205.497 69.7455L209.11 71.1909L210.556 70.8296L208.026 69.3841V69.0227L205.858 68.6614Z" fill="#77D0DA"/>
<path d="M163.939 17.7085H163.216L163.578 19.154L167.553 21.3222L168.637 22.0449L167.914 20.5994L163.939 17.7085Z" fill="#E8D8CA"/>
<path d="M65.6471 264.159V265.244L69.2608 268.857L69.9835 270.664L71.429 269.941L68.8994 267.05L66.0085 264.521L65.6471 264.159Z" fill="#F5E5D9"/>
<path d="M219.951 181.045H219.589V185.02H214.169V185.381L220.312 185.743L219.951 181.045Z" fill="#55B9CB"/>
<path d="M101.423 143.464L101.061 144.186L102.868 148.161L104.675 150.691L105.398 150.33L101.423 143.464Z" fill="#67C3D2"/>
<path d="M82.6325 278.975L81.9098 279.336L82.6325 280.782L84.8007 281.866L86.6075 282.95L87.6917 282.589L82.6325 278.975Z" fill="#F3D9C9"/>
<path d="M57.6975 254.764L57.3361 255.487L59.5043 258.739L62.3953 261.63L62.0339 260.185L57.6975 254.764Z" fill="#F4D6C4"/>
<path d="M208.025 254.042L207.663 255.487L209.832 259.824L210.916 260.547L210.193 258.378L208.025 254.042Z" fill="#020202"/>
<path d="M50.4707 115.998L49.0252 117.805L47.2184 121.057L47.5798 122.141L50.4707 117.443V115.998Z" fill="#C7EDF0"/>
<path d="M261.148 105.52L260.425 105.881L262.232 108.41L264.039 110.217L265.484 111.301L264.762 109.856L261.509 105.881L261.148 105.52Z" fill="#75D4DC"/>
<path d="M86.9697 190.08L84.4402 190.802L81.9106 191.886L79.7424 192.971L80.1038 193.693L86.6084 190.802L86.9697 190.08Z" fill="#67C1D0"/>
<path d="M99.978 181.767L98.8939 182.851L97.8098 185.019L95.6416 185.742V186.465L94.9189 186.826L96.7257 186.465L98.8939 185.381L99.978 182.851V181.767Z" fill="#67C1D0"/>
<path d="M176.949 172.734H176.588V176.348H178.033V174.18L176.949 172.734Z" fill="#0F0902"/>
<path d="M266.206 111.663L265.483 112.024L266.567 113.831H267.29L268.013 115.638L269.097 115.999L268.374 114.193L266.206 111.663Z" fill="#78D3DC"/>
<path d="M165.746 173.095H165.024V176.348L165.746 176.709L166.469 176.348V174.179L165.746 173.095Z" fill="#090602"/>
<path d="M106.121 151.774L105.76 153.22L108.651 157.918L109.374 157.556L106.121 151.774Z" fill="#64C1D0"/>
<path d="M185.621 85.644H182.007L181.646 86.3668L183.814 87.8122H184.898L184.537 86.7281L183.814 87.0895L184.537 86.3668L185.621 85.644Z" fill="#CEE1DE"/>
<path d="M163.217 36.8589L162.133 37.2203L160.326 40.1112L159.242 41.1953L160.326 41.5567V40.8339L161.772 40.1112L163.217 37.5816V36.8589Z" fill="#F7D1BB"/>
<path d="M125.635 165.144L125.273 165.867L128.164 170.926L129.249 171.649L128.526 169.842L127.08 167.312L125.635 165.144Z" fill="#AB6402"/>
<path d="M59.1433 106.606L57.6978 107.329L55.1683 110.581L55.5296 111.304L56.6137 110.22V109.497L58.0592 108.775L58.4206 107.329H59.1433V106.606Z" fill="#75D4DC"/>
<path d="M270.904 170.204H269.82L270.181 171.65L272.349 173.456L272.711 172.372L272.349 171.288H270.904V170.204Z" fill="#85CDDA"/>
<path d="M141.897 23.8494L138.283 24.5721L135.392 26.0176V26.3789H137.922V25.6562L141.897 24.2107V23.8494Z" fill="#F7CCB4"/>
<path d="M121.66 298.852L120.215 299.213L121.299 299.936L125.997 301.02L127.442 300.658L121.66 298.852Z" fill="#F4D6C4"/>
<path d="M235.489 83.4749L234.405 83.8362L238.38 86.7272H239.464L237.658 84.9203L235.489 83.4749Z" fill="#77D3DC"/>
<path d="M58.7809 267.051H58.4195V270.303L59.865 269.941L59.5036 267.773L58.7809 267.051Z" fill="#0599B2"/>
<path d="M272.349 267.412H271.627L271.265 271.026L272.349 270.664L272.711 269.941V267.773L272.349 267.412Z" fill="#020202"/>
<path d="M111.902 243.563H110.818L109.734 246.816L110.095 249.707H110.457V247.177L110.818 245.009H111.541L111.902 243.563Z" fill="#F7CDB4"/>
<path d="M15.4183 126.117H15.057V129.008H16.5024V127.201L15.4183 126.117Z" fill="#0599B2"/>
<path d="M158.879 14.8162L156.711 15.1775L157.795 16.2616L160.325 16.623L159.963 15.5389L158.879 14.8162Z" fill="#EDF5F4"/>
<path d="M34.2097 200.559L33.4869 202.005V204.896L34.2097 205.618L34.571 202.366L34.2097 200.559Z" fill="#AAE1E8"/>
<path d="M59.1428 263.075H58.4201L58.7815 264.882L60.2269 265.243V265.966L61.311 266.327L59.8656 263.437L59.1428 263.075Z" fill="#089BB3"/>
<path d="M142.258 91.4263L141.173 91.7876L141.535 93.2331L140.812 94.6786L142.258 94.3172L142.619 93.9558V91.7876L142.258 91.4263Z" fill="#099BB3"/>
<path d="M183.092 88.1738H182.007L181.646 90.7034L180.923 91.4261L182.73 91.0648L183.453 89.2579L183.092 88.1738Z" fill="#099BB3"/>
</svg>
