<svg width="58" height="40" viewBox="0 0 58 40" fill="none" xmlns="http://www.w3.org/2000/svg">
<rect x="0.5" y="0.5" width="57" height="39" rx="5.5" fill="white"/>
<rect x="0.5" y="0.5" width="57" height="39" rx="5.5" stroke="#F2F4F7"/>
<path fill-rule="evenodd" clip-rule="evenodd" d="M28.6316 28.0486C26.6582 29.712 24.0984 30.7161 21.3011 30.7161C15.0597 30.7161 10 25.7167 10 19.5495C10 13.3823 15.0597 8.38281 21.3011 8.38281C24.0984 8.38281 26.6582 9.38698 28.6316 11.0504C30.605 9.38698 33.1649 8.38281 35.9621 8.38281C42.2036 8.38281 47.2632 13.3823 47.2632 19.5495C47.2632 25.7167 42.2036 30.7161 35.9621 30.7161C33.1649 30.7161 30.605 29.712 28.6316 28.0486Z" fill="#ED0006"/>
<path fill-rule="evenodd" clip-rule="evenodd" d="M28.6318 28.0486C31.0617 26.0004 32.6025 22.9527 32.6025 19.5495C32.6025 16.1462 31.0617 13.0986 28.6318 11.0504C30.6053 9.38697 33.1651 8.38281 35.9623 8.38281C42.2038 8.38281 47.2635 13.3823 47.2635 19.5495C47.2635 25.7167 42.2038 30.7161 35.9623 30.7161C33.1651 30.7161 30.6053 29.712 28.6318 28.0486Z" fill="#F9A000"/>
<path fill-rule="evenodd" clip-rule="evenodd" d="M28.6318 28.0489C31.0616 26.0007 32.6024 22.9531 32.6024 19.5498C32.6024 16.1466 31.0616 13.099 28.6318 11.0508C26.2019 13.099 24.6611 16.1466 24.6611 19.5498C24.6611 22.9531 26.2019 26.0007 28.6318 28.0489Z" fill="#FF5E00"/>
</svg>
