<svg width="439" height="377" viewBox="0 0 439 377" fill="none" xmlns="http://www.w3.org/2000/svg">
<path d="M385.693 174.73C385.693 219.257 367.506 259.394 338.344 288.243C309.81 316.779 270.3 334.026 226.713 334.026C183.44 334.026 143.93 316.466 115.082 288.243C85.9196 259.394 67.7324 219.257 67.7324 174.73C67.7324 86.6162 138.913 15.4355 226.713 15.4355C314.512 15.4355 385.693 86.9298 385.693 174.73Z" fill="#EAEEF9"/>
<path d="M371.896 70.3144C378.998 70.3144 384.752 64.5585 384.752 57.458C384.752 50.3575 378.998 44.6016 371.896 44.6016C364.796 44.6016 359.039 50.3575 359.039 57.458C359.039 64.5585 364.796 70.3144 371.896 70.3144Z" fill="#EAEEF9"/>
<path d="M390.71 20.1342C395.561 20.1342 399.49 16.2033 399.49 11.3542C399.49 6.50517 395.561 2.57422 390.71 2.57422C385.862 2.57422 381.93 6.50517 381.93 11.3542C381.93 16.2033 385.862 20.1342 390.71 20.1342Z" fill="#EAEEF9"/>
<path d="M72.7498 70.0014C77.5989 70.0014 81.5299 66.0705 81.5299 61.2214C81.5299 56.3723 77.5989 52.4414 72.7498 52.4414C67.9008 52.4414 63.9698 56.3723 63.9698 61.2214C63.9698 66.0705 67.9008 70.0014 72.7498 70.0014Z" fill="#EAEEF9"/>
<path d="M19.1292 239.324C28.1346 239.324 35.4349 232.024 35.4349 223.019C35.4349 214.013 28.1346 206.713 19.1292 206.713C10.1238 206.713 2.82349 214.013 2.82349 223.019C2.82349 232.024 10.1238 239.324 19.1292 239.324Z" fill="#EAEEF9"/>
<g filter="url(#filter0_d_8173_23939)">
<path d="M368.82 83.4283V257.162C368.82 264.393 363.031 270.122 355.935 270.122H94.2449C87.1494 270.122 81.2675 264.299 81.2675 257.162V83.4283C81.2675 76.2911 87.056 70.4688 94.2449 70.4688H355.935C363.031 70.4688 368.82 76.2911 368.82 83.4283Z" fill="url(#paint0_linear_8173_23939)"/>
</g>
<path d="M368.82 83.4283V102.868H81.2673V83.4283C81.2673 76.2911 87.0559 70.4688 94.2448 70.4688H355.935C363.031 70.4688 368.82 76.2911 368.82 83.4283Z" fill="#D5DDEA"/>
<path d="M99.3796 91.5048C102.061 91.5048 104.234 89.3186 104.234 86.6215C104.234 83.9245 102.061 81.7383 99.3796 81.7383C96.6982 81.7383 94.5245 83.9245 94.5245 86.6215C94.5245 89.3186 96.6982 91.5048 99.3796 91.5048Z" fill="#989FB0"/>
<path d="M115.251 91.5048C117.932 91.5048 120.106 89.3186 120.106 86.6215C120.106 83.9245 117.932 81.7383 115.251 81.7383C112.57 81.7383 110.396 83.9245 110.396 86.6215C110.396 89.3186 112.57 91.5048 115.251 91.5048Z" fill="#989FB0"/>
<path d="M131.029 91.5048C133.71 91.5048 135.884 89.3186 135.884 86.6215C135.884 83.9245 133.71 81.7383 131.029 81.7383C128.348 81.7383 126.174 83.9245 126.174 86.6215C126.174 89.3186 128.348 91.5048 131.029 91.5048Z" fill="#989FB0"/>
<path d="M141.299 221.193H308.788" stroke="#D5DDEA" stroke-width="6.27143" stroke-miterlimit="10" stroke-linecap="round" stroke-linejoin="round"/>
<path d="M167.72 239.123H282.368" stroke="#D5DDEA" stroke-width="6.27143" stroke-miterlimit="10" stroke-linecap="round" stroke-linejoin="round"/>
<path d="M197.035 170.669V180.342H191.153V189.639H180.137V180.342H155.863V169.26L178.363 137.801H191.247V170.763H197.035V170.669ZM180.137 150.666L166.133 170.669H180.137V150.666Z" fill="url(#paint1_linear_8173_23939)"/>
<path d="M224.67 190.668C212.906 190.668 202.543 180.338 202.543 163.622C202.543 146.906 212.813 136.576 224.67 136.576C236.527 136.576 246.796 146.906 246.796 163.622C246.796 180.338 236.527 190.668 224.67 190.668ZM224.67 180.714C230.178 180.714 235.686 175.173 235.686 163.716C235.686 152.259 230.178 146.718 224.67 146.718C219.162 146.718 213.653 152.259 213.653 163.716C213.653 175.173 219.162 180.714 224.67 180.714Z" fill="url(#paint2_linear_8173_23939)"/>
<path d="M294.317 170.669V180.342H288.436V189.639H277.419V180.342H253.145V169.26L275.645 137.801H288.529V170.763H294.317V170.669ZM277.326 150.666L263.321 170.669H277.326V150.666Z" fill="url(#paint3_linear_8173_23939)"/>
<path d="M356.104 308.479L293.558 245.982L307.897 231.643L370.394 294.19L356.104 308.479Z" fill="#858B9B"/>
<path d="M377.847 330.468L329.887 282.507C325.882 278.502 325.882 271.976 329.887 267.97C333.891 263.966 340.419 263.966 344.424 267.97L392.384 315.931C396.389 319.936 396.389 326.464 392.384 330.468C388.38 334.473 381.852 334.473 377.847 330.468Z" fill="#858B9B"/>
<path d="M374.436 333.539L312.729 271.832C311.295 270.398 311.295 268.074 312.729 266.591L328.5 250.818C329.937 249.384 332.26 249.384 333.743 250.818L395.451 312.524C396.884 313.96 396.884 316.284 395.451 317.767L379.678 333.539C378.192 334.972 375.869 334.972 374.436 333.539Z" fill="url(#paint4_linear_8173_23939)"/>
<path d="M222.752 44.6016C157.288 44.6016 104.234 97.6556 104.234 163.12C104.234 228.535 157.288 281.639 222.703 281.639C288.168 281.639 341.222 228.585 341.222 163.12C341.222 97.6556 288.168 44.6016 222.752 44.6016ZM222.752 259.686C170.193 259.686 127.621 216.421 127.621 163.071C127.621 109.72 170.193 66.5055 222.752 66.5055C275.312 66.5055 317.883 109.77 317.883 163.12C317.883 216.471 275.263 259.686 222.752 259.686Z" fill="url(#paint5_linear_8173_23939)"/>
<defs>
<filter id="filter0_d_8173_23939" x="12.2817" y="35.9759" width="425.524" height="337.624" filterUnits="userSpaceOnUse" color-interpolation-filters="sRGB">
<feFlood flood-opacity="0" result="BackgroundImageFix"/>
<feColorMatrix in="SourceAlpha" type="matrix" values="0 0 0 0 0 0 0 0 0 0 0 0 0 0 0 0 0 0 127 0" result="hardAlpha"/>
<feOffset dy="34.4929"/>
<feGaussianBlur stdDeviation="34.4929"/>
<feColorMatrix type="matrix" values="0 0 0 0 0.397708 0 0 0 0 0.47749 0 0 0 0 0.575 0 0 0 0.27 0"/>
<feBlend mode="normal" in2="BackgroundImageFix" result="effect1_dropShadow_8173_23939"/>
<feBlend mode="normal" in="SourceGraphic" in2="effect1_dropShadow_8173_23939" result="shape"/>
</filter>
<linearGradient id="paint0_linear_8173_23939" x1="224.95" y1="65.8508" x2="224.95" y2="272.274" gradientUnits="userSpaceOnUse">
<stop stop-color="#FDFEFF"/>
<stop offset="0.9964" stop-color="#ECF0F5"/>
</linearGradient>
<linearGradient id="paint1_linear_8173_23939" x1="247.299" y1="136.58" x2="257.644" y2="190.672" gradientUnits="userSpaceOnUse">
<stop stop-color="#B0BACC"/>
<stop offset="1" stop-color="#969EAE"/>
</linearGradient>
<linearGradient id="paint2_linear_8173_23939" x1="247.299" y1="136.576" x2="257.644" y2="190.668" gradientUnits="userSpaceOnUse">
<stop stop-color="#B0BACC"/>
<stop offset="1" stop-color="#969EAE"/>
</linearGradient>
<linearGradient id="paint3_linear_8173_23939" x1="247.299" y1="136.58" x2="257.644" y2="190.672" gradientUnits="userSpaceOnUse">
<stop stop-color="#B0BACC"/>
<stop offset="1" stop-color="#969EAE"/>
</linearGradient>
<linearGradient id="paint4_linear_8173_23939" x1="311.615" y1="292.187" x2="396.539" y2="292.187" gradientUnits="userSpaceOnUse">
<stop stop-color="#B0BACC"/>
<stop offset="1" stop-color="#969EAE"/>
</linearGradient>
<linearGradient id="paint5_linear_8173_23939" x1="104.126" y1="163.146" x2="341.266" y2="163.146" gradientUnits="userSpaceOnUse">
<stop stop-color="#B0BACC"/>
<stop offset="1" stop-color="#969EAE"/>
</linearGradient>
</defs>
</svg>
