<svg width="170" height="170" viewBox="0 0 170 170" fill="none" xmlns="http://www.w3.org/2000/svg">
<g clip-path="url(#clip0_8458_40280)">
<path d="M170 85C170 131.945 131.945 170 85 170C70.7681 170 57.3557 166.503 45.5739 160.325C41.5764 158.225 37.7516 155.812 34.1355 153.108C32.2575 151.704 30.4389 150.223 28.6845 148.667C11.0918 133.096 0 110.343 0 85C0 38.0551 38.0551 0 85 0C131.945 0 170 38.0551 170 85Z" fill="#FFE152"/>
<path d="M126.876 149.272V158.984C118.243 163.885 108.811 167.224 99.0168 168.846C96.863 169.204 94.6962 169.478 92.5213 169.669C91.1583 169.791 89.7847 169.878 88.3995 169.929C87.2726 169.977 86.1377 169.998 85.0001 169.998C82.4608 169.998 79.9523 169.888 77.471 169.669C65.3879 168.613 53.6735 164.969 43.124 158.984V149.272C43.124 134.66 53.0474 122.364 66.5256 118.759C68.36 118.267 70.2354 117.943 72.1286 117.791C72.9819 117.721 73.8419 117.688 74.7138 117.688H95.2841C97.5835 117.688 99.8247 117.93 101.983 118.398C102.472 118.501 102.957 118.618 103.439 118.748C103.45 118.752 103.458 118.752 103.468 118.756C106.976 119.696 110.294 121.235 113.276 123.307C121.495 129.012 126.876 138.514 126.876 149.272V149.272Z" fill="#3D4159"/>
<path d="M103.544 118.398L103.468 118.756L92.521 169.669C90.044 169.888 87.5329 169.998 84.9998 169.998C82.4604 169.998 79.9519 169.888 77.4707 169.669L66.5256 118.759L66.4492 118.398H103.544Z" fill="#F2F0EC"/>
<path d="M93.4785 129.084L84.9988 142.684L76.519 129.084" fill="#F74F4F"/>
<path d="M92.8272 169.639C90.225 169.879 87.6131 170 84.9999 169.999C82.3592 169.999 79.7471 169.878 77.1699 169.642L84.9999 139.146L92.8272 169.639Z" fill="#F74F4F"/>
<path d="M84.9962 130.619L70.7759 138.522L66.4492 118.4L75.2856 113.195M84.9962 130.619L99.2177 138.522L103.543 118.4L94.7067 113.195" fill="#D8D5D0"/>
<path d="M113.276 121.573L104.081 145.553H108.592L99.0165 168.846C96.8627 169.204 94.6959 169.478 92.521 169.669C91.158 169.79 89.7844 169.877 88.3991 169.929L103.544 116.664L113.276 121.573ZM56.6138 121.573L65.8067 145.553H61.2971L70.8729 168.846C73.0262 169.204 75.1926 169.478 77.3671 169.669C78.73 169.79 80.105 169.877 81.4889 169.929L66.4489 117.014L56.6138 121.573Z" fill="#2A2F4F"/>
<path d="M96.2686 105.52V119.351C96.2686 124.414 92.9301 128.694 88.3308 130.116C87.2509 130.451 86.1267 130.62 84.9962 130.619C78.7719 130.619 73.728 125.575 73.728 119.351V105.52L96.2686 105.52Z" fill="#EAB599"/>
<path d="M96.2686 118.476V119.351C96.2686 124.415 92.93 128.695 88.3307 130.117C84.1817 128.842 81.0626 125.233 80.4865 120.82C81.2389 120.865 81.9963 120.888 82.7563 120.888C84.8886 120.888 86.9794 120.72 89.0144 120.385C91.4889 119.987 93.9188 119.348 96.2686 118.476ZM54.0837 82.8539C54.0837 88.0705 50.272 92.3972 45.2809 93.2C44.7259 93.2895 44.1646 93.3342 43.6025 93.3338C37.8129 93.3338 33.1216 88.6439 33.1216 82.8539C33.1216 77.064 37.8129 72.373 43.6025 72.373C44.1746 72.373 44.736 72.4195 45.2809 72.5079C50.2717 73.3107 54.0837 77.6361 54.0837 82.8539Z" fill="#F6CAAE"/>
<path d="M54.0835 82.8539C54.0835 88.0704 50.2718 92.3972 45.2807 93.2C44.3553 89.8293 43.8876 86.3494 43.8901 82.8539C43.8901 79.2729 44.3742 75.8036 45.2807 72.5078C50.2715 73.3107 54.0835 77.636 54.0835 82.8539Z" fill="#EAB599"/>
<path d="M47.3482 82.8531C47.3482 84.9216 45.6711 86.5987 43.6022 86.5987C41.5337 86.5987 39.8569 84.922 39.8569 82.8534C39.8569 80.7845 41.5337 79.1074 43.6022 79.1074C45.6708 79.1074 47.3482 80.7842 47.3482 82.8531Z" fill="#EAB599"/>
<path d="M115.913 82.8539C115.913 88.0705 119.723 92.3972 124.714 93.2C125.26 93.2884 125.82 93.3338 126.393 93.3338C132.183 93.3338 136.873 88.6439 136.873 82.8539C136.873 77.064 132.183 72.373 126.393 72.373C125.82 72.373 125.26 72.4195 124.714 72.5079C119.723 73.3107 115.913 77.6361 115.913 82.8539Z" fill="#F6CAAE"/>
<path d="M115.913 82.8539C115.913 88.0704 119.723 92.3972 124.714 93.2C125.64 89.8293 126.108 86.3494 126.106 82.8539C126.106 79.2729 125.622 75.8036 124.714 72.5078C119.723 73.3107 115.913 77.636 115.913 82.8539Z" fill="#EAB599"/>
<path d="M123.993 62.4352V77.2843C123.993 96.6885 109.816 112.787 91.2553 115.774L91.0647 115.805C89.0904 116.12 87.0647 116.277 84.9958 116.277C63.4619 116.277 46.0044 98.8182 46.0044 77.2843V62.4349C46.0044 57.9006 46.7774 53.5427 48.2064 49.4946C53.5398 34.3185 68.0001 23.4395 84.9958 23.4395H84.9998C87.0647 23.4395 89.0931 23.5988 91.071 23.9116C109.723 26.8258 123.993 42.9642 123.993 62.4349L123.993 62.4352Z" fill="#EAB599"/>
<path d="M130.14 82.8531C130.14 84.9216 128.462 86.5987 126.394 86.5987C124.325 86.5987 122.648 84.922 122.648 82.8534C122.648 80.7845 124.325 79.1074 126.394 79.1074C128.462 79.1074 130.139 80.7842 130.139 82.8531H130.14Z" fill="#EAB599"/>
<path d="M123.993 62.4357V77.2848C123.993 96.689 109.817 112.787 91.2555 115.775L91.0649 115.805C72.4127 112.891 58.147 96.7515 58.147 77.2848V62.4354C58.147 42.9651 72.4167 26.8263 91.0712 23.9121C109.723 26.8263 123.993 42.9647 123.993 62.4354L123.993 62.4357Z" fill="#F6CAAE"/>
<path d="M76.6938 75.0138C76.6938 77.4576 74.7136 79.4365 72.2698 79.4365C69.8277 79.4365 67.8472 77.4576 67.8472 75.0138C67.8472 72.5701 69.8277 70.5898 72.2698 70.5898C74.7136 70.5898 76.6938 72.5701 76.6938 75.0138ZM102.15 75.0138C102.15 77.4576 100.17 79.4365 97.726 79.4365C95.2839 79.4365 93.3033 77.4576 93.3033 75.0138C93.3033 72.5701 95.2839 70.5898 97.726 70.5898C100.17 70.5898 102.15 72.5701 102.15 75.0138Z" fill="#3D4159"/>
<path d="M75.7913 74.2328C75.7913 74.7354 75.5916 75.2173 75.2363 75.5727C74.8809 75.9281 74.3989 76.1277 73.8964 76.1277C73.3938 76.1277 72.9118 75.9281 72.5565 75.5727C72.2011 75.2173 72.0015 74.7354 72.0015 74.2328C72.0015 73.7302 72.2011 73.2483 72.5565 72.8929C72.9118 72.5375 73.3938 72.3379 73.8964 72.3379C74.3989 72.3379 74.8809 72.5375 75.2363 72.8929C75.5916 73.2483 75.7913 73.7302 75.7913 74.2328ZM101.465 74.2328C101.456 74.7294 101.252 75.2025 100.898 75.5504C100.543 75.8983 100.066 76.0932 99.5697 76.0932C99.073 76.0932 98.5962 75.8983 98.2417 75.5504C97.8872 75.2025 97.6834 74.7294 97.6741 74.2328C97.6834 73.7362 97.8872 73.2631 98.2417 72.9152C98.5962 72.5673 99.073 72.3724 99.5697 72.3724C100.066 72.3724 100.543 72.5673 100.898 72.9152C101.252 73.2631 101.456 73.7362 101.465 74.2328Z" fill="white"/>
<path d="M89.4212 84.4166H80.5745C80.3239 84.4166 80.0757 84.3672 79.8441 84.2713C79.6126 84.1753 79.4022 84.0347 79.225 83.8574C79.0478 83.6801 78.9073 83.4696 78.8115 83.238C78.7157 83.0063 78.6665 82.7581 78.6667 82.5075C78.6667 82.0015 78.8677 81.5162 79.2255 81.1584C79.5833 80.8006 80.0685 80.5996 80.5745 80.5996H89.4212C89.9272 80.5996 90.4124 80.8006 90.7702 81.1584C91.128 81.5162 91.329 82.0015 91.329 82.5075C91.329 83.562 90.4757 84.4166 89.4212 84.4166ZM84.9985 96.4893C81.7327 96.4893 78.4681 95.6708 75.4915 94.0353C75.2918 93.9256 75.1156 93.7776 74.9731 93.5998C74.8306 93.422 74.7245 93.2179 74.6608 92.9991C74.5972 92.7804 74.5773 92.5512 74.6022 92.3247C74.6271 92.0982 74.6964 91.8789 74.8061 91.6792C74.9159 91.4795 75.0638 91.3033 75.2416 91.1608C75.4194 91.0183 75.6235 90.9122 75.8423 90.8485C76.061 90.7849 76.2902 90.765 76.5167 90.7899C76.7432 90.8148 76.9625 90.8841 77.1622 90.9938C82.0687 93.6916 87.927 93.6916 92.8338 90.9938C93.0335 90.8842 93.2528 90.8149 93.4793 90.79C93.7058 90.7651 93.9349 90.785 94.1537 90.8487C94.3725 90.9123 94.5766 91.0184 94.7543 91.161C94.9321 91.3035 95.08 91.4796 95.1897 91.6793C95.2994 91.879 95.3687 92.0984 95.3936 92.3249C95.4185 92.5513 95.3986 92.7805 95.3349 92.9993C95.2712 93.218 95.1651 93.4221 95.0226 93.5999C94.8801 93.7776 94.7039 93.9256 94.5042 94.0353C91.5292 95.6708 88.263 96.4893 84.9985 96.4893Z" fill="#EAB599"/>
<path d="M123.993 48.958V64.1694H116.735V52.2574L64.3468 42.5223L53.2626 40.461V64.1691H46.0044V48.9577C46.0044 31.618 60.0589 17.5625 77.396 17.5625H92.602C93.0144 17.5625 93.4268 17.5705 93.8405 17.5911C110.6 18.2359 123.993 32.0308 123.993 48.958Z" fill="#2A2F4F"/>
<path d="M123.993 48.9588V64.1701H116.735V52.2582L64.3467 42.523C67.2337 28.6591 79.2622 18.1536 93.8403 17.5918C110.6 18.2366 123.993 32.0315 123.993 48.9588Z" fill="#3D4159"/>
<path d="M75.8925 127.382L72.4025 131.92L62.8719 134.464L57.2443 135.962L52.8528 131.914C52.7307 131.798 52.6061 131.688 52.4883 131.57C40.1098 120.017 34.2604 110.934 28.8686 94.8809C28.8128 94.7252 28.761 94.5655 28.7092 94.4061L26.8389 88.733L30.5377 84.23L36.7958 76.6075L42.3653 75.3066L43.2289 77.5024L45.6611 83.6891L49.1822 92.6473L44.5986 96.8316L41.504 99.6552C42.9228 104.204 49.8204 114.917 53.3728 118.095L57.2237 116.447L62.928 113.997L69.6267 120.919L74.2519 125.692L74.2559 125.69L75.8925 127.382Z" fill="#66BAED"/>
<path d="M62.9288 113.999L57.2235 116.447L72.4037 131.919L75.8923 127.384L62.9288 113.999ZM49.1834 92.6473L44.5934 96.8276L36.793 76.6036L42.3664 75.3066L49.1834 92.6473Z" fill="#F2F0EC"/>
<path d="M62.8719 134.464L57.2443 135.962L52.8528 131.914C52.7307 131.799 52.6061 131.689 52.4883 131.571C40.1098 120.017 34.2604 110.934 28.8686 94.8814C28.8128 94.7256 28.761 94.5659 28.7092 94.4066L26.8389 88.7335L30.5377 84.2305C30.5377 84.2305 31.7167 114.963 62.8696 134.46C62.8696 134.46 62.8719 134.46 62.8719 134.464Z" fill="#2BA1CF"/>
<path d="M52.3961 114.262L47.1211 119.536C46.4538 120.205 45.6606 120.736 44.7871 121.098C43.9136 121.46 42.9771 121.645 42.0317 121.643C41.0861 121.646 40.1494 121.461 39.2756 121.099C38.4019 120.738 37.6084 120.207 36.941 119.537C34.129 116.725 34.129 112.167 36.941 109.356L42.2147 104.081C45.0263 101.27 49.5841 101.27 52.3961 104.081C52.8947 104.579 53.3175 105.148 53.6512 105.769C55.1171 108.494 54.6944 111.962 52.3961 114.262Z" fill="#EAB599"/>
<path d="M52.3963 114.261L47.1213 119.534C46.454 120.204 45.6608 120.735 44.7873 121.097C43.9138 121.458 42.9773 121.644 42.0319 121.642C40.8445 121.645 39.6749 121.352 38.6286 120.791C37.1643 118.066 37.586 114.597 39.884 112.298L45.159 107.023C47.4573 104.725 50.9264 104.302 53.6517 105.768C55.1173 108.493 54.6943 111.961 52.3963 114.261Z" fill="#F6CAAE"/>
<path d="M45.574 160.324C41.5764 158.225 37.7516 155.811 34.1355 153.107C32.2575 151.704 30.4389 150.222 28.6845 148.667C28.378 137.961 30.1686 127.298 33.9555 117.279C35.4782 117.855 37.0046 118.431 38.5276 119.007C41.8164 120.248 45.1058 121.494 48.3975 122.736C43.8648 134.734 42.8845 147.784 45.574 160.324Z" fill="#2A2F4F"/>
<path d="M45.5742 160.325C41.5767 158.226 37.7519 155.812 34.1357 153.108C33.1786 141.559 34.6753 129.938 38.5275 119.008C41.8166 120.249 45.106 121.495 48.3978 122.737C43.8651 134.735 42.8848 147.785 45.5742 160.325Z" fill="#3D4159"/>
<path d="M97.8856 5.64453H161.151V53.2004H97.8853L97.8856 5.64453Z" fill="#F2F0EC"/>
<path d="M130.025 50.2269L123.232 66.3616L152.954 49.3789L130.025 50.2269Z" fill="#F2F0EC"/>
<path d="M122.145 29.4224C122.145 31.884 120.148 33.8802 117.687 33.8802C115.224 33.8802 113.228 31.884 113.228 29.4224C113.228 26.9607 115.224 24.9648 117.687 24.9648C120.148 24.9648 122.145 26.9607 122.145 29.4224ZM133.976 29.4224C133.976 31.884 131.98 33.8802 129.518 33.8802C127.056 33.8802 125.06 31.884 125.06 29.4224C125.06 26.9607 127.056 24.9648 129.518 24.9648C131.98 24.9648 133.976 26.9607 133.976 29.4224ZM145.808 29.4224C145.808 31.884 143.812 33.8802 141.349 33.8802C138.888 33.8802 136.891 31.884 136.891 29.4224C136.891 26.9607 138.888 24.9648 141.349 24.9648C143.812 24.9648 145.808 26.9607 145.808 29.4224Z" fill="#3D4159"/>
</g>
<defs>
<clipPath id="clip0_8458_40280">
<rect width="170" height="170" fill="white"/>
</clipPath>
</defs>
</svg>
