<svg width="342" height="280" viewBox="0 0 342 280" fill="none" xmlns="http://www.w3.org/2000/svg">
<path d="M326.819 132.397H15.1808C6.79641 132.397 0 139.194 0 147.578V264.724C0 273.108 6.79641 279.905 15.1808 279.905H326.819C335.204 279.905 342 273.108 342 264.724V147.578C342 139.194 335.204 132.397 326.819 132.397Z" fill="url(#paint0_linear_8115_28210)"/>
<path d="M311.638 150.685H30.3622C23.4826 150.685 17.906 156.262 17.906 163.141V249.16C17.906 256.039 23.4826 261.616 30.3622 261.616H311.637C318.517 261.616 324.093 256.039 324.093 249.16V163.141C324.094 156.262 318.517 150.685 311.638 150.685Z" fill="url(#paint1_linear_8115_28210)"/>
<path d="M107.629 173.402L214.132 279.905H326.82C335.204 279.905 342.001 273.108 342.001 264.724V234.031L240.367 132.397H102.976V161.418C102.976 166.319 103.989 170.671 107.629 173.402Z" fill="url(#paint2_linear_8115_28210)"/>
<path d="M162.621 261.618H70.8411L40.8852 231.663C38.7722 230.366 37.7469 228.341 37.7469 225.709C37.7469 223.804 38.4751 222.195 39.4998 221.018L44.2455 214.935L32.1059 202.475C29.5207 201.379 28.9514 198.714 28.9514 195.368C28.9514 191.559 31.6499 187.973 36.34 187.973C36.7799 187.973 37.5162 187.973 38.5408 188.412L54.6021 193.398L53.8658 177.778C54.018 172.936 57.0122 171.414 61.1095 171.414C64.1908 171.414 66.9436 171.975 68.1842 174.641L82.9888 188.933C82.9888 188.933 85.303 187.973 86.0312 187.973C88.672 187.973 90.8172 188.942 92.1456 191.143L116.243 215.241L162.621 261.618Z" fill="url(#paint3_linear_8115_28210)"/>
<path d="M235.977 261.618H144.197L114.241 231.662C112.128 230.366 111.103 228.341 111.103 225.708C111.103 223.803 111.831 222.195 112.856 221.018L117.602 214.934L105.462 202.475C102.877 201.378 102.308 198.713 102.308 195.368C102.308 191.558 105.006 187.972 109.695 187.972C110.135 187.972 110.872 187.972 111.896 188.412L127.958 193.398L127.221 177.777C127.374 172.935 130.368 170.742 134.466 170.742C137.547 170.742 140.292 171.975 141.54 174.64L155.674 188.261L157.187 187.74C157.923 187.452 158.659 187.301 159.387 187.301C162.028 187.301 164.173 188.942 165.502 191.142L235.977 261.618Z" fill="url(#paint4_linear_8115_28210)"/>
<path d="M309.326 261.618H217.554L187.598 231.662C185.485 230.366 183.781 228.341 183.781 225.708C183.781 223.803 184.517 222.195 185.542 221.018L189.599 215.239L190.288 214.263L178.811 202.475C176.234 201.378 174.985 198.713 174.985 195.368C174.985 191.558 178.362 187.301 183.053 187.301C183.492 187.301 184.221 187.301 185.253 187.741L200.643 192.726L199.907 177.776C200.059 172.935 203.717 170.742 207.822 170.742C210.903 170.742 213.648 171.974 214.897 174.639L229.03 188.26L230.542 187.74C231.279 187.451 232.007 187.3 232.743 187.3C235.384 187.3 237.521 188.941 238.858 191.142L262.955 215.239L309.326 261.618Z" fill="url(#paint5_linear_8115_28210)"/>
<path d="M324.092 203.019V249.157C324.092 256.04 318.514 261.618 311.639 261.618H290.903L260.947 231.662C258.842 230.366 257.138 228.341 257.138 225.708C257.138 223.803 257.874 222.195 258.899 221.018L262.957 215.239L263.645 214.263L252.169 202.475C249.592 201.378 248.344 198.713 248.344 195.368C248.344 191.558 251.721 187.301 256.411 187.301C256.851 187.301 257.579 187.301 258.604 187.741L274.002 192.726L273.265 177.776C273.41 172.935 277.075 170.742 281.18 170.742C284.262 170.742 287.007 171.974 288.255 174.639L302.38 188.26L303.901 187.74C304.638 187.451 305.366 187.3 306.102 187.3C308.743 187.3 310.88 188.941 312.217 191.142L324.092 203.019Z" fill="url(#paint6_linear_8115_28210)"/>
<path d="M83.9812 221.166C84.7141 222.045 85.1534 223.805 85.1534 225.417C85.1534 230.108 80.4626 233.332 76.2117 233.332C74.5996 233.332 72.2546 233.039 70.6418 230.548L61.1134 215.888L51.4389 230.694C50.1198 232.893 48.3609 233.332 46.3082 233.332C42.7896 233.332 37.0735 230.547 37.0735 225.71C37.0735 223.805 37.8065 222.192 38.8325 221.019L48.507 207.24L33.2626 202.842C29.8908 202.109 28.2781 199.177 28.2781 195.366C28.2781 191.555 31.6498 187.304 36.3406 187.304C36.7805 187.304 37.5134 187.304 38.5394 187.744L53.9314 192.728L53.1978 177.776C53.3447 172.939 57.0094 170.74 61.1134 170.74C65.2181 170.74 68.736 172.939 68.8829 177.776L68.2961 193.021L83.8343 187.744C84.5673 187.451 85.3002 187.304 86.0332 187.304C90.5777 187.304 93.6557 192.142 93.6557 196.392C93.6557 199.324 92.1898 202.109 88.6719 202.842L73.7198 206.36L83.9812 221.166Z" fill="url(#paint7_linear_8115_28210)"/>
<path d="M157.337 221.166C158.07 222.045 158.509 223.805 158.509 225.417C158.509 230.108 153.818 233.332 149.567 233.332C147.955 233.332 145.61 233.039 143.998 230.548L134.469 215.888L124.795 230.694C123.476 232.893 121.717 233.332 119.664 233.332C116.145 233.332 110.429 230.547 110.429 225.71C110.429 223.805 111.162 222.192 112.188 221.019L121.863 207.24L106.618 202.842C103.247 202.109 101.634 199.177 101.634 195.366C101.634 191.555 105.006 187.304 109.696 187.304C110.136 187.304 110.869 187.304 111.895 187.744L127.287 192.728L126.554 177.776C126.7 172.939 130.365 170.74 134.469 170.74C138.574 170.74 142.092 172.939 142.239 177.776L141.652 193.021L157.19 187.744C157.923 187.451 158.656 187.304 159.389 187.304C163.933 187.304 167.011 192.142 167.011 196.392C167.011 199.324 165.546 202.109 162.028 202.842L147.076 206.36L157.337 221.166Z" fill="url(#paint8_linear_8115_28210)"/>
<path d="M230.692 221.166C231.425 222.045 231.865 223.805 231.865 225.417C231.865 230.108 227.174 233.332 222.923 233.332C221.311 233.332 218.966 233.039 217.353 230.548L207.825 215.888L198.15 230.694C196.831 232.893 195.072 233.332 193.019 233.332C189.501 233.332 183.785 230.547 183.785 225.71C183.785 223.805 184.518 222.192 185.544 221.019L195.218 207.24L179.974 202.842C176.602 202.109 174.989 199.177 174.989 195.366C174.989 191.555 178.361 187.304 183.052 187.304C183.492 187.304 184.225 187.304 185.251 187.744L200.643 192.728L199.909 177.776C200.056 172.939 203.721 170.74 207.825 170.74C211.929 170.74 215.447 172.939 215.594 177.776L215.007 193.021L230.545 187.744C231.278 187.451 232.011 187.304 232.744 187.304C237.289 187.304 240.367 192.142 240.367 196.392C240.367 199.324 238.901 202.109 235.383 202.842L220.431 206.36L230.692 221.166Z" fill="url(#paint9_linear_8115_28210)"/>
<path d="M304.048 221.166C304.781 222.045 305.22 223.805 305.22 225.417C305.22 230.108 300.529 233.332 296.279 233.332C294.667 233.332 292.321 233.039 290.709 230.548L281.18 215.888L271.506 230.694C270.187 232.893 268.428 233.332 266.375 233.332C262.857 233.332 257.14 230.547 257.14 225.71C257.14 223.805 257.873 222.192 258.899 221.019L268.574 207.24L253.329 202.842C249.958 202.109 248.345 199.177 248.345 195.366C248.345 191.555 251.717 187.304 256.407 187.304C256.847 187.304 257.58 187.304 258.606 187.744L273.998 192.728L273.265 177.776C273.412 172.939 277.076 170.74 281.18 170.74C285.285 170.74 288.803 172.939 288.95 177.776L288.363 193.021L303.901 187.744C304.634 187.451 305.367 187.304 306.1 187.304C310.645 187.304 313.723 192.142 313.723 196.392C313.723 199.324 312.257 202.109 308.739 202.842L293.787 206.36L304.048 221.166Z" fill="url(#paint10_linear_8115_28210)"/>
<path d="M214.4 53.6772H214.235C209.692 53.6772 205.703 50.7715 204.176 46.4918C198.942 31.8193 184.828 21.328 168.336 21.5198C147.688 21.7605 131.213 38.8867 131.213 59.5368V68.1404H109.79V59.0835C109.79 26.5572 136.253 0.0951538 168.782 0.0951538C194.472 0.0951538 216.38 16.603 224.453 39.568C226.877 46.4623 221.708 53.6772 214.4 53.6772Z" fill="url(#paint11_linear_8115_28210)"/>
<path d="M217.22 53.6772H214.236C209.692 53.6772 205.703 50.7715 204.176 46.4918C198.942 31.8194 184.828 21.328 168.336 21.5198C147.688 21.7605 131.213 38.8867 131.213 59.5368V68.1404H119.846V60.6285C119.846 33.6474 141.797 11.693 168.782 11.693C193.402 11.693 213.836 29.9766 217.22 53.6772Z" fill="url(#paint12_linear_8115_28210)"/>
<path d="M241.649 47.7961C241.203 46.6532 241.23 45.3801 241.723 44.2567C242.216 43.1333 243.134 42.2517 244.277 41.8058L250.993 39.1858C252.133 38.7528 253.398 38.7876 254.513 39.2826C255.628 39.7776 256.502 40.6927 256.945 41.8289C257.388 42.9651 257.365 44.2303 256.88 45.3494C256.395 46.4684 255.488 47.3507 254.356 47.8042L247.64 50.4242C247.074 50.645 246.47 50.7522 245.863 50.7396C245.255 50.7271 244.656 50.595 244.1 50.351C243.544 50.1069 243.041 49.7557 242.621 49.3173C242.2 48.879 241.87 48.3621 241.649 47.7961Z" fill="url(#paint13_linear_8115_28210)"/>
<path d="M240.82 57.3862C241.456 56.3369 242.482 55.5828 243.673 55.29C244.864 54.9971 246.123 55.1893 247.173 55.8244L253.34 59.5576C254.366 60.204 255.097 61.2274 255.376 62.4075C255.655 63.5877 255.459 64.8302 254.831 65.8676C254.203 66.905 253.193 67.6544 252.018 67.9544C250.843 68.2545 249.597 68.0812 248.549 67.4718L242.382 63.7387C241.333 63.1034 240.579 62.0772 240.286 60.8859C239.993 59.6946 240.185 58.4357 240.82 57.3862Z" fill="url(#paint14_linear_8115_28210)"/>
<path d="M234.546 41.3008C235.13 41.4702 235.741 41.5231 236.344 41.4564C236.948 41.3896 237.533 41.2047 238.065 40.912C238.597 40.6193 239.066 40.2247 239.446 39.7506C239.826 39.2766 240.108 38.7323 240.278 38.149L242.288 31.2266C242.458 30.6432 242.51 30.0323 242.444 29.4285C242.377 28.8248 242.192 28.2401 241.899 27.7079C241.606 27.1757 241.212 26.7063 240.738 26.3267C240.263 25.947 239.719 25.6644 239.136 25.495C238.553 25.3257 237.942 25.2729 237.338 25.3397C236.734 25.4065 236.149 25.5915 235.617 25.8842C235.085 26.177 234.616 26.5716 234.236 27.0458C233.856 27.5199 233.574 28.0641 233.404 28.6475L231.394 35.57C231.225 36.1532 231.172 36.7642 231.238 37.3679C231.305 37.9716 231.49 38.5562 231.783 39.0884C232.076 39.6206 232.47 40.0899 232.945 40.4695C233.419 40.8491 233.963 41.1316 234.546 41.3008Z" fill="url(#paint15_linear_8115_28210)"/>
<path d="M225.392 176.393H116.608C108.338 176.393 101.634 169.688 101.634 161.419V78.1785C101.634 69.9081 108.338 63.2042 116.608 63.2042H225.393C233.663 63.2042 240.367 69.9088 240.367 78.1785V161.419C240.367 169.688 233.663 176.393 225.392 176.393Z" fill="url(#paint16_linear_8115_28210)"/>
<path d="M197.593 109.129C197.593 94.4429 185.687 82.5366 171 82.5366C156.314 82.5366 144.407 94.4429 144.407 109.129C144.407 119.527 150.378 128.524 159.074 132.897V145.135C159.074 151.721 164.414 157.06 171 157.06C177.587 157.06 182.926 151.721 182.926 145.135V132.897C191.623 128.524 197.593 119.527 197.593 109.129Z" fill="url(#paint17_linear_8115_28210)"/>
<path d="M171 150.147C168.237 150.147 165.987 147.898 165.987 145.134V128.634L162.18 126.72C155.482 123.352 151.321 116.612 151.321 109.129C151.321 98.2773 160.149 89.4497 171 89.4497C181.851 89.4497 190.679 98.278 190.679 109.129C190.679 116.611 186.518 123.352 179.82 126.72L176.013 128.634V145.134C176.013 147.898 173.764 150.147 171 150.147Z" fill="url(#paint18_linear_8115_28210)"/>
<path d="M101.633 138.755V161.418C101.633 169.688 108.338 176.392 116.607 176.392H225.392C233.662 176.392 240.366 169.688 240.366 161.418V138.755H101.633Z" fill="url(#paint19_linear_8115_28210)"/>
<path d="M0 233.332V264.724C0 273.108 6.79641 279.905 15.1808 279.905H326.819C335.204 279.905 342 273.108 342 264.724V233.332H0Z" fill="url(#paint20_linear_8115_28210)"/>
<defs>
<linearGradient id="paint0_linear_8115_28210" x1="126.855" y1="0.450559" x2="189.89" y2="294.168" gradientUnits="userSpaceOnUse">
<stop stop-color="#FF9100"/>
<stop offset="1" stop-color="#E63950"/>
</linearGradient>
<linearGradient id="paint1_linear_8115_28210" x1="171" y1="162.162" x2="171" y2="279.051" gradientUnits="userSpaceOnUse">
<stop stop-color="#FDBF00"/>
<stop offset="1" stop-color="#FF9100"/>
</linearGradient>
<linearGradient id="paint2_linear_8115_28210" x1="238.966" y1="234.855" x2="173.857" y2="97.9494" gradientUnits="userSpaceOnUse">
<stop stop-color="#E63950" stop-opacity="0"/>
<stop offset="0.047" stop-color="#E4354B" stop-opacity="0.047"/>
<stop offset="0.467" stop-color="#D31822" stop-opacity="0.467"/>
<stop offset="0.799" stop-color="#C90709" stop-opacity="0.799"/>
<stop offset="1" stop-color="#C50000"/>
</linearGradient>
<linearGradient id="paint3_linear_8115_28210" x1="95.3457" y1="233.777" x2="-76.1519" y2="126.698" gradientUnits="userSpaceOnUse">
<stop stop-color="#E63950" stop-opacity="0"/>
<stop offset="0.047" stop-color="#E4354B" stop-opacity="0.047"/>
<stop offset="0.467" stop-color="#D31822" stop-opacity="0.467"/>
<stop offset="0.799" stop-color="#C90709" stop-opacity="0.799"/>
<stop offset="1" stop-color="#C50000"/>
</linearGradient>
<linearGradient id="paint4_linear_8115_28210" x1="164.206" y1="230.855" x2="-7.29132" y2="123.775" gradientUnits="userSpaceOnUse">
<stop stop-color="#E63950" stop-opacity="0"/>
<stop offset="0.047" stop-color="#E4354B" stop-opacity="0.047"/>
<stop offset="0.467" stop-color="#D31822" stop-opacity="0.467"/>
<stop offset="0.799" stop-color="#C90709" stop-opacity="0.799"/>
<stop offset="1" stop-color="#C50000"/>
</linearGradient>
<linearGradient id="paint5_linear_8115_28210" x1="239.964" y1="232.355" x2="67.8937" y2="124.917" gradientUnits="userSpaceOnUse">
<stop stop-color="#E63950" stop-opacity="0"/>
<stop offset="0.047" stop-color="#E4354B" stop-opacity="0.047"/>
<stop offset="0.467" stop-color="#D31822" stop-opacity="0.467"/>
<stop offset="0.799" stop-color="#C90709" stop-opacity="0.799"/>
<stop offset="1" stop-color="#C50000"/>
</linearGradient>
<linearGradient id="paint6_linear_8115_28210" x1="296.29" y1="221.723" x2="186.562" y2="153.211" gradientUnits="userSpaceOnUse">
<stop stop-color="#E63950" stop-opacity="0"/>
<stop offset="0.047" stop-color="#E4354B" stop-opacity="0.047"/>
<stop offset="0.467" stop-color="#D31822" stop-opacity="0.467"/>
<stop offset="0.799" stop-color="#C90709" stop-opacity="0.799"/>
<stop offset="1" stop-color="#C50000"/>
</linearGradient>
<linearGradient id="paint7_linear_8115_28210" x1="43.4327" y1="188.322" x2="76.2909" y2="221.18" gradientUnits="userSpaceOnUse">
<stop stop-color="#EDF5FF"/>
<stop offset="1" stop-color="#D5E8FE"/>
</linearGradient>
<linearGradient id="paint8_linear_8115_28210" x1="116.788" y1="188.322" x2="149.647" y2="221.18" gradientUnits="userSpaceOnUse">
<stop stop-color="#EDF5FF"/>
<stop offset="1" stop-color="#D5E8FE"/>
</linearGradient>
<linearGradient id="paint9_linear_8115_28210" x1="190.144" y1="188.322" x2="223.002" y2="221.18" gradientUnits="userSpaceOnUse">
<stop stop-color="#EDF5FF"/>
<stop offset="1" stop-color="#D5E8FE"/>
</linearGradient>
<linearGradient id="paint10_linear_8115_28210" x1="263.5" y1="188.322" x2="296.358" y2="221.18" gradientUnits="userSpaceOnUse">
<stop stop-color="#EDF5FF"/>
<stop offset="1" stop-color="#D5E8FE"/>
</linearGradient>
<linearGradient id="paint11_linear_8115_28210" x1="134.313" y1="16.9477" x2="180.973" y2="63.6066" gradientUnits="userSpaceOnUse">
<stop stop-color="#EDF5FF"/>
<stop offset="1" stop-color="#B5DBFF"/>
</linearGradient>
<linearGradient id="paint12_linear_8115_28210" x1="168.534" y1="57.2675" x2="168.534" y2="-75.0764" gradientUnits="userSpaceOnUse">
<stop stop-color="#B5DBFF" stop-opacity="0"/>
<stop offset="0.243" stop-color="#93CEF6" stop-opacity="0.243"/>
<stop offset="0.576" stop-color="#6ABFEC" stop-opacity="0.576"/>
<stop offset="0.84" stop-color="#51B5E5" stop-opacity="0.84"/>
<stop offset="1" stop-color="#48B2E3"/>
</linearGradient>
<linearGradient id="paint13_linear_8115_28210" x1="248.559" y1="44.2001" x2="250.422" y2="48.9835" gradientUnits="userSpaceOnUse">
<stop stop-color="#FF637B"/>
<stop offset="1" stop-color="#E63950"/>
</linearGradient>
<linearGradient id="paint14_linear_8115_28210" x1="248.372" y1="61.6823" x2="245.714" y2="66.0747" gradientUnits="userSpaceOnUse">
<stop stop-color="#FF637B"/>
<stop offset="1" stop-color="#E63950"/>
</linearGradient>
<linearGradient id="paint15_linear_8115_28210" x1="237.745" y1="33.4931" x2="232.816" y2="32.0609" gradientUnits="userSpaceOnUse">
<stop stop-color="#FF637B"/>
<stop offset="1" stop-color="#E63950"/>
</linearGradient>
<linearGradient id="paint16_linear_8115_28210" x1="134.327" y1="83.1254" x2="195.812" y2="144.61" gradientUnits="userSpaceOnUse">
<stop stop-color="#FFDA2D"/>
<stop offset="1" stop-color="#FDBF00"/>
</linearGradient>
<linearGradient id="paint17_linear_8115_28210" x1="197.878" y1="143.639" x2="136.547" y2="82.3073" gradientUnits="userSpaceOnUse">
<stop stop-color="#FFDA2D"/>
<stop offset="1" stop-color="#FDBF00"/>
</linearGradient>
<linearGradient id="paint18_linear_8115_28210" x1="192.064" y1="137.829" x2="143.999" y2="89.7642" gradientUnits="userSpaceOnUse">
<stop stop-color="#0B799D"/>
<stop offset="1" stop-color="#07485E"/>
</linearGradient>
<linearGradient id="paint19_linear_8115_28210" x1="171" y1="158.556" x2="171" y2="177.074" gradientUnits="userSpaceOnUse">
<stop stop-color="#FF9100" stop-opacity="0"/>
<stop offset="1" stop-color="#FF9100"/>
</linearGradient>
<linearGradient id="paint20_linear_8115_28210" x1="171" y1="254.772" x2="171" y2="283.802" gradientUnits="userSpaceOnUse">
<stop stop-color="#E63950" stop-opacity="0"/>
<stop offset="0.047" stop-color="#E4354B" stop-opacity="0.047"/>
<stop offset="0.467" stop-color="#D31822" stop-opacity="0.467"/>
<stop offset="0.799" stop-color="#C90709" stop-opacity="0.799"/>
<stop offset="1" stop-color="#C50000"/>
</linearGradient>
</defs>
</svg>
