<svg width="212" height="182" viewBox="0 0 212 182" fill="none" xmlns="http://www.w3.org/2000/svg">
<g clip-path="url(#clip0_8439_22373)">
<path d="M184.217 103.931C184.217 131.079 170.053 154.98 148.512 168.259C147.332 168.849 146.152 169.735 145.267 170.325C134.349 176.521 121.66 180.062 108.381 180.062C95.9881 180.062 84.1849 177.111 73.8571 171.8C49.0703 159.112 32.2507 133.439 32.2507 103.931C32.2507 62.03 66.1849 28.0957 108.086 28.0957C121.955 28.0957 134.644 31.6368 145.857 38.1285C153.529 42.2596 160.02 47.8661 165.628 54.653C166.807 55.8332 167.987 57.3087 168.873 58.7841C178.611 71.1774 184.217 86.8167 184.217 103.931Z" fill="#EAEEF9"/>
<path d="M89.2017 27.5071V108.654C89.2017 116.031 83.3002 121.933 75.9231 121.933C75.3329 121.933 74.7428 121.933 73.8575 121.933C67.3658 121.048 62.3494 115.441 62.3494 108.654V27.5071C62.3494 20.7203 67.3658 15.1138 73.8575 14.2285C74.4477 14.2285 75.038 14.2285 75.9231 14.2285C79.7591 14.2285 83.0051 15.704 85.3657 18.0645C87.7264 20.4252 89.2017 23.6711 89.2017 27.5071Z" fill="#A4ADBE"/>
<path d="M115.758 64.0972V145.244C115.758 152.622 109.857 158.522 102.48 158.522C101.89 158.522 101.3 158.522 100.414 158.227C93.9225 157.343 88.9062 151.736 88.9062 144.949V64.0972C88.9062 57.3103 93.9225 51.7038 100.414 50.8185C101.004 50.8185 101.595 50.5234 102.48 50.5234C106.316 50.5234 109.562 51.9989 111.922 54.3596C114.283 57.0152 115.758 60.2612 115.758 64.0972Z" fill="#A4ADBE"/>
<path d="M142.611 72.9487V154.096C142.611 161.472 136.709 167.374 129.332 167.374C128.742 167.374 128.152 167.374 127.266 167.08C120.775 166.194 115.758 160.588 115.758 153.8V72.9487C115.758 66.1619 120.775 60.8505 127.266 59.6701C127.857 59.6701 128.447 59.375 129.332 59.375C133.168 59.375 136.414 60.8505 138.775 63.2112C140.84 65.8668 142.611 69.1127 142.611 72.9487Z" fill="#A4ADBE"/>
<path d="M92.7425 154.687C91.267 155.868 89.4966 156.752 87.7261 157.343C82.1196 158.819 75.9228 156.752 72.0868 152.031L32.2511 99.8019C27.2347 93.3101 28.4149 83.8677 35.2018 78.8512L35.4969 78.5561C38.1526 76.7857 41.1035 75.9004 44.0542 75.9004C48.4804 75.9004 52.9066 77.9659 55.8575 81.8021L95.3983 134.031C100.415 140.523 99.2343 149.966 92.7425 154.687Z" fill="#7F3F98"/>
<path d="M62.3492 90.3594V139.638L32.2511 99.8019C27.2347 93.3101 28.4149 83.8677 35.2018 78.8512L35.4969 78.5561C38.1526 76.7857 41.1035 75.9004 44.0542 75.9004C48.4804 75.9004 52.9066 77.9659 55.8575 81.8021L62.3492 90.3594Z" fill="#A4ADBE"/>
<path d="M169.169 46.9837V105.705C169.169 139.344 148.513 143.77 148.513 151.148V168.261C147.333 168.852 146.152 169.736 145.267 170.328C134.349 176.524 121.661 180.065 108.382 180.065C95.9886 180.065 84.1854 177.114 73.8577 171.803V87.7048L134.939 85.9343H138.185L139.365 86.8195L142.611 88.885V46.9837C142.611 43.4427 144.087 40.1968 146.152 37.8362C148.218 35.4755 151.169 34.0002 154.415 33.7051C155.005 33.7051 155.594 33.7051 156.185 33.7051C163.267 33.7051 169.169 39.6066 169.169 46.9837Z" fill="#A4ADBE"/>
<path d="M111.923 64.0972V75.9005H115.464V72.9495C115.464 66.1626 120.48 60.8512 126.972 59.6708C129.923 59.9659 132.578 61.4414 134.349 63.507C137.004 65.8676 138.48 69.1134 138.48 72.9495V82.097H142.611V46.9824C142.611 43.4415 144.086 40.1955 146.152 37.8349C148.218 35.4742 151.169 33.9989 154.415 33.7038C160.612 34.5891 165.923 40.1955 165.923 46.9824V105.703C165.923 128.614 156.341 137.974 150.229 143.944C147.368 146.74 145.267 148.793 145.267 151.146V170.031C134.349 176.228 121.66 179.769 108.382 179.769C95.9883 179.769 84.1852 176.818 73.8574 171.507V153.88C73.2252 153.319 72.6321 152.703 72.0868 152.031L32.2511 99.8017C27.2347 93.3099 28.4149 83.8673 35.2018 78.851L35.4969 78.5559C36.6773 78.2608 38.1526 77.9657 39.3329 77.9657C43.7591 77.9657 48.1853 80.0313 51.1362 83.8673L62.0541 98.2889V27.5071C62.0541 20.7202 67.0706 15.1138 73.5623 14.2285C76.513 14.5236 79.1688 15.9991 80.9392 18.0646C83.595 20.4253 85.0704 23.6711 85.0704 27.5071V71.4741H88.9064V64.0972C88.9064 57.3103 93.9228 51.7038 100.415 50.8186C103.365 51.1137 106.021 52.589 107.792 54.6546C110.447 57.0152 111.923 60.2612 111.923 64.0972Z" fill="#C6D0DE"/>
<path d="M116.432 21.2243C120.343 21.2243 123.514 18.0537 123.514 14.1425C123.514 10.2312 120.343 7.06055 116.432 7.06055C112.521 7.06055 109.35 10.2312 109.35 14.1425C109.35 18.0537 112.521 21.2243 116.432 21.2243Z" fill="#E7EBF6"/>
<path d="M203.988 91.246C207.9 91.246 211.069 88.0753 211.069 84.164C211.069 80.2527 207.9 77.082 203.988 77.082C200.076 77.082 196.905 80.2527 196.905 84.164C196.905 88.0753 200.076 91.246 203.988 91.246Z" fill="#E7EBF6"/>
<path d="M190.676 7.90069H183.252V0.476562H176.887V7.90069H169.463V14.4763H176.887V21.9005H183.252V14.4763H190.676V7.90069Z" fill="url(#paint0_linear_8439_22373)"/>
<path d="M22.1788 43.2165H14.9624V36H8.77684V43.2165H1.81812V49.4019H8.77684V56.3608H14.9624V49.4019H22.1788V43.2165Z" fill="url(#paint1_linear_8439_22373)"/>
</g>
<defs>
<linearGradient id="paint0_linear_8439_22373" x1="180.072" y1="1.2208" x2="180.072" y2="13.2458" gradientUnits="userSpaceOnUse">
<stop stop-color="#B0BACC"/>
<stop offset="1" stop-color="#969EAE"/>
</linearGradient>
<linearGradient id="paint1_linear_8439_22373" x1="12.0001" y1="36.7074" x2="12.0001" y2="48.1356" gradientUnits="userSpaceOnUse">
<stop stop-color="#B0BACC"/>
<stop offset="1" stop-color="#969EAE"/>
</linearGradient>
<clipPath id="clip0_8439_22373">
<rect width="211" height="181.071" fill="white" transform="translate(0.5)"/>
</clipPath>
</defs>
</svg>
