<svg width="105" height="104" viewBox="0 0 105 104" fill="none" xmlns="http://www.w3.org/2000/svg">
<rect x="0.666992" width="104" height="104" rx="52" fill="#E7F6EF"/>
<path d="M52.6682 21.0479C35.6134 21.0479 21.7158 34.9455 21.7158 52.0002C21.7158 69.055 35.6134 82.9526 52.6682 82.9526C69.723 82.9526 83.6206 69.055 83.6206 52.0002C83.6206 34.9455 69.723 21.0479 52.6682 21.0479ZM67.4634 44.8812L49.9134 62.4312C49.4801 62.8645 48.892 63.1121 48.273 63.1121C47.6539 63.1121 47.0658 62.8645 46.6325 62.4312L37.873 53.6717C36.9753 52.774 36.9753 51.2883 37.873 50.3907C38.7706 49.4931 40.2563 49.4931 41.1539 50.3907L48.273 57.5098L64.1825 41.6002C65.0801 40.7026 66.5658 40.7026 67.4634 41.6002C68.3611 42.4979 68.3611 43.9526 67.4634 44.8812Z" fill="#0F9D58"/>
</svg>
