<svg width="211" height="182" viewBox="0 0 211 182" fill="none" xmlns="http://www.w3.org/2000/svg">
<path d="M183.717 103.932C183.717 131.079 169.553 154.98 148.013 168.26C146.832 168.85 145.652 169.735 144.767 170.325C133.849 176.522 121.16 180.062 107.882 180.062C95.4884 180.062 83.6851 177.111 73.3573 171.801C48.5705 159.112 31.751 133.44 31.751 103.932C31.751 62.0305 65.6852 28.0962 107.587 28.0962C121.455 28.0962 134.144 31.6372 145.357 38.129C153.029 42.2601 159.521 47.8666 165.128 54.6535C166.307 55.8337 167.488 57.3092 168.374 58.7846C178.111 71.1779 183.717 86.8172 183.717 103.932Z" fill="#EAEEF9"/>
<path d="M88.702 27.5064V108.654C88.702 116.03 82.8004 121.932 75.4233 121.932C74.8331 121.932 74.2431 121.932 73.3578 121.932C66.866 121.047 61.8496 115.44 61.8496 108.654V27.5064C61.8496 20.7195 66.866 15.1131 73.3578 14.2278C73.948 14.2278 74.5382 14.2278 75.4233 14.2278C79.2594 14.2278 82.5053 15.7033 84.866 18.0638C87.2266 20.4244 88.702 23.6704 88.702 27.5064Z" fill="#A4ADBE"/>
<path d="M115.258 64.0962V145.243C115.258 152.621 109.357 158.521 101.98 158.521C101.39 158.521 100.8 158.521 99.9143 158.226C93.4225 157.342 88.4062 151.735 88.4062 144.948V64.0962C88.4062 57.3093 93.4225 51.7029 99.9143 50.8176C100.504 50.8176 101.095 50.5225 101.98 50.5225C105.816 50.5225 109.062 51.998 111.422 54.3586C113.783 57.0142 115.258 60.2602 115.258 64.0962Z" fill="#A4ADBE"/>
<path d="M142.111 72.9492V154.097C142.111 161.473 136.21 167.375 128.833 167.375C128.242 167.375 127.652 167.375 126.767 167.08C120.275 166.194 115.259 160.588 115.259 153.801V72.9492C115.259 66.1624 120.275 60.851 126.767 59.6706C127.357 59.6706 127.947 59.3755 128.833 59.3755C132.669 59.3755 135.914 60.851 138.275 63.2116C140.341 65.8673 142.111 69.1132 142.111 72.9492Z" fill="#A4ADBE"/>
<path d="M92.2425 154.687C90.767 155.868 88.9966 156.752 87.2261 157.344C81.6196 158.819 75.4228 156.752 71.5868 152.031L31.7511 99.8024C26.7347 93.3106 27.9149 83.8682 34.7018 78.8517L34.9969 78.5566C37.6526 76.7862 40.6035 75.9009 43.5542 75.9009C47.9804 75.9009 52.4066 77.9664 55.3575 81.8026L94.8983 134.032C99.9145 140.524 98.7343 149.966 92.2425 154.687Z" fill="#7F3F98"/>
<path d="M61.8492 90.3599V139.638L31.7511 99.8024C26.7347 93.3106 27.9149 83.8682 34.7018 78.8517L34.9969 78.5566C37.6526 76.7862 40.6035 75.9009 43.5542 75.9009C47.9804 75.9009 52.4066 77.9664 55.3575 81.8026L61.8492 90.3599Z" fill="#A4ADBE"/>
<path d="M168.668 46.9837V105.705C168.668 139.344 148.013 143.77 148.013 151.148V168.261C146.832 168.852 145.652 169.736 144.767 170.328C133.849 176.524 121.16 180.065 107.882 180.065C95.4883 180.065 83.6852 177.114 73.3574 171.803V87.7048L134.439 85.9343H137.685L138.865 86.8195L142.111 88.885V46.9837C142.111 43.4427 143.586 40.1968 145.652 37.8362C147.718 35.4755 150.669 34.0002 153.915 33.7051C154.504 33.7051 155.094 33.7051 155.685 33.7051C162.766 33.7051 168.668 39.6066 168.668 46.9837Z" fill="#A4ADBE"/>
<path d="M111.423 64.0965V75.8997H114.964V72.9487C114.964 66.1619 119.98 60.8505 126.472 59.6701C129.423 59.9652 132.078 61.4407 133.849 63.5062C136.504 65.8669 137.98 69.1127 137.98 72.9487V82.0962H142.111V46.9817C142.111 43.4408 143.586 40.1948 145.652 37.8341C147.718 35.4735 150.669 33.9981 153.915 33.703C160.112 34.5883 165.423 40.1948 165.423 46.9817V105.703C165.423 128.613 155.841 137.973 149.729 143.944C146.868 146.74 144.767 148.792 144.767 151.145V170.031C133.849 176.228 121.16 179.768 107.882 179.768C95.4883 179.768 83.6852 176.817 73.3574 171.506V153.88C72.7252 153.318 72.1321 152.702 71.5868 152.03L31.7511 99.8009C26.7347 93.3092 27.9149 83.8666 34.7018 78.8503L34.9969 78.5552C36.1773 78.2601 37.6526 77.965 38.8329 77.965C43.2591 77.965 47.6853 80.0305 50.6362 83.8666L61.5541 98.2882V27.5064C61.5541 20.7195 66.5706 15.113 73.0623 14.2278C76.013 14.5229 78.6688 15.9983 80.4392 18.0639C83.095 20.4245 84.5704 23.6703 84.5704 27.5064V71.4734H88.4064V64.0965C88.4064 57.3096 93.4228 51.7031 99.9145 50.8178C102.865 51.1129 105.521 52.5883 107.292 54.6538C109.947 57.0145 111.423 60.2604 111.423 64.0965Z" fill="#C6D0DE"/>
<path d="M115.933 21.2248C119.844 21.2248 123.014 18.0542 123.014 14.143C123.014 10.2317 119.844 7.06104 115.933 7.06104C112.021 7.06104 108.851 10.2317 108.851 14.143C108.851 18.0542 112.021 21.2248 115.933 21.2248Z" fill="#E7EBF6"/>
<path d="M203.488 91.2457C207.4 91.2457 210.569 88.075 210.569 84.1638C210.569 80.2525 207.4 77.0818 203.488 77.0818C199.576 77.0818 196.405 80.2525 196.405 84.1638C196.405 88.075 199.576 91.2457 203.488 91.2457Z" fill="#E7EBF6"/>
<path d="M190.175 7.9002H182.751V0.476074H176.387V7.9002H168.963V14.4759H176.387V21.9001H182.751V14.4759H190.175V7.9002Z" fill="url(#paint0_linear_8458_40808)"/>
<path d="M21.679 43.2158H14.4626V35.9993H8.27708V43.2158H1.31836V49.4012H8.27708V56.36H14.4626V49.4012H21.679V43.2158Z" fill="url(#paint1_linear_8458_40808)"/>
<defs>
<linearGradient id="paint0_linear_8458_40808" x1="179.571" y1="1.22031" x2="179.571" y2="13.2453" gradientUnits="userSpaceOnUse">
<stop stop-color="#B0BACC"/>
<stop offset="1" stop-color="#969EAE"/>
</linearGradient>
<linearGradient id="paint1_linear_8458_40808" x1="11.5003" y1="36.7066" x2="11.5003" y2="48.1349" gradientUnits="userSpaceOnUse">
<stop stop-color="#B0BACC"/>
<stop offset="1" stop-color="#969EAE"/>
</linearGradient>
</defs>
</svg>
