<svg width="342" height="342" viewBox="0 0 342 342" fill="none" xmlns="http://www.w3.org/2000/svg">
<path d="M307.292 150.947L175.99 53.0433C174.549 51.9667 172.799 51.385 171 51.385C169.201 51.385 167.451 51.9667 166.01 53.0433L34.7077 150.947C32.5969 152.524 31.3478 155.002 31.3478 157.64C31.3478 160.279 32.5902 162.757 34.7077 164.334L166.01 262.238C167.493 263.34 169.243 263.894 171 263.894C172.757 263.894 174.514 263.34 175.99 262.238L307.292 164.334C309.403 162.757 310.652 160.279 310.652 157.64C310.652 155.002 309.41 152.524 307.292 150.947Z" fill="url(#paint0_linear_8115_28232)"/>
<path d="M243.495 71.8066H98.5054C82.8267 71.8066 70.1167 84.5167 70.1167 100.195V260.12C70.1167 275.799 82.8267 288.509 98.5054 288.509H243.495C259.173 288.509 271.883 275.799 271.883 260.12V100.195C271.883 84.5167 259.173 71.8066 243.495 71.8066Z" fill="url(#paint1_linear_8115_28232)"/>
<path d="M306.05 150.179C304.666 149.484 303.115 149.188 301.572 149.323C300.029 149.459 298.554 150.021 297.313 150.947L218.292 209.862L191.079 182.649C180.011 171.581 162.002 171.581 150.934 182.649L123.721 209.862L44.7004 150.947C42.1688 149.057 38.7889 148.763 35.9634 150.179C33.1379 151.595 31.3611 154.481 31.3611 157.641V288.562C31.3611 292.831 32.2896 296.932 34.1064 300.753C38.7889 310.592 48.8552 316.951 59.7498 316.951H282.264C293.158 316.951 303.224 310.592 307.9 300.76C309.721 296.952 310.661 292.783 310.652 288.562V157.641C310.652 154.481 308.869 151.595 306.05 150.179Z" fill="url(#paint2_linear_8115_28232)"/>
<path d="M215.734 36.6046L175.308 25.6232C172.487 24.8551 169.512 24.8551 166.692 25.6232L126.266 36.6046C119.132 38.5417 114.142 45.0611 114.142 52.4555V99.9615C114.142 113.568 119.727 126.707 129.486 136.032L129.619 136.159C140.026 146.051 152.771 153.379 166.491 157.34C167.967 157.767 169.484 157.981 171 157.981C172.516 157.981 174.033 157.767 175.509 157.34C189.222 153.379 201.974 146.058 212.407 136.132L212.541 136.005C222.273 126.7 227.857 113.561 227.857 99.9615V52.4622C227.857 45.0678 222.874 38.5484 215.734 36.6113V36.6046Z" fill="url(#paint3_linear_8115_28232)"/>
<path d="M165.503 108.031C163.365 108.031 161.228 107.216 159.598 105.586L146.619 92.6073C143.36 89.3476 143.36 84.0573 146.619 80.7976C149.879 77.5379 155.169 77.5379 158.429 80.7976L165.503 87.8714L185.455 67.9191C188.715 64.6594 194.005 64.6594 197.265 67.9191C200.524 71.1788 200.524 76.4691 197.265 79.7288L171.408 105.586C170.633 106.362 169.712 106.978 168.699 107.397C167.686 107.817 166.599 108.032 165.503 108.031Z" fill="url(#paint4_linear_8115_28232)"/>
<defs>
<linearGradient id="paint0_linear_8115_28232" x1="171" y1="177.493" x2="171" y2="123.601" gradientUnits="userSpaceOnUse">
<stop stop-color="#FF9500"/>
<stop offset="1" stop-color="#FFCC1E"/>
</linearGradient>
<linearGradient id="paint1_linear_8115_28232" x1="171" y1="73.2361" x2="171" y2="206.108" gradientUnits="userSpaceOnUse">
<stop stop-color="#FFDBB8"/>
<stop offset="1" stop-color="#FFEBD9"/>
</linearGradient>
<linearGradient id="paint2_linear_8115_28232" x1="171" y1="316.951" x2="171" y2="149.291" gradientUnits="userSpaceOnUse">
<stop stop-color="#FFBD00"/>
<stop offset="1" stop-color="#FFF065"/>
</linearGradient>
<linearGradient id="paint3_linear_8115_28232" x1="171" y1="157.988" x2="171" y2="25.0488" gradientUnits="userSpaceOnUse">
<stop stop-color="#4CA342"/>
<stop offset="1" stop-color="#54CC46"/>
</linearGradient>
<linearGradient id="paint4_linear_8115_28232" x1="171.942" y1="108.031" x2="171.942" y2="65.4744" gradientUnits="userSpaceOnUse">
<stop stop-color="#62D154"/>
<stop offset="1" stop-color="#9DED93"/>
</linearGradient>
</defs>
</svg>
