<svg width="70" height="70" viewBox="0 0 70 70" fill="none" xmlns="http://www.w3.org/2000/svg">
<rect width="70" height="70" rx="35" fill="#FFF6E8"/>
<path d="M35.0003 14.1667C23.5212 14.1667 14.167 23.5209 14.167 35.0001C14.167 46.4792 23.5212 55.8334 35.0003 55.8334C46.4795 55.8334 55.8337 46.4792 55.8337 35.0001C55.8337 23.5209 46.4795 14.1667 35.0003 14.1667ZM33.4378 26.6667C33.4378 25.8126 34.1462 25.1042 35.0003 25.1042C35.8545 25.1042 36.5628 25.8126 36.5628 26.6667V37.0834C36.5628 37.9376 35.8545 38.6459 35.0003 38.6459C34.1462 38.6459 33.4378 37.9376 33.4378 37.0834V26.6667ZM36.917 44.1251C36.8128 44.3959 36.667 44.6042 36.4795 44.8126C36.2712 45.0001 36.042 45.1459 35.792 45.2501C35.542 45.3542 35.2712 45.4167 35.0003 45.4167C34.7295 45.4167 34.4587 45.3542 34.2087 45.2501C33.9587 45.1459 33.7295 45.0001 33.5212 44.8126C33.3337 44.6042 33.1878 44.3959 33.0837 44.1251C32.9795 43.8751 32.917 43.6042 32.917 43.3334C32.917 43.0626 32.9795 42.7917 33.0837 42.5417C33.1878 42.2917 33.3337 42.0626 33.5212 41.8542C33.7295 41.6667 33.9587 41.5209 34.2087 41.4167C34.7087 41.2084 35.292 41.2084 35.792 41.4167C36.042 41.5209 36.2712 41.6667 36.4795 41.8542C36.667 42.0626 36.8128 42.2917 36.917 42.5417C37.0212 42.7917 37.0837 43.0626 37.0837 43.3334C37.0837 43.6042 37.0212 43.8751 36.917 44.1251Z" fill="#FFA114"/>
</svg>
